<svg id="BI-icon_M" xmlns="http://www.w3.org/2000/svg" viewBox="0 0 256 256">
  <defs>
    <style>
      #base{fill:url(#G_base)}#flare{fill:url(#G_flare)}#leaf{fill:url(#G_leaf)}#center{fill:url(#G_center)}
    </style>
    <radialGradient id="G_base" cx="128" cy="128" r="114.83" gradientUnits="userSpaceOnUse"><stop offset="0" stop-color="#fff"/><stop offset=".36" stop-color="#daf9fa"/><stop offset="1" stop-color="#3be6df"/></radialGradient>
    <radialGradient id="G_flare" cx="128" cy="128" r="103.12" gradientUnits="userSpaceOnUse"><stop offset=".5" stop-color="#d72109"/><stop offset=".84" stop-color="#fe4712"/><stop offset="1" stop-color="#ff6016"/></radialGradient>
    <radialGradient id="G_leaf" cx="128" cy="128" r="94.44" gradientUnits="userSpaceOnUse"><stop offset=".2" stop-color="#ffeeb9"/><stop offset=".55" stop-color="#ffd55b"/><stop offset="1" stop-color="#ff7c33"/></radialGradient>
    <radialGradient id="G_center" cx="128" cy="128" r="42.25" gradientUnits="userSpaceOnUse"><stop offset=".4" stop-color="#ea2400"/><stop offset="1" stop-color="#ff4a16"/></radialGradient>
  </defs>
  <path id="base" d="M224.22 136.23c3.59-2.24 6.74-4.58 9.29-6.68.98-.81.98-2.3 0-3.1-2.55-2.1-5.7-4.44-9.29-6.68 7.82-6.83 13.75-14.73 18.22-20.82a1.99 1.99 0 0 0-.81-3.01c-6.91-3.04-16.01-6.92-26.19-8.92 1.99-3.73 3.55-7.33 4.7-10.43a2.01 2.01 0 0 0-1.55-2.69c-3.26-.55-7.16-1-11.38-1.14 3.36-9.82 4.54-19.63 5.37-27.14.14-1.27-.93-2.34-2.2-2.2-7.5.83-17.32 2.01-27.14 5.37-.14-4.23-.6-8.12-1.14-11.38-.21-1.25-1.5-2-2.69-1.55-3.1 1.16-6.7 2.71-10.43 4.7-2-10.19-5.88-19.28-8.92-26.19-.51-1.17-1.97-1.56-3.01-.81-6.09 4.47-13.99 10.4-20.82 18.22a88.204 88.204 0 0 0-6.68-9.29c-.81-.98-2.3-.98-3.1 0-2.1 2.55-4.44 5.7-6.68 9.29-6.83-7.82-14.73-13.75-20.82-18.22a1.99 1.99 0 0 0-3.01.81c-3.04 6.91-6.92 16.01-8.92 26.19a85.827 85.827 0 0 0-10.43-4.7 2.01 2.01 0 0 0-2.69 1.55c-.55 3.26-1 7.16-1.14 11.38-9.82-3.36-19.63-4.54-27.14-5.37-1.27-.14-2.34.93-2.2 2.2.83 7.5 2.01 17.32 5.37 27.14-4.23.14-8.12.6-11.38 1.14-1.25.21-2 1.5-1.55 2.69 1.16 3.1 2.71 6.7 4.7 10.43-10.19 2-19.28 5.88-26.19 8.92-1.17.51-1.56 1.97-.81 3.01 4.47 6.09 10.4 13.99 18.22 20.82a88.204 88.204 0 0 0-9.29 6.68c-.98.81-.98 2.3 0 3.1 2.55 2.1 5.7 4.44 9.29 6.68-7.82 6.83-13.75 14.73-18.22 20.82a1.99 1.99 0 0 0 .81 3.01c6.91 3.04 16.01 6.92 26.19 8.92a85.827 85.827 0 0 0-4.7 10.43 2.01 2.01 0 0 0 1.55 2.69c3.26.55 7.16 1 11.38 1.14-3.36 9.82-4.54 19.63-5.37 27.14-.14 1.27.93 2.34 2.2 2.2 7.5-.83 17.32-2.01 27.14-5.37.14 4.23.6 8.12 1.14 11.38.21 1.25 1.5 2 2.69 1.55 3.1-1.16 6.7-2.71 10.43-4.7 2 10.19 5.88 19.28 8.92 26.19.51 1.17 1.97 1.56 3.01.81 6.09-4.47 13.99-10.4 20.82-18.22 2.24 3.59 4.58 6.74 6.68 9.29.81.98 2.3.98 3.1 0 2.1-2.55 4.44-5.7 6.68-9.29 6.83 7.82 14.73 13.75 20.82 18.22 1.03.76 2.49.37 3.01-.81 3.04-6.91 6.92-16.01 8.92-26.19 3.73 1.99 7.33 3.55 10.43 4.7 1.19.44 2.48-.3 2.69-1.55.55-3.26 1-7.16 1.14-11.38 9.82 3.36 19.63 4.54 27.14 5.37 1.27.14 2.34-.93 2.2-2.2-.83-7.5-2.01-17.32-5.37-27.14 4.23-.14 8.12-.6 11.38-1.14 1.25-.21 2-1.5 1.55-2.69-1.16-3.1-2.71-6.7-4.7-10.43 10.19-2 19.28-5.88 26.19-8.92 1.17-.51 1.56-1.97.81-3.01-4.47-6.08-10.4-13.99-18.22-20.82z"/>
  <path id="flare" d="M140.25 39.04c4.86-5.99 10.29-10.76 14.51-13.96.52-.4 1.28-.2 1.53.41 2.06 4.88 4.37 11.72 5.58 19.34-6.15 4.18-12.03 9.6-15.98 16.41-.03-7.87-2.41-15.5-5.64-22.2zM79.13 79.13c-3.92-6.83-5.67-14.63-6.22-22.05-7.21-2.76-14.29-4.18-19.54-4.83-.65-.08-1.2.47-1.12 1.12.65 5.25 2.07 12.33 4.83 19.54 7.43.55 15.22 2.3 22.05 6.22zm30.98-17.88c.02-7.88 2.4-15.5 5.64-22.2-4.86-5.99-10.29-10.76-14.51-13.96a.996.996 0 0 0-1.53.41c-2.06 4.88-4.37 11.72-5.58 19.34 6.15 4.18 12.03 9.6 15.98 16.41zm66.76 17.88c6.83-3.92 14.63-5.67 22.05-6.22 2.76-7.21 4.18-14.29 4.83-19.54.08-.65-.47-1.2-1.12-1.12-5.25.65-12.33 2.07-19.54 4.83-.55 7.43-2.3 15.22-6.22 22.05zm17.88 30.98c7.88.02 15.5 2.4 22.2 5.64 5.99-4.86 10.76-10.29 13.96-14.51.4-.52.2-1.28-.41-1.53-4.88-2.06-11.72-4.37-19.34-5.58-4.18 6.15-9.6 12.03-16.41 15.98zm-155.71 5.64c6.7-3.23 14.33-5.61 22.2-5.64-6.81-3.96-12.22-9.83-16.41-15.98-7.62 1.21-14.46 3.53-19.34 5.58a.997.997 0 0 0-.41 1.53c3.2 4.23 7.97 9.65 13.96 14.51zm137.83 61.12c3.92 6.83 5.67 14.63 6.22 22.05 7.21 2.76 14.29 4.18 19.54 4.83.65.08 1.2-.47 1.12-1.12-.65-5.25-2.07-12.33-4.83-19.54-7.43-.55-15.22-2.3-22.05-6.22zM61.25 145.89c-7.88-.02-15.5-2.4-22.2-5.64-5.99 4.86-10.76 10.29-13.96 14.51-.4.52-.2 1.28.41 1.53 4.88 2.06 11.72 4.37 19.34 5.58 4.18-6.15 9.6-12.03 16.41-15.98zm155.71-5.64c-6.7 3.23-14.33 5.62-22.2 5.64 6.81 3.96 12.22 9.83 16.41 15.98 7.62-1.21 14.46-3.53 19.34-5.58.61-.26.81-1.01.41-1.53-3.2-4.23-7.97-9.65-13.96-14.51zm-71.07 54.5c-.02 7.88-2.4 15.5-5.64 22.2 4.86 5.99 10.29 10.76 14.51 13.96.52.4 1.28.2 1.53-.41 2.06-4.88 4.37-11.72 5.58-19.34-6.15-4.18-12.03-9.6-15.98-16.41zm-66.76-17.88c-6.83 3.92-14.63 5.67-22.05 6.22-2.76 7.21-4.18 14.29-4.83 19.54-.08.65.47 1.2 1.12 1.12 5.25-.65 12.33-2.07 19.54-4.83.55-7.43 2.3-15.22 6.22-22.05zm30.98 17.88c-3.96 6.81-9.83 12.22-15.98 16.41 1.21 7.62 3.53 14.46 5.58 19.34.26.61 1.01.81 1.53.41 4.22-3.19 9.64-7.96 14.51-13.96-3.23-6.69-5.61-14.32-5.64-22.2z"/>
  <path id="leaf" d="M118.23 70c-3.35-13.74 3.89-28.05 8.93-35.98a.991.991 0 0 1 1.68 0c5.04 7.93 12.28 22.24 8.93 35.98-1.25 5.11-5.23 8.34-9.77 8.34-4.54 0-8.52-3.23-9.77-8.34zm34.6 14.99c3.93 2.27 9 1.46 12.63-2.34 9.77-10.22 10.65-26.23 10.26-35.62a.997.997 0 0 0-1.46-.84c-8.33 4.35-21.76 13.12-25.72 26.69-1.48 5.05.36 9.84 4.29 12.11zm18.18 18.18c2.27 3.93 7.06 5.77 12.11 4.29 13.57-3.97 22.34-17.39 26.69-25.72a.997.997 0 0 0-.84-1.46c-9.39-.4-25.4.49-35.62 10.26-3.81 3.63-4.61 8.7-2.34 12.63zm6.65 24.83c0 4.54 3.23 8.52 8.34 9.77 13.74 3.35 28.05-3.89 35.98-8.93a.991.991 0 0 0 0-1.68c-7.93-5.04-22.24-12.28-35.98-8.93-5.11 1.25-8.34 5.23-8.34 9.77zm-6.65 24.83c-2.27 3.93-1.46 9 2.34 12.63 10.22 9.77 26.23 10.65 35.62 10.26a.997.997 0 0 0 .84-1.46c-4.35-8.33-13.12-21.76-26.69-25.72-5.05-1.48-9.84.36-12.11 4.29zm-18.18 18.18c-3.93 2.27-5.77 7.06-4.29 12.11 3.97 13.57 17.39 22.34 25.72 26.69a.997.997 0 0 0 1.46-.84c.4-9.39-.49-25.4-10.26-35.62-3.63-3.81-8.7-4.61-12.63-2.34zM128 177.66c-4.54 0-8.52 3.23-9.77 8.34-3.35 13.74 3.89 28.05 8.93 35.98.39.62 1.29.62 1.68 0 5.04-7.93 12.28-22.24 8.93-35.98-1.25-5.11-5.23-8.34-9.77-8.34zm-24.83-6.65c-3.93-2.27-9-1.46-12.63 2.34-9.77 10.22-10.65 26.23-10.26 35.62.03.73.81 1.18 1.46.84 8.33-4.35 21.76-13.12 25.72-26.69 1.48-5.05-.36-9.84-4.29-12.11zm-18.18-18.18c-2.27-3.93-7.06-5.77-12.11-4.29-13.57 3.97-22.34 17.39-26.69 25.72-.34.65.11 1.43.84 1.46 9.39.4 25.4-.49 35.62-10.26 3.81-3.63 4.61-8.7 2.34-12.63zM78.34 128c0-4.54-3.23-8.52-8.34-9.77-13.74-3.35-28.05 3.89-35.98 8.93a.991.991 0 0 0 0 1.68c7.93 5.04 22.24 12.28 35.98 8.93 5.11-1.25 8.34-5.23 8.34-9.77zm6.65-24.83c2.27-3.93 1.46-9-2.34-12.63-10.22-9.77-26.23-10.65-35.62-10.26a.997.997 0 0 0-.84 1.46c4.35 8.33 13.12 21.76 26.69 25.72 5.05 1.48 9.84-.36 12.11-4.29zm18.18-18.18c3.93-2.27 5.77-7.06 4.29-12.11-3.97-13.57-17.39-22.34-25.72-26.69a.997.997 0 0 0-1.46.84c-.4 9.39.49 25.4 10.26 35.62 3.63 3.81 8.7 4.61 12.63 2.34z"/>
  <circle id="center" cx="128" cy="128" r="42.25"/>
</svg>
