<svg id="BI-icon_L" xmlns="http://www.w3.org/2000/svg" viewBox="0 0 512 512">
  <defs>
    <style>
      #base{fill:url(#G_base)}#flare{fill:url(#G_flare)}#leaf{fill:url(#G_leaf)}#center{fill:url(#G_center)}#effect #shadow{fill:none;stroke:#000;stroke-width:.5;opacity:.1}#effect #highlight{fill:none;stroke:#fff;stroke-width:1;opacity:.4}
    </style>
    <radialGradient id="G_base" cx="256" cy="256" r="231.82" gradientUnits="userSpaceOnUse"><stop offset="0" stop-color="#fff"/><stop offset=".36" stop-color="#daf9fa"/><stop offset="1" stop-color="#3be6df"/></radialGradient>
    <radialGradient id="G_flare" cx="256" cy="256" r="207.34" gradientUnits="userSpaceOnUse"><stop offset=".5" stop-color="#d72109"/><stop offset=".84" stop-color="#fe4712"/><stop offset="1" stop-color="#ff6016"/></radialGradient>
    <radialGradient id="G_leaf" cx="256" cy="256" r="190.56" gradientUnits="userSpaceOnUse"><stop offset=".2" stop-color="#ffeeb9"/><stop offset=".55" stop-color="#ffd55b"/><stop offset="1" stop-color="#ff7c33"/></radialGradient>
    <radialGradient id="G_center" cx="256" cy="256" r="87.45" gradientUnits="userSpaceOnUse"><stop offset=".4" stop-color="#ea2400"/><stop offset="1" stop-color="#ff4a16"/></radialGradient>
  </defs>
  <path id="base" d="M445.96 272.52c10.09-5.55 18.58-11.59 24.7-16.52-6.12-4.93-14.61-10.97-24.7-16.52 18.59-15.05 32.15-33.08 41.86-45.6-14.67-5.98-35.43-14.82-59.05-18.56 5.96-9.85 10.3-19.33 13.13-26.66-7.76-1.21-18.14-2.19-29.65-1.96 8.58-22.33 11.3-44.72 13.46-60.42-15.7 2.16-38.09 4.88-60.42 13.46.23-11.51-.75-21.89-1.96-29.65-7.33 2.83-16.81 7.17-26.66 13.13-3.74-23.63-12.57-44.38-18.56-59.05-12.52 9.71-30.55 23.27-45.6 41.86-5.55-10.09-11.59-18.58-16.52-24.7-4.93 6.12-10.97 14.61-16.52 24.7-15.05-18.59-33.08-32.15-45.6-41.86-5.98 14.67-14.82 35.43-18.56 59.05-9.85-5.96-19.33-10.3-26.66-13.13-1.21 7.76-2.19 18.14-1.96 29.65-22.33-8.58-44.72-11.3-60.42-13.46 2.16 15.7 4.88 38.09 13.46 60.42-11.51-.23-21.89.75-29.65 1.96 2.83 7.33 7.17 16.81 13.13 26.66-23.63 3.74-44.38 12.57-59.05 18.56 9.71 12.52 23.27 30.55 41.86 45.6-10.09 5.55-18.58 11.59-24.7 16.52 6.12 4.93 14.61 10.97 24.7 16.52-18.59 15.05-32.15 33.08-41.86 45.6 14.67 5.98 35.43 14.82 59.05 18.56-5.96 9.85-10.3 19.33-13.13 26.66 7.76 1.21 18.14 2.19 29.65 1.96-8.58 22.33-11.3 44.72-13.46 60.42 15.7-2.16 38.09-4.88 60.42-13.46-.23 11.51.75 21.89 1.96 29.65 7.33-2.83 16.81-7.17 26.66-13.13 3.74 23.63 12.57 44.38 18.56 59.05 12.52-9.71 30.55-23.27 45.6-41.86 5.55 10.09 11.59 18.58 16.52 24.7 4.93-6.12 10.97-14.61 16.52-24.7 15.05 18.59 33.08 32.15 45.6 41.86 5.98-14.67 14.82-35.43 18.56-59.05 9.85 5.96 19.33 10.3 26.66 13.13 1.21-7.76 2.19-18.14 1.96-29.65 22.33 8.58 44.72 11.3 60.42 13.46-2.16-15.7-4.88-38.09-13.46-60.42 11.51.23 21.89-.75 29.65-1.96-2.83-7.33-7.17-16.81-13.13-26.66 23.63-3.74 44.38-12.57 59.05-18.56-9.71-12.52-23.27-30.55-41.86-45.6z"/>
  <path id="flare" d="M48.66 200.44c10.24-4.53 25.72-9.98 43.06-12.49 12.03 16.1 28.53 31.18 50.01 37.43-21.73-5.33-43.55-.52-62.02 7.41-13.77-10.84-24.45-23.31-31.05-32.35zm123.68-28.1c-15.48-16.16-22.23-37.46-24.59-57.42-16.26-6.49-32.41-9.51-43.53-10.71 1.2 11.13 4.22 27.27 10.71 43.53 19.95 2.38 41.25 9.12 57.41 24.6zm53.04-30.62c-5.33-21.73-.52-43.56 7.41-62.02-10.84-13.76-23.31-24.44-32.35-31.04-4.53 10.24-9.98 25.72-12.49 43.06 16.1 12.02 31.18 28.52 37.43 50zm144.9 83.66c21.73-5.33 43.55-.52 62.02 7.41 13.76-10.84 24.44-23.31 31.04-32.35-10.24-4.53-25.72-9.98-43.06-12.49-12.02 16.1-28.52 31.18-50 37.43zm-30.62-53.04c16.16-15.48 37.46-22.23 57.42-24.59 6.49-16.26 9.51-32.41 10.71-43.53-11.13 1.2-27.27 4.22-43.53 10.71-2.38 19.95-9.12 41.25-24.6 57.41zm-53.04-30.62c6.25-21.48 21.33-37.98 37.43-50.01-2.51-17.33-7.97-32.82-12.49-43.06-9.04 6.6-21.51 17.29-32.35 31.04 7.93 18.48 12.74 40.3 7.41 62.03zm-144.9 144.9c-21.73 5.33-43.56.52-62.02-7.41-13.76 10.84-24.44 23.31-31.04 32.35 10.24 4.53 25.72 9.98 43.06 12.49 12.02-16.1 28.52-31.18 50-37.43zm144.9 83.66c5.33 21.73.52 43.55-7.41 62.02 10.84 13.76 23.31 24.44 32.35 31.04 4.53-10.24 9.98-25.72 12.49-43.06-16.1-12.02-31.17-28.52-37.43-50zm145.68-91.07c-18.47 7.93-40.29 12.74-62.02 7.41 21.48 6.25 37.98 21.33 50.01 37.43 17.33-2.51 32.82-7.97 43.06-12.49-6.61-9.04-17.29-21.51-31.05-32.35zm-92.64 60.45c15.48 16.16 22.23 37.46 24.59 57.42 16.26 6.49 32.41 9.51 43.53 10.71-1.2-11.13-4.22-27.27-10.71-43.53-19.95-2.38-41.25-9.12-57.41-24.6zm-114.28 30.62c-6.25 21.48-21.33 37.98-37.43 50.01 2.51 17.33 7.97 32.82 12.49 43.06 9.04-6.6 21.51-17.29 32.35-31.04-7.93-18.48-12.74-40.3-7.41-62.03zm-53.04-30.62c-16.16 15.48-37.46 22.23-57.42 24.59-6.49 16.26-9.51 32.41-10.71 43.53 11.13-1.2 27.27-4.22 43.53-10.71 2.38-19.95 9.12-41.25 24.6-57.41z"/>
  <path id="leaf" d="M236.46 139.99c-7.09-29.04 9.51-59.37 19.54-74.55 10.03 15.18 26.63 45.51 19.54 74.55-2.49 10.22-10.46 16.69-19.54 16.69-9.08 0-17.05-6.46-19.54-16.69zm69.2 30c7.86 4.54 18 2.93 25.27-4.68 20.66-21.61 21.45-56.17 20.35-74.34-16.28 8.13-45.82 26.1-54.2 54.79-2.95 10.1.72 19.69 8.58 24.23zm36.35 36.35c4.54 7.86 14.12 11.53 24.22 8.58 28.7-8.38 46.66-37.92 54.79-54.2-18.16-1.1-52.73-.31-74.34 20.35-7.59 7.27-9.2 17.41-4.67 25.27zM355.32 256c0 9.08 6.46 17.05 16.69 19.54 29.04 7.09 59.37-9.51 74.55-19.54-15.18-10.03-45.51-26.63-74.55-19.54-10.23 2.49-16.69 10.46-16.69 19.54zm-13.31 49.66c-4.54 7.86-2.93 18 4.68 25.27 21.61 20.66 56.17 21.45 74.34 20.35-8.13-16.28-26.1-45.82-54.79-54.2-10.1-2.95-19.69.72-24.23 8.58zm-36.35 36.35c-7.86 4.54-11.53 14.12-8.58 24.22 8.38 28.7 37.92 46.66 54.2 54.79 1.1-18.16.31-52.73-20.35-74.34-7.27-7.59-17.41-9.2-25.27-4.67zM256 355.32c-9.08 0-17.05 6.46-19.54 16.69-7.09 29.04 9.51 59.37 19.54 74.55 10.03-15.18 26.63-45.51 19.54-74.55-2.49-10.23-10.46-16.69-19.54-16.69zm-49.66-13.31c-7.86-4.54-18-2.93-25.27 4.68-20.66 21.61-21.45 56.17-20.35 74.34 16.28-8.13 45.82-26.1 54.2-54.79 2.95-10.1-.72-19.69-8.58-24.23zm-36.35-36.35c-4.54-7.86-14.12-11.53-24.22-8.58-28.7 8.38-46.66 37.92-54.79 54.2 18.16 1.1 52.73.31 74.34-20.35 7.59-7.27 9.2-17.41 4.67-25.27zM156.68 256c0-9.08-6.46-17.05-16.69-19.54-29.04-7.09-59.37 9.51-74.55 19.54 15.18 10.03 45.51 26.63 74.55 19.54 10.23-2.49 16.69-10.46 16.69-19.54zm13.31-49.66c4.54-7.86 2.93-18-4.68-25.27-21.61-20.66-56.17-21.45-74.34-20.35 8.13 16.28 26.1 45.82 54.79 54.2 10.1 2.95 19.69-.72 24.23-8.58zm36.35-36.35c7.86-4.54 11.53-14.12 8.58-24.22-8.38-28.7-37.92-46.66-54.2-54.79-1.1 18.16-.31 52.73 20.35 74.34 7.27 7.59 17.41 9.2 25.27 4.67z"/>
  <circle id="center" cx="256" cy="256" r="87.45"/>
  <g id="effect">
    <path id="shadow" d="M446.4 272.56c10.8-5.98 19.23-12.19 24.41-16.37l.24-.19-.24-.19c-5.19-4.18-13.61-10.39-24.41-16.37 17.44-14.19 30.46-30.99 39.97-43.28l1.85-2.38-2.79-1.14c-14.38-5.88-34.06-13.93-56.25-17.5 6.36-10.58 10.56-20.17 12.96-26.38l.11-.29-.31-.05c-6.58-1.02-16.98-2.19-29.32-1.97 8.01-21.01 10.88-42.07 12.98-57.46L426 86l-2.99.41c-15.4 2.1-36.46 4.96-57.47 12.98.22-12.34-.94-22.74-1.97-29.32l-.05-.31-.29.11c-6.21 2.4-15.8 6.59-26.38 12.96-3.56-22.2-11.61-41.87-17.5-56.26l-1.14-2.79-2.38 1.85c-12.29 9.51-29.09 22.53-43.28 39.97-5.98-10.8-12.19-19.23-16.37-24.41l-.18-.25-.19.24c-4.18 5.19-10.39 13.61-16.37 24.41-14.19-17.44-30.99-30.46-43.28-39.97l-2.39-1.85-1.14 2.79c-5.89 14.38-13.93 34.06-17.5 56.26-10.58-6.36-20.17-10.55-26.38-12.96l-.29-.11-.05.31c-1.02 6.58-2.19 16.98-1.97 29.32-21.01-8.01-42.07-10.88-57.47-12.98L86 86l.41 2.99c2.1 15.4 4.96 36.46 12.98 57.47-12.34-.22-22.74.94-29.32 1.97l-.31.05.11.29c2.4 6.21 6.59 15.8 12.96 26.38-22.2 3.56-41.87 11.61-56.25 17.5l-2.79 1.14 1.85 2.38c9.51 12.29 22.53 29.09 39.97 43.28-10.8 5.98-19.23 12.19-24.41 16.37l-.26.18.24.19c5.19 4.18 13.61 10.39 24.41 16.37-17.44 14.19-30.46 30.99-39.97 43.28l-1.85 2.38 2.79 1.14c14.39 5.88 34.06 13.93 56.26 17.5-6.36 10.58-10.55 20.17-12.96 26.38l-.11.29.31.05c6.58 1.02 16.99 2.2 29.32 1.97-8.01 21.01-10.88 42.07-12.98 57.47L86 426l2.99-.41c15.4-2.1 36.46-4.96 57.47-12.98-.22 12.34.94 22.74 1.97 29.32l.05.31.29-.11c6.21-2.4 15.8-6.59 26.38-12.96 3.56 22.2 11.61 41.87 17.5 56.26l1.14 2.79 2.38-1.85c12.29-9.52 29.09-22.53 43.28-39.97 5.98 10.8 12.19 19.23 16.37 24.41l.19.24.19-.24c4.18-5.19 10.39-13.61 16.37-24.41 14.19 17.44 30.99 30.46 43.28 39.97l2.38 1.85 1.14-2.79c5.89-14.38 13.93-34.06 17.5-56.26 10.58 6.36 20.17 10.56 26.38 12.96l.29.11.05-.31c1.02-6.58 2.19-16.98 1.97-29.32 21.01 8.01 42.07 10.88 57.47 12.98l2.97.41-.41-2.99c-2.1-15.4-4.96-36.46-12.98-57.46 12.34.22 22.74-.94 29.32-1.97l.31-.05-.11-.29c-2.4-6.21-6.59-15.8-12.96-26.38 22.2-3.56 41.87-11.61 56.26-17.5l2.79-1.14-1.85-2.38c-9.51-12.29-22.52-29.09-39.97-43.28zm16.56-72.01c-5.13 6.98-15.77 20.17-30.69 31.96-14.99-6.42-29.35-9.63-42.91-9.63-4.93 0-9.75.43-14.46 1.28 16.9-6.07 32.19-18.13 45.51-35.92 18.81 2.72 34.62 8.82 42.55 12.31zM446.11 256c-15.63 10.28-45.73 26.21-74.04 19.3-9.87-2.41-16.49-10.16-16.49-19.3s6.63-16.89 16.49-19.3c4.79-1.17 9.62-1.68 14.43-1.68 23.64 0 46.62 12.44 59.61 20.98zm-25.47-95.05c-8.39 16.72-26.5 45.56-54.47 53.73-9.75 2.85-19.37-.55-23.93-8.47-4.57-7.91-2.71-17.94 4.64-24.96 17.88-17.09 45.1-20.58 64.34-20.58 3.42 0 6.59.11 9.42.28zM343.2 256c0 48.08-39.12 87.2-87.2 87.2-48.08 0-87.2-39.12-87.2-87.2 0-48.08 39.12-87.2 87.2-87.2 48.08 0 87.2 39.12 87.2 87.2zm21.28-140.9c17.67-7.03 34.41-9.66 43.02-10.6-.95 8.61-3.57 25.35-10.6 43.02-22.06 2.64-40.16 9.85-53.86 21.45 11.59-13.71 18.8-31.81 21.44-53.87zm-13.43-23.74c1.09 18.67-.17 52.71-20.31 73.77-7.02 7.34-17.05 9.2-24.96 4.64-7.91-4.57-11.31-14.19-8.47-23.93 8.18-27.97 37.03-46.08 53.74-54.48zm-39.6-42.32c3.49 7.93 9.58 23.74 12.33 42.56-17.79 13.32-29.85 28.61-35.92 45.51 3.19-17.67.39-36.94-8.36-57.37 11.79-14.93 24.97-25.57 31.95-30.7zM256 65.9c10.28 15.63 26.21 45.73 19.3 74.04-2.41 9.87-10.16 16.49-19.3 16.49s-16.89-6.63-19.3-16.49c-6.91-28.31 9.02-58.42 19.3-74.04zm-55.45-16.86c6.98 5.13 20.17 15.77 31.96 30.69-8.75 20.43-11.55 39.7-8.36 57.37-6.07-16.9-18.13-32.19-35.92-45.51 2.73-18.81 8.83-34.62 12.32-42.55zm-39.6 42.32c16.72 8.4 45.56 26.5 53.73 54.47 2.85 9.75-.55 19.37-8.47 23.93-7.91 4.57-17.94 2.71-24.96-4.64-20.13-21.05-21.39-55.08-20.3-73.76zm-13.43 23.74c2.64 22.06 9.85 40.16 21.45 53.86-13.71-11.6-31.8-18.81-53.86-21.45-7.03-17.67-9.66-34.41-10.6-43.02 8.6.95 25.34 3.58 43.01 10.61zm17.61 66.15c7.34 7.02 9.2 17.05 4.64 24.96s-14.19 11.31-23.93 8.47c-27.97-8.17-46.07-37.02-54.47-53.73 18.67-1.09 52.7.17 73.76 20.3zm-8.7 74.75c0 9.14-6.63 16.89-16.49 19.3-28.31 6.91-58.41-9.02-74.04-19.3 15.63-10.28 45.73-26.21 74.04-19.3 9.86 2.41 16.49 10.16 16.49 19.3zM49.04 200.55c7.93-3.48 23.74-9.58 42.56-12.33 13.32 17.79 28.61 29.85 45.51 35.92-17.67-3.19-36.94-.39-57.37 8.36-14.93-11.79-25.57-24.97-30.7-31.95zm0 110.9c5.12-6.98 15.77-20.17 30.69-31.96 20.43 8.75 39.7 11.55 57.37 8.36-16.9 6.07-32.19 18.13-45.51 35.92-18.81-2.73-34.62-8.83-42.55-12.32zm42.32 39.6c8.4-16.72 26.5-45.56 54.47-53.73 9.75-2.85 19.37.55 23.93 8.47 4.57 7.91 2.71 17.94-4.64 24.96-21.05 20.13-55.08 21.39-73.76 20.3zm56.16 45.85c-17.67 7.03-34.41 9.66-43.02 10.6.95-8.61 3.57-25.35 10.6-43.02 22.06-2.64 40.16-9.85 53.86-21.45-11.59 13.71-18.8 31.81-21.44 53.87zm13.43 23.74c-1.09-18.67.17-52.71 20.31-73.77 4.46-4.66 10.13-7.11 15.7-7.11 3.2 0 6.37.81 9.26 2.48 7.91 4.57 11.31 14.19 8.47 23.93-8.18 27.96-37.03 46.07-53.74 54.47zm39.6 42.32c-3.48-7.93-9.58-23.74-12.33-42.56 17.79-13.32 29.85-28.61 35.92-45.51-3.19 17.67-.39 36.94 8.36 57.37-11.79 14.93-24.97 25.57-31.95 30.7zM256 446.11c-10.28-15.63-26.21-45.73-19.3-74.04 2.41-9.87 10.16-16.49 19.3-16.49s16.89 6.63 19.3 16.49c6.91 28.3-9.02 58.41-19.3 74.04zm55.45 16.85c-6.98-5.12-20.17-15.77-31.96-30.69 8.75-20.43 11.55-39.7 8.36-57.37 6.07 16.9 18.13 32.19 35.92 45.51-2.73 18.81-8.83 34.62-12.32 42.55zm39.6-42.32c-16.72-8.4-45.56-26.5-53.73-54.47-2.85-9.75.55-19.37 8.47-23.93 2.89-1.67 6.06-2.48 9.26-2.48 5.57 0 11.24 2.45 15.7 7.11 20.13 21.06 21.39 55.09 20.3 73.77zm13.43-23.74c-2.64-22.06-9.85-40.16-21.45-53.86 13.71 11.6 31.8 18.81 53.86 21.45 7.03 17.67 9.66 34.41 10.6 43.02-8.6-.95-25.34-3.58-43.01-10.61zm-17.61-66.15c-7.34-7.02-9.2-17.05-4.64-24.96 3.49-6.05 9.94-9.46 17.13-9.46 2.22 0 4.51.32 6.8.99 27.97 8.17 46.08 37.02 54.47 53.73-18.67 1.09-52.7-.17-73.76-20.3zm73.53-6.97c-13.32-17.79-28.61-29.85-45.51-35.92 17.67 3.19 36.94.39 57.37-8.36 14.93 11.79 25.57 24.97 30.69 31.96-7.92 3.48-23.73 9.58-42.55 12.32z"/>
    <path id="highlight" d="M445.64 272.91l-.58-.47.65-.36c10.58-5.82 18.89-11.89 24.14-16.08-5.25-4.19-13.57-10.26-24.14-16.08l-.65-.36.58-.47c17.52-14.18 30.59-31.06 40.14-43.39l1.24-1.6-1.88-.77c-14.43-5.9-34.19-13.99-56.45-17.51l-.73-.12.39-.64c6.25-10.33 10.42-19.74 12.87-26-6.64-1.01-16.88-2.1-28.95-1.86l-.74.01.27-.69c8.08-21.04 10.96-42.2 13.07-57.64l.27-2.01-2.01.27c-15.45 2.1-36.6 4.98-57.65 13.07l-.69.27.02-.74c.24-12.07-.85-22.31-1.86-28.95-6.26 2.45-15.67 6.62-26 12.87l-.64.38-.12-.73c-3.52-22.26-11.6-42.03-17.51-56.46l-.77-1.88-1.6 1.24c-12.33 9.54-29.21 22.62-43.39 40.14l-.47.58-.36-.65c-5.82-10.58-11.89-18.89-16.08-24.14-4.19 5.25-10.26 13.57-16.08 24.14l-.36.65-.47-.58c-14.18-17.52-31.06-30.59-43.39-40.14l-1.6-1.24-.77 1.88c-5.9 14.43-13.99 34.19-17.51 56.46l-.12.73-.64-.38c-10.33-6.25-19.74-10.42-26-12.87-1.01 6.64-2.1 16.88-1.86 28.95l.02.74-.69-.27c-21.04-8.08-42.2-10.96-57.64-13.07l-2.01-.27.27 2.01c2.1 15.45 4.98 36.6 13.07 57.64l.27.69-.74-.01c-12.07-.25-22.31.85-28.95 1.86 2.45 6.26 6.62 15.67 12.87 26l.38.64-.73.12c-22.26 3.52-42.02 11.6-56.45 17.51l-1.88.77 1.24 1.6c9.54 12.33 22.62 29.21 40.14 43.39l.58.47-.65.36c-10.58 5.82-18.89 11.89-24.14 16.08 5.25 4.19 13.57 10.26 24.14 16.08l.65.36-.58.47c-17.52 14.18-30.59 31.06-40.14 43.39L25 317.9l1.88.77c14.43 5.9 34.19 13.99 56.46 17.51l.73.12-.38.64c-6.25 10.33-10.42 19.74-12.87 26 6.64 1.01 16.88 2.1 28.95 1.86l.74-.02-.27.69c-8.08 21.04-10.96 42.2-13.07 57.65l-.27 2.01 2.01-.27c15.45-2.1 36.61-4.98 57.65-13.07l.69-.27-.02.74c-.25 12.07.85 22.31 1.86 28.95 6.25-2.45 15.67-6.62 26-12.87l.64-.39.12.73c3.52 22.26 11.6 42.03 17.51 56.46l.77 1.88 1.6-1.24c12.33-9.54 29.21-22.62 43.39-40.14l.47-.58.36.65c5.82 10.58 11.89 18.89 16.08 24.14 4.19-5.25 10.26-13.56 16.08-24.14l.36-.65.47.58c14.18 17.52 31.06 30.59 43.39 40.14l1.6 1.24.77-1.88c5.9-14.43 13.99-34.19 17.51-56.46l.12-.73.64.39c10.33 6.25 19.75 10.42 26 12.87 1.01-6.64 2.1-16.88 1.86-28.95l-.02-.74.69.27c21.04 8.08 42.2 10.96 57.65 13.07l2.01.27-.27-2.01c-2.1-15.45-4.98-36.6-13.07-57.64l-.27-.69.74.02c12.07.24 22.31-.85 28.95-1.86-2.45-6.25-6.62-15.67-12.87-26l-.39-.64.73-.12c22.26-3.52 42.03-11.6 56.46-17.51l1.88-.77-1.24-1.6c-9.57-12.34-22.65-29.22-40.17-43.4zm1.2-17.33l.63.42-.63.42c-10.81 7.15-21.64 12.61-32.19 16.25-9.84 3.39-19.2 5.09-28 5.09-5.12 0-10.04-.57-14.75-1.72-10.21-2.49-17.07-10.54-17.07-20.03s6.86-17.54 17.07-20.03c12.82-3.13 27.2-2 42.76 3.36 10.53 3.63 21.36 9.1 32.18 16.24zm16.71-55.59l.57.25-.37.5c-5.09 6.96-15.9 20.44-31.14 32.44l-.23.18-.27-.12c-22.14-9.51-42.9-11.99-61.71-7.38l-.26-.97c18.59-5.41 35.32-17.94 49.75-37.25l.18-.24.29.04c19.2 2.79 35.3 9.06 43.19 12.55zm-42.49-39.77l.75.05-.34.68c-5.79 11.59-12.43 21.74-19.75 30.17-10.79 12.42-22.68 20.59-35.35 24.29-2.37.69-4.73 1.03-7.02 1.03-7.46 0-14.15-3.55-17.78-9.84-4.74-8.22-2.83-18.62 4.77-25.88 9.54-9.12 22.56-15.33 38.71-18.47 10.96-2.13 23.07-2.81 36.01-2.03zM343.95 256c0 48.5-39.46 87.95-87.95 87.95S168.05 304.5 168.05 256s39.46-87.95 87.95-87.95 87.95 39.45 87.95 87.95zm19.81-141.14l.04-.3.28-.11c18.02-7.19 35.09-9.82 43.67-10.74l.62-.07-.07.62c-.92 8.57-3.55 25.65-10.74 43.67l-.11.28-.29.04c-23.93 2.84-43.15 11.07-57.13 24.46l-.73-.71c13.39-13.98 21.62-33.21 24.46-57.14zm-12.7-24.34l.68-.34.05.75c.78 12.93.1 25.05-2.02 36-3.14 16.15-9.35 29.17-18.47 38.71-4.6 4.81-10.47 7.35-16.24 7.35-3.33 0-6.63-.84-9.64-2.58-8.22-4.74-11.76-14.71-8.81-24.79 3.7-12.66 11.87-24.56 24.29-35.35 8.41-7.31 18.56-13.96 30.16-19.75zm-72.24-11.13c12.01-15.24 25.48-26.05 32.44-31.14l.5-.37.25.57c3.49 7.89 9.75 23.99 12.53 43.19l.04.29-.24.18c-19.31 14.42-31.84 31.16-37.25 49.75l-.97-.26c4.61-18.8 2.12-39.56-7.38-61.71l-.12-.27.2-.23zm-39.48 17.97c3.63-10.55 9.1-21.38 16.25-32.19l.42-.63.42.63c7.15 10.81 12.61 21.64 16.25 32.19 5.36 15.55 6.49 29.94 3.36 42.76-2.49 10.21-10.54 17.07-20.03 17.07s-17.54-6.86-20.03-17.07c-3.14-12.82-2-27.21 3.36-42.76zm-51.88-5.72c2.78-19.2 9.04-35.3 12.53-43.19l.25-.57.5.37c6.96 5.09 20.44 15.9 32.45 31.14l.18.23-.12.27c-9.51 22.14-11.99 42.91-7.38 61.71l-.97.26c-5.41-18.59-17.94-35.33-37.25-49.75l-.24-.18.05-.29zm-27.24-.7l.05-.75.68.34c11.59 5.79 21.74 12.43 30.17 19.75 12.42 10.79 20.59 22.68 24.29 35.35 2.95 10.09-.59 20.05-8.81 24.79a19.151 19.151 0 0 1-9.64 2.58c-5.77 0-11.63-2.53-16.24-7.35-9.12-9.54-15.33-22.56-18.47-38.71-2.13-10.95-2.81-23.06-2.03-36zm-55.95 12.78c8.57.92 25.65 3.55 43.67 10.74l.28.11.04.3c2.84 23.93 11.07 43.15 24.46 57.13l-.72.7c-13.98-13.39-33.2-21.62-57.13-24.46l-.3-.04-.11-.28c-7.19-18.02-9.82-35.09-10.74-43.67l-.07-.62.62.09zm-13.33 56.5c12.94-.78 25.05-.1 36 2.02 16.15 3.14 29.17 9.35 38.71 18.47 7.6 7.26 9.51 17.66 4.77 25.88-3.63 6.29-10.32 9.84-17.78 9.84-2.29 0-4.65-.33-7.02-1.03-12.66-3.7-24.56-11.87-35.35-24.29-7.32-8.42-13.96-18.57-19.75-30.17l-.34-.68.76-.04zm-42.69 40.52l-.37-.5.57-.25c7.89-3.49 23.99-9.75 43.19-12.53l.29-.04.18.24c14.42 19.3 31.16 31.84 49.75 37.25l-.26.97c-18.8-4.61-39.56-2.12-61.71 7.38l-.27.12-.23-.18c-15.24-12.02-26.05-25.5-31.14-32.46zm16.92 55.68l-.64-.42.63-.42c10.81-7.15 21.64-12.61 32.19-16.25 15.55-5.36 29.94-6.49 42.76-3.36 10.21 2.49 17.07 10.54 17.07 20.03s-6.86 17.54-17.07 20.03c-4.71 1.15-9.64 1.72-14.75 1.72-8.8 0-18.17-1.7-28-5.09-10.55-3.63-21.38-9.1-32.19-16.24zm-16.72 55.6l-.57-.25.37-.5c5.09-6.96 15.9-20.44 31.14-32.44l.23-.18.27.12c22.14 9.51 42.9 11.99 61.71 7.38l.26.97c-18.59 5.41-35.33 17.94-49.75 37.25l-.18.24-.29-.04c-19.2-2.8-35.3-9.07-43.19-12.55zm42.49 39.76l-.75-.05.34-.68c5.79-11.59 12.43-21.74 19.75-30.17 10.79-12.42 22.68-20.59 35.35-24.29 10.09-2.95 20.05.59 24.79 8.81 4.74 8.22 2.83 18.62-4.77 25.88-9.54 9.12-22.56 15.33-38.71 18.47-8.02 1.56-16.66 2.34-25.79 2.34-3.34 0-6.74-.1-10.21-.31zm57.3 45.36l-.04.29-.28.11c-18.02 7.19-35.09 9.82-43.67 10.74l-.62.07.07-.62c.92-8.57 3.55-25.65 10.74-43.67l.11-.28.3-.04c23.93-2.84 43.15-11.07 57.13-24.46l.71.71c-13.38 13.99-21.61 33.22-24.45 57.15zm12.7 24.34l-.68.34-.05-.75c-.78-12.94-.1-25.05 2.02-36 3.14-16.15 9.35-29.17 18.47-38.71 7.26-7.59 17.66-9.51 25.88-4.77 8.22 4.74 11.76 14.71 8.81 24.79-3.7 12.66-11.87 24.56-24.29 35.35-8.41 7.31-18.56 13.96-30.16 19.75zm72.24 11.13c-12.01 15.24-25.48 26.05-32.45 31.14l-.5.37-.25-.57c-3.49-7.89-9.75-23.99-12.53-43.19l-.04-.29.24-.18c19.31-14.42 31.84-31.16 37.25-49.75l.97.26c-4.61 18.8-2.12 39.56 7.38 61.71l.12.27-.19.23zm39.48-17.97c-3.63 10.55-9.1 21.38-16.25 32.19l-.42.63-.42-.63c-7.15-10.81-12.61-21.64-16.25-32.19-5.36-15.55-6.49-29.94-3.36-42.76 2.49-10.21 10.54-17.07 20.03-17.07s17.54 6.86 20.03 17.07c3.14 12.82 2 27.21-3.36 42.76zm51.88 5.72c-2.78 19.2-9.04 35.3-12.53 43.19l-.25.57-.5-.37c-6.96-5.09-20.44-15.9-32.44-31.14l-.18-.23.12-.27c9.51-22.14 11.99-42.9 7.38-61.71l.97-.26c5.41 18.59 17.94 35.32 37.25 49.75l.24.18-.06.29zm27.24.7l-.05.75-.68-.34c-11.59-5.79-21.74-12.43-30.17-19.75-12.42-10.79-20.59-22.68-24.29-35.35-2.95-10.09.59-20.05 8.81-24.79 8.22-4.74 18.62-2.83 25.88 4.77 9.12 9.54 15.33 22.56 18.47 38.71 2.13 10.95 2.81 23.06 2.03 36zm55.95-12.78c-8.57-.92-25.65-3.55-43.67-10.74l-.28-.11-.04-.29c-2.84-23.93-11.07-43.15-24.46-57.13l.71-.71c13.98 13.39 33.2 21.62 57.13 24.46l.29.04.11.28c7.19 18.02 9.82 35.09 10.74 43.67l.07.62-.6-.09zm13.33-56.5c-3.47.21-6.87.31-10.22.31-9.13 0-17.77-.78-25.79-2.34-16.15-3.14-29.17-9.35-38.71-18.47-7.6-7.26-9.51-17.66-4.77-25.88 4.74-8.22 14.71-11.76 24.79-8.81 12.66 3.7 24.56 11.87 35.35 24.29 7.32 8.42 13.96 18.57 19.75 30.17l.34.68-.74.05zm42.49-39.76c-7.89 3.49-23.99 9.75-43.19 12.53l-.29.04-.18-.24c-14.42-19.31-31.16-31.84-49.75-37.25l.26-.97c18.8 4.61 39.56 2.12 61.71-7.38l.27-.12.23.18c15.24 12.01 26.05 25.48 31.14 32.44l.37.5-.57.27z"/>
  </g>
</svg>
