<svg id="BI-icon_S" xmlns="http://www.w3.org/2000/svg" viewBox="0 0 128 128">
  <defs>
    <style>
      #base{fill:#82eeeb}#flare{fill:#ff4a16}#leaf{fill:#ffd55b}#center{fill:#ff4a16}
    </style>
  </defs>
  <path id="base" d="M112.55 67.97c1.53-1.01 2.89-2.06 4.02-3.01.59-.5.59-1.41 0-1.91-1.13-.96-2.49-2-4.02-3.01 3.54-3.32 6.28-7.09 8.38-10.1.53-.76.25-1.82-.59-2.22-3.33-1.55-7.58-3.45-12.31-4.55.82-1.64 1.47-3.23 1.97-4.62.26-.73-.19-1.52-.95-1.65-1.46-.26-3.16-.49-4.99-.6 1.41-4.65 1.89-9.27 2.21-12.94.08-.93-.7-1.71-1.62-1.62-3.66.32-8.29.81-12.94 2.21-.11-1.83-.34-3.53-.6-4.99-.14-.76-.93-1.22-1.65-.95-1.4.5-2.98 1.16-4.62 1.97-1.11-4.73-3-8.98-4.55-12.31a1.497 1.497 0 0 0-2.22-.59c-3.01 2.11-6.77 4.84-10.1 8.38a43.762 43.762 0 0 0-3.01-4.02c-.5-.59-1.41-.59-1.91 0-.96 1.13-2 2.49-3.01 4.02-3.32-3.54-7.09-6.28-10.1-8.38-.76-.53-1.82-.25-2.22.59-1.55 3.33-3.45 7.58-4.55 12.31-1.64-.82-3.23-1.47-4.62-1.97-.73-.26-1.52.19-1.65.95-.26 1.46-.49 3.16-.6 4.99-4.65-1.41-9.27-1.89-12.94-2.21-.93-.08-1.71.7-1.62 1.62.32 3.66.81 8.29 2.21 12.94-1.83.11-3.53.34-4.99.6-.76.14-1.22.93-.95 1.65.5 1.4 1.16 2.98 1.97 4.62-4.73 1.11-8.98 3-12.31 4.55-.84.39-1.13 1.45-.59 2.22 2.11 3.01 4.84 6.77 8.38 10.1a43.762 43.762 0 0 0-4.02 3.01c-.59.5-.59 1.41 0 1.91 1.13.96 2.49 2 4.02 3.01-3.54 3.32-6.28 7.09-8.38 10.1-.53.76-.25 1.82.59 2.22 3.33 1.55 7.58 3.45 12.31 4.55-.82 1.64-1.47 3.23-1.97 4.62-.26.73.19 1.52.95 1.65 1.46.26 3.16.49 4.99.6-1.41 4.65-1.89 9.27-2.21 12.94-.08.93.7 1.71 1.62 1.62 3.66-.32 8.29-.81 12.94-2.21.11 1.83.34 3.53.6 4.99.14.76.93 1.22 1.65.95 1.4-.5 2.98-1.16 4.62-1.97 1.11 4.73 3 8.98 4.55 12.31.39.84 1.45 1.13 2.22.59 3.01-2.11 6.77-4.84 10.1-8.38 1.01 1.53 2.06 2.89 3.01 4.02.5.59 1.41.59 1.91 0 .96-1.13 2-2.49 3.01-4.02 3.32 3.54 7.09 6.28 10.1 8.38.76.53 1.82.25 2.22-.59 1.55-3.33 3.45-7.58 4.55-12.31 1.64.82 3.23 1.47 4.62 1.97.73.26 1.52-.19 1.65-.95.26-1.46.49-3.16.6-4.99 4.65 1.41 9.27 1.89 12.94 2.21.93.08 1.71-.7 1.62-1.62-.32-3.66-.81-8.29-2.21-12.94 1.83-.11 3.53-.34 4.99-.6.76-.14 1.22-.93.95-1.65-.5-1.4-1.16-2.98-1.97-4.62 4.73-1.11 8.98-3 12.31-4.55.84-.39 1.13-1.45.59-2.22-2.1-3.01-4.84-6.78-8.38-10.1z"/>
  <path id="flare" d="M105.79 47.1c3.73.62 7.07 1.75 9.47 2.76.3.13.4.5.2.76-1.57 2.07-3.9 4.73-6.82 7.12-3.09-1.57-6.59-2.76-10.22-2.97 3.04-1.99 5.47-4.77 7.37-7.67zM73.22 98.42c-.21 3.63-1.4 7.13-2.97 10.22 2.4 2.92 5.05 5.25 7.12 6.82.26.2.64.1.76-.2 1.01-2.39 2.15-5.74 2.76-9.47-2.89-1.9-5.67-4.33-7.67-7.37zm-18.44 0c-1.99 3.04-4.78 5.47-7.68 7.37.62 3.73 1.75 7.07 2.76 9.47.13.3.5.4.76.2 2.07-1.57 4.73-3.9 7.12-6.82-1.56-3.09-2.76-6.59-2.96-10.22zm-25.2-25.2c-3.63-.21-7.13-1.4-10.22-2.97-2.92 2.4-5.25 5.05-6.82 7.12-.2.26-.1.64.2.76 2.39 1.01 5.74 2.15 9.47 2.76 1.9-2.89 4.33-5.67 7.37-7.67zM38.8 89.2c-3.25 1.64-6.87 2.35-10.33 2.54-1.33 3.54-2.02 7-2.34 9.58-.04.32.23.6.56.56 2.58-.32 6.04-1.01 9.58-2.34.18-3.47.9-7.1 2.53-10.34zm69.84-18.94c-3.09 1.57-6.59 2.76-10.22 2.97 3.04 1.99 5.47 4.78 7.37 7.68 3.73-.62 7.07-1.75 9.47-2.76.3-.13.4-.5.2-.76-1.57-2.08-3.9-4.74-6.82-7.13zm-9.11 21.48c-3.46-.19-7.09-.9-10.33-2.54 1.64 3.25 2.35 6.87 2.54 10.33 3.54 1.33 7 2.02 9.58 2.34.32.04.6-.23.56-.56-.33-2.57-1.02-6.04-2.35-9.57zM54.78 29.58c.21-3.63 1.4-7.13 2.97-10.22-2.4-2.92-5.05-5.25-7.12-6.82-.26-.2-.64-.1-.76.2-1.01 2.39-2.15 5.74-2.76 9.47 2.89 1.9 5.67 4.33 7.67 7.37zm18.44 0c1.99-3.04 4.78-5.47 7.68-7.37-.62-3.73-1.75-7.07-2.76-9.47-.13-.3-.5-.4-.76-.2-2.07 1.57-4.73 3.9-7.12 6.82 1.56 3.09 2.76 6.59 2.96 10.22zM89.2 38.8c3.25-1.64 6.87-2.35 10.33-2.54 1.33-3.54 2.02-7 2.34-9.58.04-.32-.23-.6-.56-.56-2.58.32-6.04 1.01-9.58 2.34-.18 3.47-.9 7.1-2.53 10.34zM19.36 57.74c3.09-1.57 6.59-2.76 10.22-2.97-3.04-1.99-5.47-4.78-7.37-7.68-3.73.62-7.07 1.75-9.47 2.76-.3.13-.4.5-.2.76 1.57 2.08 3.9 4.74 6.82 7.13zm9.11-21.48c3.46.19 7.09.9 10.33 2.54-1.64-3.25-2.35-6.87-2.54-10.33-3.54-1.33-7-2.02-9.58-2.34-.32-.04-.6.23-.56.56.33 2.57 1.02 6.04 2.35 9.57z"/>
  <path id="leaf" d="M59.11 35c-1.68-6.87 1.94-14.02 4.46-17.99.2-.31.65-.31.85 0 2.52 3.97 6.14 11.12 4.46 17.99-.62 2.56-2.62 4.17-4.89 4.17-2.26 0-4.25-1.62-4.88-4.17zm17.31 7.5c1.97 1.13 4.5.73 6.32-1.17 4.88-5.11 5.33-13.11 5.13-17.81a.499.499 0 0 0-.73-.42c-4.17 2.18-10.88 6.56-12.86 13.34-.75 2.53.17 4.92 2.14 6.06zm9.08 9.08c1.13 1.97 3.53 2.88 6.06 2.15 6.78-1.98 11.17-8.69 13.34-12.86a.498.498 0 0 0-.42-.73c-4.7-.2-12.7.24-17.81 5.13-1.9 1.82-2.3 4.35-1.17 6.31zM88.83 64c0 2.27 1.62 4.26 4.17 4.89 6.87 1.68 14.02-1.94 17.99-4.46.31-.2.31-.65 0-.85-3.97-2.52-11.12-6.14-17.99-4.46-2.55.62-4.17 2.61-4.17 4.88zM85.5 76.42c-1.13 1.97-.73 4.5 1.17 6.32 5.11 4.88 13.11 5.33 17.81 5.13.37-.02.59-.41.42-.73-2.18-4.17-6.56-10.88-13.34-12.86-2.53-.75-4.92.17-6.06 2.14zm-9.08 9.08c-1.97 1.13-2.88 3.53-2.15 6.06 1.98 6.78 8.69 11.17 12.86 13.34.33.17.72-.06.73-.42.2-4.7-.24-12.7-5.13-17.81-1.82-1.9-4.35-2.3-6.31-1.17zM64 88.83c-2.27 0-4.26 1.62-4.89 4.17-1.68 6.87 1.94 14.02 4.46 17.99.2.31.65.31.85 0 2.52-3.97 6.14-11.12 4.46-17.99-.62-2.55-2.61-4.17-4.88-4.17zM51.58 85.5c-1.97-1.13-4.5-.73-6.32 1.17-4.88 5.11-5.33 13.11-5.13 17.81.02.37.41.59.73.42 4.17-2.18 10.88-6.56 12.86-13.34.75-2.53-.17-4.92-2.14-6.06zm-9.08-9.08c-1.13-1.97-3.53-2.88-6.06-2.15-6.78 1.98-11.17 8.69-13.34 12.86-.17.33.06.72.42.73 4.7.2 12.7-.24 17.81-5.13 1.9-1.82 2.3-4.35 1.17-6.31zM39.17 64c0-2.27-1.62-4.26-4.17-4.89-6.87-1.68-14.02 1.94-17.99 4.46-.31.2-.31.65 0 .85 3.97 2.52 11.12 6.14 17.99 4.46 2.55-.62 4.17-2.61 4.17-4.88zm3.33-12.42c1.13-1.97.73-4.5-1.17-6.32-5.11-4.88-13.11-5.33-17.81-5.13-.37.02-.59.41-.42.73 2.18 4.17 6.56 10.88 13.34 12.86 2.53.75 4.92-.17 6.06-2.14zm9.08-9.08c1.97-1.13 2.88-3.53 2.15-6.06-1.98-6.78-8.69-11.17-12.86-13.34a.498.498 0 0 0-.73.42c-.2 4.7.24 12.7 5.13 17.81 1.82 1.9 4.35 2.3 6.31 1.17z"/>
  <circle id="center" cx="64" cy="64" r="20.36"/>
</svg>
