<svg id="BI-logo_S" xmlns="http://www.w3.org/2000/svg" viewBox="0 0 384 128">
  <defs>
    <style>
      #BG{fill:#ff4a16}#comicsresearch,#leegyuho{fill:#fff}#base{fill:#82eeeb}#flare{fill:#ff4a16}#leaf{fill:#ffd55b}#center{fill:#ff4a16}
    </style>
  </defs>
  <path id="BG" d="M128 74.5h256v28H128z"/>
  <path id="comicsresearch" d="M135.93 85.74c-.19.9-.29 1.77-.29 2.6 0 .83.1 1.71.31 2.63.21.92.5 1.74.86 2.45.36.72.85 1.28 1.46 1.68.61.41 1.22.61 1.83.61.44 0 .88-.05 1.33-.15.45-.1.91-.24 1.39-.44.19-.1.31-.13.37-.09.06.04.09.12.09.23l.09 2.24c.02.17.01.3-.03.39-.04.09-.13.16-.29.22-.44.15-.9.3-1.39.44-.49.14-1.03.2-1.64.2-.99 0-1.97-.27-2.95-.8-.97-.53-1.8-1.3-2.49-2.29-.69-1-1.21-2.13-1.56-3.41a14.764 14.764 0 0 1 0-7.84c.35-1.28.87-2.39 1.54-3.34a7.6 7.6 0 0 1 2.49-2.24c.98-.54 1.97-.81 2.96-.81a8.29 8.29 0 0 1 3.06.58c.15.06.24.13.27.2.03.08.03.21.01.41l-.03 2.21c0 .27-.04.41-.11.42-.08.01-.21-.02-.4-.1-.88-.45-1.81-.67-2.8-.67-.67 0-1.29.19-1.86.57-.57.38-1.04.93-1.4 1.66-.35.73-.63 1.54-.82 2.44zm25.13 1.12c.06.87.09 1.41.09 1.63 0 1.2-.12 2.51-.37 3.92-.25 1.41-.62 2.6-1.1 3.57-.49.97-1.09 1.71-1.82 2.22-.72.51-1.6.77-2.63.77-2.04 0-3.55-1-4.52-2.99-.97-1.99-1.46-4.49-1.46-7.49 0-.64.07-1.62.21-2.95.14-1.33.44-2.56.89-3.69s1.06-2.06 1.83-2.77c.77-.72 1.79-1.07 3.05-1.07.8 0 1.52.17 2.15.51.63.34 1.16.79 1.6 1.36.44.57.8 1.23 1.07 1.99.28.76.5 1.56.67 2.41.17.84.28 1.71.34 2.58zm-2.86 1.62c0-.93-.07-1.92-.21-2.96-.14-1.05-.35-1.89-.62-2.54-.27-.65-.59-1.12-.96-1.42a1.9 1.9 0 0 0-1.22-.45c-.46 0-.87.15-1.24.45-.37.3-.69.77-.96 1.42-.27.65-.47 1.5-.61 2.54a22.38 22.38 0 0 0-.21 2.96c0 .95.07 1.95.21 2.99.14 1.05.35 1.89.61 2.54.27.65.59 1.12.96 1.42.37.3.79.45 1.24.45.44 0 .84-.15 1.22-.45.37-.3.69-.77.96-1.42.27-.65.47-1.5.62-2.54.14-1.04.21-2.04.21-2.99zm19.29-10.16h-3.4c-.13 0-.21.02-.24.07s-.07.14-.13.28l-1.17 9.73-.23 2.99-.26-2.99-1.26-9.73c-.06-.14-.1-.23-.13-.28-.03-.05-.11-.07-.24-.07h-3.35c-.31 0-.49.03-.54.1-.06.07-.09.24-.09.51v19.22c0 .21.11.32.34.32h2.2c.15 0 .25-.02.29-.07.04-.05.06-.13.06-.25l-.26-13.3v-2.44l.29 2.44 1.6 11.21c.04.1.08.16.13.17.05.02.17.03.36.03h1.83c.19 0 .31-.01.36-.03.05-.02.09-.08.13-.17l1.43-11.21.29-2.44v2.44l-.26 13.3c0 .12.02.2.06.25.04.05.13.07.29.07h2.2c.23 0 .34-.11.34-.32V78.93c0-.27-.03-.44-.09-.51s-.24-.1-.55-.1zm16.49 17.1h-3V81.37h2.57c.23 0 .34-.13.34-.38v-2.32c0-.1-.03-.18-.1-.25a.325.325 0 0 0-.24-.1h-8.38c-.1 0-.18.03-.24.1-.07.07-.1.15-.1.25v2.32c0 .12.03.21.1.28.07.07.15.1.24.1h2.57v14.06h-3c-.1 0-.18.03-.24.1-.07.07-.1.15-.1.25v2.32c0 .12.03.21.1.28.07.07.15.1.24.1h9.24c.23 0 .34-.13.34-.38v-2.32c0-.1-.03-.18-.1-.25a.304.304 0 0 0-.24-.11zm11.14-12.12c.36-.73.83-1.28 1.4-1.66.57-.38 1.19-.57 1.86-.57.99 0 1.93.22 2.8.67.19.08.32.11.4.1.08-.01.11-.15.11-.42l.03-2.21c.02-.19.01-.33-.01-.41-.03-.08-.12-.15-.27-.2-.53-.21-1.06-.36-1.59-.45-.52-.09-1.02-.13-1.47-.13-.99 0-1.98.27-2.96.81s-1.81 1.29-2.49 2.24c-.68.95-1.19 2.06-1.54 3.34a14.764 14.764 0 0 0 0 7.84c.35 1.28.87 2.42 1.56 3.41.69 1 1.52 1.76 2.49 2.29.97.53 1.95.8 2.95.8.61 0 1.16-.07 1.64-.2.49-.14.95-.28 1.39-.44.15-.06.25-.13.29-.22.04-.09.05-.22.03-.39l-.09-2.24c0-.12-.03-.19-.09-.23-.06-.04-.18-.01-.37.09-.48.19-.94.34-1.39.44-.45.1-.89.15-1.33.15-.61 0-1.22-.2-1.83-.61-.61-.41-1.1-.97-1.46-1.68-.36-.72-.65-1.53-.86-2.45-.21-.92-.31-1.8-.31-2.63 0-.83.1-1.7.29-2.6.18-.9.46-1.71.82-2.44zm23.1 6.74c-.44-.49-1.01-1-1.72-1.52s-1.59-1.14-2.66-1.86c-.93-.62-1.59-1.17-1.97-1.66-.38-.48-.57-.96-.57-1.42 0-.72.21-1.32.64-1.8.43-.48 1.07-.78 1.93-.9.27-.02.54-.02.83 0 .29.02.59.06.9.12.31.06.62.13.93.22.3.09.6.16.89.22.23.08.39.08.47 0 .09-.08.16-.2.21-.38l.34-1.86c.02-.15.01-.27-.01-.33-.03-.07-.15-.15-.36-.25-.46-.14-1-.27-1.63-.39-.63-.13-1.34-.19-2.12-.19-.95 0-1.78.14-2.47.41-.7.27-1.33.66-1.9 1.18a6.11 6.11 0 0 0-1.37 1.76c-.34.66-.51 1.34-.51 2.03 0 .66.12 1.26.36 1.8s.61 1.08 1.1 1.61c.5.53 1.12 1.06 1.89 1.6.76.53 1.55 1.08 2.37 1.64.61.43 1.15.91 1.63 1.47.48.55.72 1.16.72 1.81 0 .68-.19 1.26-.57 1.74-.38.48-.97.8-1.77.96-.42.1-.84.14-1.26.12-.42-.02-.87-.07-1.36-.15-.49-.08-.94-.18-1.37-.32-.43-.14-.74-.24-.93-.32-.23-.1-.38-.13-.44-.09-.07.04-.12.13-.16.26l-.2 2c-.04.21-.03.35.03.41s.23.15.51.26c.21.1.52.19.93.29.41.1.87.19 1.39.29.51.1 1 .16 1.44.19.45.03.9.02 1.36-.01.65-.04 1.35-.23 2.1-.58s1.38-.77 1.87-1.25c1.11-1.1 1.66-2.44 1.66-4.01 0-.58-.08-1.12-.24-1.61-.17-.51-.47-1-.91-1.49zm32 8.08c.15.23.05.35-.31.35h-2.46c-.21 0-.35-.01-.43-.03-.08-.02-.16-.1-.26-.23l-3.98-7.67h-1.8v7.61c0 .21-.12.32-.37.32h-2.43c-.23 0-.34-.11-.34-.32V78.64c0-.1.03-.17.1-.23s.15-.09.24-.09h4.26c2.1 0 3.71.57 4.83 1.7s1.69 2.59 1.69 4.37c0 1.3-.29 2.42-.87 3.35-.58.94-1.37 1.64-2.36 2.11l4.49 8.27zm-5.35-11.36c.59-.51.89-1.29.89-2.34 0-1.06-.28-1.84-.83-2.32-.55-.48-1.28-.73-2.17-.73h-1.77v6.16h1.4c1.06 0 1.89-.26 2.48-.77zm20.72 8.66h-7.18v-5.75h6.46c.29 0 .43-.16.43-.49v-2.09c0-.31-.14-.46-.43-.46h-6.46v-5.26h6.84c.17 0 .29-.03.34-.1.06-.07.09-.2.09-.39v-2.09c0-.17-.02-.29-.06-.36-.04-.07-.16-.1-.37-.1h-9.24c-.36 0-.58.03-.64.1-.07.07-.1.3-.1.68v18.53c0 .43.04.67.11.74.08.07.3.1.69.1h9.53c.27 0 .4-.16.4-.46v-2.09c-.01-.34-.14-.51-.41-.51zm16.63-5.38c-.44-.49-1.01-1-1.72-1.52s-1.59-1.14-2.66-1.86c-.93-.62-1.59-1.17-1.97-1.66-.38-.48-.57-.96-.57-1.42 0-.72.21-1.32.64-1.8.43-.48 1.07-.78 1.93-.9.27-.02.54-.02.83 0 .29.02.59.06.9.12.31.06.62.13.93.22.3.09.6.16.89.22.23.08.39.08.47 0 .09-.08.16-.2.21-.38l.34-1.86c.02-.15.01-.27-.01-.33-.03-.07-.15-.15-.36-.25-.46-.14-1-.27-1.63-.39-.63-.13-1.34-.19-2.12-.19-.95 0-1.78.14-2.47.41-.7.27-1.33.66-1.9 1.18a6.11 6.11 0 0 0-1.37 1.76c-.34.66-.51 1.34-.51 2.03 0 .66.12 1.26.36 1.8s.61 1.08 1.1 1.61c.5.53 1.13 1.06 1.89 1.6.76.53 1.55 1.08 2.37 1.64.61.43 1.15.91 1.63 1.47.48.55.72 1.16.72 1.81 0 .68-.19 1.26-.57 1.74-.38.48-.97.8-1.77.96-.42.1-.84.14-1.26.12-.42-.02-.87-.07-1.36-.15-.49-.08-.94-.18-1.37-.32-.43-.14-.74-.24-.93-.32-.23-.1-.38-.13-.44-.09-.07.04-.12.13-.16.26l-.2 2c-.04.21-.03.35.03.41s.23.15.51.26c.21.1.52.19.93.29.41.1.87.19 1.39.29.51.1 1 .16 1.44.19.45.03.9.02 1.36-.01.65-.04 1.35-.23 2.1-.58s1.38-.77 1.87-1.25c1.11-1.1 1.66-2.44 1.66-4.01 0-.58-.08-1.12-.24-1.61-.17-.51-.47-1-.91-1.49zm17.55 5.38h-7.18v-5.75h6.46c.29 0 .43-.16.43-.49v-2.09c0-.31-.14-.46-.43-.46h-6.46v-5.26h6.84c.17 0 .29-.03.34-.1.06-.07.09-.2.09-.39v-2.09c0-.17-.02-.29-.06-.36-.04-.07-.16-.1-.37-.1h-9.24c-.36 0-.58.03-.64.1-.07.07-.1.3-.1.68v18.53c0 .43.04.67.11.74.08.07.3.1.69.1h9.53c.27 0 .4-.16.4-.46v-2.09c-.01-.34-.14-.51-.41-.51zm18.69 2.56c.1.33-.02.49-.34.49h-2.26c-.11 0-.2-.02-.26-.07s-.11-.19-.17-.42l-1.17-5.02h-5.01l-1.17 5.02c-.04.27-.09.42-.14.45-.06.03-.15.04-.29.04h-2.26c-.34 0-.46-.16-.34-.49l4.92-19.34c.06-.15.1-.25.13-.28.03-.03.14-.04.33-.04h2.66c.17 0 .28.01.31.04.04.03.09.12.14.28l4.92 19.34zm-4.92-8.07l-1.8-8.04-1.8 8.04h3.6zm22.12 8.21c.15.23.05.35-.31.35h-2.46c-.21 0-.35-.01-.43-.03-.08-.02-.16-.1-.26-.23l-3.98-7.67h-1.8v7.61c0 .21-.12.32-.37.32h-2.43c-.23 0-.34-.11-.34-.32V78.64c0-.1.03-.17.1-.23s.15-.09.24-.09h4.26c2.1 0 3.71.57 4.83 1.7s1.69 2.59 1.69 4.37c0 1.3-.29 2.42-.87 3.35-.58.94-1.37 1.64-2.36 2.11l4.49 8.27zm-5.34-11.36c.59-.51.89-1.29.89-2.34 0-1.06-.28-1.84-.83-2.32-.55-.48-1.28-.73-2.17-.73h-1.77v6.16h1.4c1.05 0 1.88-.26 2.48-.77zm14.25-3.46c.36-.73.83-1.28 1.4-1.66.57-.38 1.19-.57 1.86-.57.99 0 1.93.22 2.8.67.19.08.32.11.4.1.08-.01.11-.15.11-.42l.03-2.21c.02-.19.01-.33-.01-.41-.03-.08-.12-.15-.27-.2-.53-.21-1.06-.36-1.59-.45-.52-.09-1.02-.13-1.47-.13-.99 0-1.98.27-2.96.81s-1.81 1.29-2.49 2.24c-.68.95-1.19 2.06-1.54 3.34a14.764 14.764 0 0 0 0 7.84c.35 1.28.87 2.42 1.56 3.41.69 1 1.52 1.76 2.49 2.29.97.53 1.95.8 2.95.8.61 0 1.16-.07 1.64-.2.49-.14.95-.28 1.39-.44.15-.06.25-.13.29-.22.04-.09.05-.22.03-.39l-.09-2.24c0-.12-.03-.19-.09-.23-.06-.04-.18-.01-.37.09-.48.19-.94.34-1.39.44-.45.1-.89.15-1.33.15-.61 0-1.22-.2-1.83-.61-.61-.41-1.1-.97-1.46-1.68-.36-.72-.65-1.53-.86-2.45-.21-.92-.31-1.8-.31-2.63 0-.83.1-1.7.29-2.6.18-.9.46-1.71.82-2.44zm23.83-4.88a.325.325 0 0 0-.24-.1h-2.49c-.1 0-.18.03-.24.1-.07.07-.1.15-.1.25v7.84h-4.66v-7.84c0-.1-.03-.18-.1-.25a.325.325 0 0 0-.24-.1h-2.49c-.1 0-.18.03-.24.1-.07.07-.1.15-.1.25v19.46c0 .1.03.18.1.25s.15.1.24.1h2.49c.23 0 .34-.12.34-.35v-8.57h4.66v8.57c0 .23.11.35.34.35h2.49c.1 0 .18-.03.24-.1.07-.07.1-.15.1-.25V78.67c0-.1-.03-.18-.1-.25z"/>
  <path id="leegyuho" d="M203.55 30.31h10.27v4.39h-10.95c-4.97 0-6.01 2.92-6.01 5.36v6.58H210v4.39h-13.14v13.28h16.96v4.39h-21.38V39.33c0-2.66.8-4.82 2.38-6.43 1.08-1.07 2.31-1.78 3.65-2.1 1.38-.33 3.08-.49 5.08-.49zm32.43 21.83h5.39v12.17h-4.02c-3.82 0-6.51-1.29-8.71-4.18-2.1-2.75-3.2-6.33-3.27-10.61.07-4.3 1.17-7.88 3.27-10.64 2.21-2.89 4.89-4.18 8.71-4.18h6.4v-4.39h-5.77c-5.4 0-9.41 1.59-12.63 5-3.13 3.33-4.74 8.1-4.77 14.19.03 6.09 1.64 10.86 4.77 14.19 3.22 3.41 7.23 5 12.63 5h7.81V47.75h-9.81v4.39zM169.59 30.8c-1.34.32-2.57 1.03-3.65 2.1-1.58 1.61-2.38 3.77-2.38 6.43v29.36h21.38V64.3h-16.96V51.03h13.14v-4.39h-13.14v-6.58c0-2.45 1.04-5.36 6.01-5.36h10.95v-4.39h-10.27c-2 0-3.71.16-5.08.49zm210.66 18.86c-.03 3.04-.41 5.8-1.12 8.21-.71 2.4-1.72 4.47-3.02 6.14-1.29 1.67-2.86 2.97-4.67 3.87-1.81.9-3.86 1.36-6.08 1.36s-4.26-.46-6.08-1.36c-1.81-.9-3.39-2.21-4.68-3.87-1.29-1.67-2.31-3.74-3.02-6.14-.71-2.41-1.09-5.17-1.12-8.2.03-3.04.41-5.82 1.14-8.27.72-2.44 1.75-4.55 3.04-6.28 1.29-1.72 2.85-3.06 4.65-3.98 1.8-.92 3.83-1.39 6.05-1.39 2.19 0 4.22.47 6.03 1.39 1.81.92 3.38 2.26 4.67 3.98 1.29 1.73 2.32 3.84 3.04 6.28.76 2.45 1.14 5.23 1.17 8.26zm-4.91-5.94c-.48-1.87-1.19-3.53-2.1-4.94-.92-1.41-2.05-2.55-3.37-3.38-1.32-.84-2.84-1.26-4.5-1.26s-3.18.42-4.5 1.26c-1.31.83-2.45 1.97-3.37 3.38-.92 1.4-1.62 3.06-2.1 4.94-.48 1.86-.74 3.87-.77 5.96.03 2.11.29 4.12.77 5.94.48 1.83 1.19 3.45 2.1 4.8.92 1.36 2.05 2.45 3.37 3.24 1.32.8 2.84 1.2 4.5 1.2s3.18-.4 4.5-1.2c1.31-.79 2.45-1.88 3.37-3.24.92-1.35 1.62-2.96 2.11-4.8.48-1.82.74-3.83.77-5.96-.05-2.08-.31-4.08-.78-5.94zM139.87 60.77c-.47-1.25-.7-2.99-.7-5.15V30.31h-4.42v25.42c0 2.34.19 4.41.57 6.14a8.62 8.62 0 0 0 2.45 4.41c.8.74 1.81 1.31 2.99 1.69 1.2.38 2.21.6 3 .66.81.05 1.94.08 3.36.08h9.46v-4.39h-10.77c-3-.01-5-1.21-5.94-3.55zm131.69-27.94c0 7.83-2.34 13.45-6.96 16.7l-.14.1-.14-.1c-2.58-1.76-4.42-4.05-5.46-6.81-1.04-2.74-1.56-6.07-1.56-9.89V30.3h-4.53v3.03c0 4.39.82 8.46 2.44 12.09 1.61 3.62 3.94 6.42 6.92 8.31l.12.07v14.89h4.42v-15l.11-.07c2.98-1.93 5.28-4.78 6.84-8.47 1.57-3.71 2.36-7.86 2.36-12.32V30.3h-4.42v2.53zm66.88 13.81h-16.41V30.31h-4.42V68.7h4.42V51.03h16.41V68.7h4.42V30.31h-4.42v16.33zm-34.07 10.8c0 2.59-.77 4.5-2.3 5.67-1.5 1.16-3.53 1.75-6.01 1.75-2.42 0-4.4-.59-5.89-1.75-1.5-1.17-2.27-3.08-2.27-5.67V30.31h-4.42v26.42c0 4.32 1.05 7.52 3.12 9.51 2.07 2 5.27 3.01 9.51 3.01s7.45-1.01 9.54-3.01c2.09-2 3.14-5.2 3.14-9.51V30.31h-4.42v27.13z"/>
  <path id="base" d="M112.55 67.97c1.53-1.01 2.89-2.06 4.02-3.01.59-.5.59-1.41 0-1.91-1.13-.96-2.49-2-4.02-3.01 3.54-3.32 6.28-7.09 8.38-10.1.53-.76.25-1.82-.59-2.22-3.33-1.55-7.58-3.45-12.31-4.55.82-1.64 1.47-3.23 1.97-4.62.26-.73-.19-1.52-.95-1.65-1.46-.26-3.16-.49-4.99-.6 1.41-4.65 1.89-9.27 2.21-12.94.08-.93-.7-1.71-1.62-1.62-3.66.32-8.29.81-12.94 2.21-.11-1.83-.34-3.53-.6-4.99-.14-.76-.93-1.22-1.65-.95-1.4.5-2.98 1.16-4.62 1.97-1.11-4.73-3-8.98-4.55-12.31a1.497 1.497 0 0 0-2.22-.59c-3.01 2.11-6.77 4.84-10.1 8.38a43.762 43.762 0 0 0-3.01-4.02c-.5-.59-1.41-.59-1.91 0-.96 1.13-2 2.49-3.01 4.02-3.32-3.54-7.09-6.28-10.1-8.38-.76-.53-1.82-.25-2.22.59-1.55 3.33-3.45 7.58-4.55 12.31-1.64-.82-3.23-1.47-4.62-1.97-.73-.26-1.52.19-1.65.95-.26 1.46-.49 3.16-.6 4.99-4.65-1.41-9.27-1.89-12.94-2.21-.93-.08-1.71.7-1.62 1.62.32 3.66.81 8.29 2.21 12.94-1.83.11-3.53.34-4.99.6-.76.14-1.22.93-.95 1.65.5 1.4 1.16 2.98 1.97 4.62-4.73 1.11-8.98 3-12.31 4.55-.84.39-1.13 1.45-.59 2.22 2.11 3.01 4.84 6.77 8.38 10.1a43.762 43.762 0 0 0-4.02 3.01c-.59.5-.59 1.41 0 1.91 1.13.96 2.49 2 4.02 3.01-3.54 3.32-6.28 7.09-8.38 10.1-.53.76-.25 1.82.59 2.22 3.33 1.55 7.58 3.45 12.31 4.55-.82 1.64-1.47 3.23-1.97 4.62-.26.73.19 1.52.95 1.65 1.46.26 3.16.49 4.99.6-1.41 4.65-1.89 9.27-2.21 12.94-.08.93.7 1.71 1.62 1.62 3.66-.32 8.29-.81 12.94-2.21.11 1.83.34 3.53.6 4.99.14.76.93 1.22 1.65.95 1.4-.5 2.98-1.16 4.62-1.97 1.11 4.73 3 8.98 4.55 12.31.39.84 1.45 1.13 2.22.59 3.01-2.11 6.77-4.84 10.1-8.38 1.01 1.53 2.06 2.89 3.01 4.02.5.59 1.41.59 1.91 0 .96-1.13 2-2.49 3.01-4.02 3.32 3.54 7.09 6.28 10.1 8.38.76.53 1.82.25 2.22-.59 1.55-3.33 3.45-7.58 4.55-12.31 1.64.82 3.23 1.47 4.62 1.97.73.26 1.52-.19 1.65-.95.26-1.46.49-3.16.6-4.99 4.65 1.41 9.27 1.89 12.94 2.21.93.08 1.71-.7 1.62-1.62-.32-3.66-.81-8.29-2.21-12.94 1.83-.11 3.53-.34 4.99-.6.76-.14 1.22-.93.95-1.65-.5-1.4-1.16-2.98-1.97-4.62 4.73-1.11 8.98-3 12.31-4.55.84-.39 1.13-1.45.59-2.22-2.1-3.01-4.84-6.78-8.38-10.1z"/>
  <path id="flare" d="M105.79 47.1c3.73.62 7.07 1.75 9.47 2.76.3.13.4.5.2.76-1.57 2.07-3.9 4.73-6.82 7.12-3.09-1.57-6.59-2.76-10.22-2.97 3.04-1.99 5.47-4.77 7.37-7.67zM73.22 98.42c-.21 3.63-1.4 7.13-2.97 10.22 2.4 2.92 5.05 5.25 7.12 6.82.26.2.64.1.76-.2 1.01-2.39 2.15-5.74 2.76-9.47-2.89-1.9-5.67-4.33-7.67-7.37zm-18.44 0c-1.99 3.04-4.78 5.47-7.68 7.37.62 3.73 1.75 7.07 2.76 9.47.13.3.5.4.76.2 2.07-1.57 4.73-3.9 7.12-6.82-1.56-3.09-2.76-6.59-2.96-10.22zm-25.2-25.2c-3.63-.21-7.13-1.4-10.22-2.97-2.92 2.4-5.25 5.05-6.82 7.12-.2.26-.1.64.2.76 2.39 1.01 5.74 2.15 9.47 2.76 1.9-2.89 4.33-5.67 7.37-7.67zM38.8 89.2c-3.25 1.64-6.87 2.35-10.33 2.54-1.33 3.54-2.02 7-2.34 9.58-.04.32.23.6.56.56 2.58-.32 6.04-1.01 9.58-2.34.18-3.47.9-7.1 2.53-10.34zm69.84-18.94c-3.09 1.57-6.59 2.76-10.22 2.97 3.04 1.99 5.47 4.78 7.37 7.68 3.73-.62 7.07-1.75 9.47-2.76.3-.13.4-.5.2-.76-1.57-2.08-3.9-4.74-6.82-7.13zm-9.11 21.48c-3.46-.19-7.09-.9-10.33-2.54 1.64 3.25 2.35 6.87 2.54 10.33 3.54 1.33 7 2.02 9.58 2.34.32.04.6-.23.56-.56-.33-2.57-1.02-6.04-2.35-9.57zM54.78 29.58c.21-3.63 1.4-7.13 2.97-10.22-2.4-2.92-5.05-5.25-7.12-6.82-.26-.2-.64-.1-.76.2-1.01 2.39-2.15 5.74-2.76 9.47 2.89 1.9 5.67 4.33 7.67 7.37zm18.44 0c1.99-3.04 4.78-5.47 7.68-7.37-.62-3.73-1.75-7.07-2.76-9.47-.13-.3-.5-.4-.76-.2-2.07 1.57-4.73 3.9-7.12 6.82 1.56 3.09 2.76 6.59 2.96 10.22zM89.2 38.8c3.25-1.64 6.87-2.35 10.33-2.54 1.33-3.54 2.02-7 2.34-9.58.04-.32-.23-.6-.56-.56-2.58.32-6.04 1.01-9.58 2.34-.18 3.47-.9 7.1-2.53 10.34zM19.36 57.74c3.09-1.57 6.59-2.76 10.22-2.97-3.04-1.99-5.47-4.78-7.37-7.68-3.73.62-7.07 1.75-9.47 2.76-.3.13-.4.5-.2.76 1.57 2.08 3.9 4.74 6.82 7.13zm9.11-21.48c3.46.19 7.09.9 10.33 2.54-1.64-3.25-2.35-6.87-2.54-10.33-3.54-1.33-7-2.02-9.58-2.34-.32-.04-.6.23-.56.56.33 2.57 1.02 6.04 2.35 9.57z"/>
  <path id="leaf" d="M59.11 35c-1.68-6.87 1.94-14.02 4.46-17.99.2-.31.65-.31.85 0 2.52 3.97 6.14 11.12 4.46 17.99-.62 2.56-2.62 4.17-4.89 4.17-2.26 0-4.25-1.62-4.88-4.17zm17.31 7.5c1.97 1.13 4.5.73 6.32-1.17 4.88-5.11 5.33-13.11 5.13-17.81a.499.499 0 0 0-.73-.42c-4.17 2.18-10.88 6.56-12.86 13.34-.75 2.53.17 4.92 2.14 6.06zm9.08 9.08c1.13 1.97 3.53 2.88 6.06 2.15 6.78-1.98 11.17-8.69 13.34-12.86a.498.498 0 0 0-.42-.73c-4.7-.2-12.7.24-17.81 5.13-1.9 1.82-2.3 4.35-1.17 6.31zM88.83 64c0 2.27 1.62 4.26 4.17 4.89 6.87 1.68 14.02-1.94 17.99-4.46.31-.2.31-.65 0-.85-3.97-2.52-11.12-6.14-17.99-4.46-2.55.62-4.17 2.61-4.17 4.88zM85.5 76.42c-1.13 1.97-.73 4.5 1.17 6.32 5.11 4.88 13.11 5.33 17.81 5.13.37-.02.59-.41.42-.73-2.18-4.17-6.56-10.88-13.34-12.86-2.53-.75-4.92.17-6.06 2.14zm-9.08 9.08c-1.97 1.13-2.88 3.53-2.15 6.06 1.98 6.78 8.69 11.17 12.86 13.34.33.17.72-.06.73-.42.2-4.7-.24-12.7-5.13-17.81-1.82-1.9-4.35-2.3-6.31-1.17zM64 88.83c-2.27 0-4.26 1.62-4.89 4.17-1.68 6.87 1.94 14.02 4.46 17.99.2.31.65.31.85 0 2.52-3.97 6.14-11.12 4.46-17.99-.62-2.55-2.61-4.17-4.88-4.17zM51.58 85.5c-1.97-1.13-4.5-.73-6.32 1.17-4.88 5.11-5.33 13.11-5.13 17.81.02.37.41.59.73.42 4.17-2.18 10.88-6.56 12.86-13.34.75-2.53-.17-4.92-2.14-6.06zm-9.08-9.08c-1.13-1.97-3.53-2.88-6.06-2.15-6.78 1.98-11.17 8.69-13.34 12.86-.17.33.06.72.42.73 4.7.2 12.7-.24 17.81-5.13 1.9-1.82 2.3-4.35 1.17-6.31zM39.17 64c0-2.27-1.62-4.26-4.17-4.89-6.87-1.68-14.02 1.94-17.99 4.46-.31.2-.31.65 0 .85 3.97 2.52 11.12 6.14 17.99 4.46 2.55-.62 4.17-2.61 4.17-4.88zm3.33-12.42c1.13-1.97.73-4.5-1.17-6.32-5.11-4.88-13.11-5.33-17.81-5.13-.37.02-.59.41-.42.73 2.18 4.17 6.56 10.88 13.34 12.86 2.53.75 4.92-.17 6.06-2.14zm9.08-9.08c1.97-1.13 2.88-3.53 2.15-6.06-1.98-6.78-8.69-11.17-12.86-13.34a.498.498 0 0 0-.73.42c-.2 4.7.24 12.7 5.13 17.81 1.82 1.9 4.35 2.3 6.31 1.17z"/>
  <circle id="center" cx="64" cy="64" r="20.36"/>
</svg>
