<svg id="BI-logo_L" xmlns="http://www.w3.org/2000/svg" viewBox="0 0 768 256">
  <defs>
    <style>
      #BG{fill:url(#G_BG)}#comicsresearch,#leegyuho{fill:#fff}#base{fill:url(#G_base)}#flare{fill:url(#G_flare)}#leaf{fill:url(#G_leaf)}#center{fill:url(#G_center)}
    </style>
    <linearGradient id="G_BG" x1="256" y1="179" x2="768" y2="179" gradientUnits="userSpaceOnUse"><stop offset="0" stop-color="#ff4a16"/><stop offset=".3" stop-color="#ea2400"/><stop offset=".7" stop-color="#ea2400"/> <stop offset="1" stop-color="#ff4a16"/></linearGradient>
    <radialGradient id="G_base" cx="128" cy="128" r="114.83" gradientUnits="userSpaceOnUse"><stop offset="0" stop-color="#fff"/><stop offset=".36" stop-color="#daf9fa"/><stop offset="1" stop-color="#3be6df"/></radialGradient>
    <radialGradient id="G_flare" cx="128" cy="128" r="103.12" gradientUnits="userSpaceOnUse"><stop offset=".5" stop-color="#d72109"/><stop offset=".84" stop-color="#fe4712"/><stop offset="1" stop-color="#ff6016"/></radialGradient>
    <radialGradient id="G_leaf" cx="128" cy="128" r="94.44" gradientUnits="userSpaceOnUse"><stop offset=".2" stop-color="#ffeeb9"/><stop offset=".55" stop-color="#ffd55b"/><stop offset="1" stop-color="#ff7c33"/></radialGradient>
    <radialGradient id="G_center" cx="128" cy="128" r="42.25" gradientUnits="userSpaceOnUse"><stop offset=".4" stop-color="#ea2400"/><stop offset="1" stop-color="#ff4a16"/></radialGradient>
  </defs>
  <path id="BG" d="M256 153h512v52H256z"/>
  <path id="comicsresearch" d="M271.21 174c-.35 1.63-.52 3.2-.52 4.7 0 1.51.19 3.09.57 4.76.38 1.66.9 3.14 1.55 4.44.66 1.3 1.54 2.31 2.64 3.05 1.1.74 2.21 1.1 3.31 1.1.79 0 1.6-.09 2.41-.26s1.65-.44 2.51-.79c.34-.17.57-.23.67-.16.1.07.16.21.16.42l.16 4.05c.03.32.02.55-.05.71-.07.16-.24.29-.52.39-.79.28-1.63.54-2.51.79-.88.24-1.87.37-2.98.37-1.79 0-3.57-.48-5.33-1.44-1.76-.96-3.26-2.35-4.5-4.15-1.24-1.8-2.18-3.86-2.82-6.17-.64-2.31-.96-4.68-.96-7.09 0-2.42.32-4.78.96-7.09.64-2.31 1.57-4.33 2.8-6.04 1.22-1.72 2.73-3.07 4.5-4.05 1.78-.98 3.56-1.47 5.36-1.47.83 0 1.72.08 2.67.24.95.16 1.91.43 2.87.81.28.11.44.23.49.37.05.14.06.39.03.74l-.05 3.99c0 .49-.07.74-.21.76-.14.02-.38-.04-.72-.18-1.59-.81-3.28-1.21-5.07-1.21-1.21 0-2.33.34-3.36 1.02-1.04.68-1.88 1.68-2.54 3-.67 1.29-1.17 2.77-1.52 4.39zm49.09 2.03c.1 1.58.16 2.56.16 2.94 0 2.17-.22 4.54-.67 7.09-.45 2.56-1.11 4.71-1.99 6.46-.88 1.75-1.98 3.09-3.29 4.02-1.31.93-2.9 1.39-4.76 1.39-3.69 0-6.42-1.8-8.18-5.41-1.76-3.61-2.64-8.13-2.64-13.56 0-1.16.13-2.93.39-5.33s.79-4.62 1.6-6.67 1.92-3.72 3.31-5.02c1.4-1.3 3.23-1.94 5.51-1.94 1.45 0 2.74.31 3.88.92 1.14.61 2.1 1.44 2.9 2.47.79 1.03 1.44 2.23 1.94 3.6s.91 2.82 1.22 4.36c.31 1.54.52 3.1.62 4.68zm-5.18 2.94c0-1.68-.13-3.47-.39-5.36-.26-1.89-.63-3.42-1.11-4.6-.48-1.17-1.06-2.03-1.73-2.57-.67-.54-1.41-.81-2.2-.81-.83 0-1.58.27-2.25.81-.67.54-1.25 1.4-1.73 2.57s-.85 2.71-1.11 4.6a39.45 39.45 0 0 0-.39 5.36c0 1.72.13 3.52.39 5.41.26 1.89.63 3.42 1.11 4.6.48 1.17 1.06 2.03 1.73 2.57.67.54 1.42.81 2.25.81.79 0 1.53-.27 2.2-.81.67-.54 1.25-1.4 1.73-2.57s.85-2.71 1.11-4.6c.26-1.89.39-3.69.39-5.41zm38.53-18.39h-6.16c-.24 0-.39.04-.44.13-.05.09-.13.25-.23.5l-2.12 17.6-.41 5.41-.47-5.41-2.28-17.6c-.1-.24-.18-.41-.23-.5-.05-.09-.2-.13-.44-.13h-6.06c-.55 0-.88.06-.98.18-.1.12-.16.43-.16.92v34.79c0 .39.21.58.62.58h3.99c.28 0 .45-.04.52-.13s.1-.24.1-.45l-.47-24.07v-4.41l.52 4.41 2.9 20.28c.07.18.15.28.23.32.09.04.3.05.65.05h3.31c.34 0 .56-.02.65-.05.09-.03.16-.14.23-.32l2.59-20.28.52-4.41v4.41l-.47 24.07c0 .21.03.36.1.45.07.09.24.13.52.13h3.99c.41 0 .62-.19.62-.58v-34.79c0-.49-.05-.8-.16-.92-.1-.12-.43-.18-.98-.18zm33.46 30.95h-5.43V166.1h4.66c.41 0 .62-.23.62-.68v-4.2c0-.17-.06-.32-.18-.45a.604.604 0 0 0-.44-.18h-15.17c-.17 0-.32.06-.44.18a.61.61 0 0 0-.18.45v4.2c0 .21.06.38.18.5s.27.18.44.18h4.66v25.43h-5.43c-.17 0-.32.06-.44.18a.61.61 0 0 0-.18.45v4.2c0 .21.06.38.18.5s.27.18.44.18h16.72c.41 0 .62-.23.62-.68v-4.2c0-.17-.06-.32-.18-.45a.644.644 0 0 0-.45-.18zm23.78-21.94c.66-1.31 1.5-2.31 2.54-3 1.04-.68 2.16-1.02 3.36-1.02 1.79 0 3.48.4 5.07 1.21.34.14.59.2.72.18.14-.02.21-.27.21-.76l.05-3.99c.03-.35.03-.6-.03-.74-.05-.14-.22-.26-.49-.37-.97-.39-1.92-.66-2.87-.81-.95-.16-1.84-.24-2.67-.24-1.79 0-3.58.49-5.36 1.47-1.78.98-3.28 2.33-4.5 4.05-1.23 1.72-2.16 3.73-2.8 6.04-.64 2.31-.96 4.68-.96 7.09 0 2.42.32 4.78.96 7.09.64 2.31 1.58 4.37 2.82 6.17 1.24 1.8 2.74 3.19 4.5 4.15 1.76.96 3.54 1.44 5.33 1.44 1.1 0 2.1-.12 2.98-.37.88-.25 1.72-.51 2.51-.79.28-.11.45-.24.52-.39.07-.16.09-.39.05-.71l-.16-4.05c0-.21-.05-.35-.16-.42-.1-.07-.33-.02-.67.16-.86.35-1.7.61-2.51.79-.81.18-1.61.26-2.41.26-1.1 0-2.21-.37-3.31-1.1-1.1-.74-1.98-1.75-2.64-3.05-.66-1.3-1.17-2.78-1.55-4.44-.38-1.66-.57-3.25-.57-4.76 0-1.51.17-3.07.52-4.7.36-1.6.86-3.08 1.52-4.39zm45.41 12.19c-.79-.89-1.83-1.81-3.11-2.76-1.28-.95-2.88-2.07-4.81-3.36-1.69-1.12-2.88-2.12-3.57-3-.69-.88-1.04-1.73-1.04-2.57 0-1.3.39-2.38 1.16-3.26.78-.88 1.94-1.42 3.49-1.63.48-.03.98-.03 1.5 0 .52.04 1.06.11 1.63.21.57.11 1.13.24 1.68.39.55.16 1.09.29 1.6.39.41.14.7.14.85 0 .16-.14.28-.37.39-.68l.62-3.36c.03-.28.03-.48-.03-.6-.05-.12-.27-.27-.65-.45-.83-.24-1.81-.48-2.95-.71-1.14-.23-2.42-.34-3.83-.34-1.73 0-3.22.25-4.48.74-1.26.49-2.41 1.2-3.44 2.13a11.13 11.13 0 0 0-2.48 3.18c-.62 1.19-.93 2.42-.93 3.68 0 1.19.22 2.28.65 3.26.43.98 1.1 1.95 1.99 2.92.9.96 2.04 1.93 3.42 2.89 1.38.96 2.81 1.95 4.3 2.97 1.1.77 2.09 1.66 2.95 2.65.86 1 1.29 2.09 1.29 3.28 0 1.23-.35 2.28-1.04 3.15-.69.88-1.76 1.45-3.21 1.73-.76.18-1.52.25-2.28.21-.76-.03-1.58-.12-2.46-.26-.88-.14-1.71-.33-2.48-.58-.78-.24-1.34-.44-1.68-.58-.41-.17-.68-.23-.8-.16s-.22.23-.28.47l-.36 3.63c-.07.39-.05.63.05.74.1.11.41.26.93.47.38.17.94.35 1.68.53.74.17 1.58.35 2.51.53.93.17 1.8.29 2.61.34.81.05 1.63.04 2.46-.03 1.17-.07 2.44-.42 3.8-1.05 1.36-.63 2.49-1.38 3.39-2.26 2-2 3-4.41 3-7.25 0-1.05-.15-2.02-.44-2.92-.26-.89-.81-1.79-1.6-2.68zm61.33 14.64c.28.42.09.63-.57.63h-4.45c-.38 0-.64-.02-.78-.05-.14-.04-.29-.18-.47-.42l-7.19-13.87h-3.26v13.77c0 .39-.22.58-.67.58h-4.4c-.41 0-.62-.19-.62-.58v-35.31c0-.17.06-.32.18-.42.12-.11.27-.16.44-.16h7.71c3.8 0 6.71 1.02 8.75 3.07s3.05 4.69 3.05 7.91c0 2.35-.53 4.37-1.58 6.07a9.836 9.836 0 0 1-4.27 3.81l8.13 14.97zm-9.68-20.58c1.07-.93 1.6-2.34 1.6-4.23 0-1.93-.5-3.33-1.5-4.2-1-.88-2.31-1.31-3.93-1.31h-3.21v11.14h2.54c1.93 0 3.43-.47 4.5-1.4zm41.12 15.69h-12.99v-10.4h11.7c.52 0 .78-.3.78-.89v-3.78c0-.56-.26-.84-.78-.84h-11.7v-9.51h12.37c.31 0 .52-.06.62-.18.1-.12.16-.36.16-.71v-3.78c0-.32-.03-.53-.1-.66-.07-.12-.29-.18-.67-.18h-16.72c-.66 0-1.04.06-1.16.18-.12.12-.18.53-.18 1.23v33.53c0 .77.07 1.22.21 1.34.14.12.55.18 1.24.18h17.24c.48 0 .72-.28.72-.84v-3.78c-.02-.61-.26-.91-.74-.91zm33.71-9.75c-.79-.89-1.83-1.81-3.11-2.76-1.28-.95-2.88-2.07-4.81-3.36-1.69-1.12-2.88-2.12-3.57-3-.69-.88-1.04-1.73-1.04-2.57 0-1.3.39-2.38 1.16-3.26.78-.88 1.94-1.42 3.49-1.63.48-.03.98-.03 1.5 0 .52.04 1.06.11 1.63.21.57.11 1.13.24 1.68.39.55.16 1.09.29 1.6.39.41.14.7.14.85 0 .16-.14.28-.37.39-.68l.62-3.36c.03-.28.03-.48-.03-.6-.05-.12-.27-.27-.65-.45-.83-.24-1.81-.48-2.95-.71-1.14-.23-2.42-.34-3.83-.34-1.73 0-3.22.25-4.48.74-1.26.49-2.41 1.2-3.44 2.13a11.13 11.13 0 0 0-2.48 3.18c-.62 1.19-.93 2.42-.93 3.68 0 1.19.22 2.28.65 3.26.43.98 1.09 1.95 1.99 2.92.9.96 2.04 1.93 3.42 2.89 1.38.96 2.81 1.95 4.3 2.97 1.1.77 2.09 1.66 2.95 2.65.86 1 1.29 2.09 1.29 3.28 0 1.23-.35 2.28-1.04 3.15-.69.88-1.76 1.45-3.21 1.73-.76.18-1.52.25-2.28.21-.76-.03-1.58-.12-2.46-.26-.88-.14-1.71-.33-2.48-.58-.78-.24-1.34-.44-1.68-.58-.41-.17-.68-.23-.8-.16s-.22.23-.28.47l-.36 3.63c-.07.39-.05.63.05.74.1.11.41.26.93.47.38.17.94.35 1.68.53.74.17 1.58.35 2.51.53.93.17 1.8.29 2.61.34.81.05 1.63.04 2.46-.03 1.17-.07 2.44-.42 3.8-1.05 1.36-.63 2.49-1.38 3.39-2.26 2-2 3-4.41 3-7.25 0-1.05-.15-2.02-.44-2.92-.26-.89-.81-1.79-1.6-2.68zm35.37 9.75h-12.99v-10.4h11.7c.52 0 .78-.3.78-.89v-3.78c0-.56-.26-.84-.78-.84h-11.7v-9.51h12.37c.31 0 .52-.06.62-.18.1-.12.16-.36.16-.71v-3.78c0-.32-.03-.53-.1-.66-.07-.12-.29-.18-.67-.18h-16.72c-.66 0-1.04.06-1.16.18-.12.12-.18.53-.18 1.23v33.53c0 .77.07 1.22.21 1.34.14.12.55.18 1.24.18h17.24c.48 0 .72-.28.72-.84v-3.78c-.01-.61-.25-.91-.74-.91zm37.44 4.62c.17.6-.03.89-.62.89h-4.09c-.21 0-.36-.04-.47-.13-.1-.09-.21-.34-.31-.76l-2.12-9.09h-9.06l-2.12 9.09c-.07.49-.16.76-.26.81-.1.05-.28.08-.52.08h-4.09c-.62 0-.83-.3-.62-.89l8.9-35c.1-.28.18-.45.23-.5.05-.05.25-.08.6-.08h4.81c.31 0 .5.03.57.08.07.05.16.22.26.5l8.91 35zm-8.9-14.61l-3.26-14.56-3.26 14.56h6.52zm43.66 14.88c.28.42.09.63-.57.63h-4.45c-.38 0-.64-.02-.78-.05-.14-.04-.29-.18-.47-.42l-7.19-13.87h-3.26v13.77c0 .39-.22.58-.67.58h-4.4c-.41 0-.62-.19-.62-.58v-35.31c0-.17.06-.32.18-.42.12-.11.27-.16.44-.16h7.71c3.8 0 6.71 1.02 8.75 3.07s3.05 4.69 3.05 7.91c0 2.35-.53 4.37-1.58 6.07a9.836 9.836 0 0 1-4.27 3.81l8.13 14.97zm-9.68-20.58c1.07-.93 1.6-2.34 1.6-4.23 0-1.93-.5-3.33-1.5-4.2-1-.88-2.31-1.31-3.93-1.31h-3.21v11.14h2.54c1.93 0 3.43-.47 4.5-1.4zm29.42-6.25c.66-1.31 1.5-2.31 2.54-3 1.04-.68 2.16-1.02 3.36-1.02 1.79 0 3.49.4 5.07 1.21.34.14.59.2.72.18.14-.02.21-.27.21-.76l.05-3.99c.03-.35.03-.6-.03-.74-.05-.14-.22-.26-.49-.37-.97-.39-1.92-.66-2.87-.81-.95-.16-1.84-.24-2.67-.24-1.79 0-3.58.49-5.36 1.47-1.78.98-3.28 2.33-4.5 4.05-1.23 1.72-2.16 3.73-2.8 6.04-.64 2.31-.96 4.68-.96 7.09 0 2.42.32 4.78.96 7.09.64 2.31 1.58 4.37 2.82 6.17 1.24 1.8 2.74 3.19 4.5 4.15 1.76.96 3.54 1.44 5.33 1.44 1.1 0 2.1-.12 2.98-.37.88-.25 1.72-.51 2.51-.79.28-.11.45-.24.52-.39.07-.16.09-.39.05-.71l-.16-4.05c0-.21-.05-.35-.16-.42-.1-.07-.33-.02-.67.16-.86.35-1.7.61-2.51.79-.81.18-1.61.26-2.41.26-1.1 0-2.21-.37-3.31-1.1-1.1-.74-1.98-1.75-2.64-3.05-.66-1.3-1.17-2.78-1.55-4.44-.38-1.66-.57-3.25-.57-4.76 0-1.51.17-3.07.52-4.7.36-1.6.86-3.08 1.52-4.39zm46.73-8.83a.604.604 0 0 0-.44-.18h-4.5c-.17 0-.32.06-.44.18a.61.61 0 0 0-.18.45v14.19h-8.44v-14.19c0-.17-.06-.32-.18-.45a.604.604 0 0 0-.44-.18h-4.5c-.17 0-.32.06-.44.18a.61.61 0 0 0-.18.45v35.21c0 .17.06.32.18.45.12.12.27.18.44.18h4.5c.41 0 .62-.21.62-.63v-15.5h8.44v15.5c0 .42.21.63.62.63h4.5c.17 0 .32-.06.44-.18a.61.61 0 0 0 .18-.45v-35.21c0-.18-.06-.32-.18-.45z"/>
  <path id="leegyuho" d="M291.61 129.11h21.04v7.78h-18.42c-2.83 0-5.08-.06-6.69-.16-1.55-.11-3.53-.54-5.89-1.29-2.29-.73-4.24-1.83-5.78-3.26-2.43-2.37-4.02-5.24-4.75-8.55-.75-3.43-1.13-7.52-1.13-12.18V61.11h7.84v50.11c0 4.4.48 7.92 1.43 10.48 1.99 4.92 6.14 7.41 12.35 7.41zm47.69-67.03c-2.6.62-4.97 1.99-7.06 4.07-3.07 3.12-4.63 7.33-4.63 12.51v58.22h41.76v-7.78h-33.92v-27.56h26.28v-7.78h-26.28V80.11c0-5.12 2.17-11.22 12.52-11.22h21.4v-7.78h-20.04c-3.95 0-7.32.33-10.03.97zm57.77 0c-2.6.62-4.98 1.99-7.06 4.07-3.07 3.12-4.63 7.33-4.63 12.51v58.22h41.76v-7.78h-33.92v-27.56h26.28v-7.78h-26.28V80.11c0-5.12 2.17-11.22 12.52-11.22h21.4v-7.78H407.1c-3.95 0-7.33.33-10.03.97zm75.39 41.7h10.78v25.33h-8.54c-7.81 0-13.31-2.64-17.83-8.56-4.27-5.59-6.5-12.84-6.64-21.54.14-8.73 2.38-15.97 6.64-21.57 4.51-5.92 10.01-8.56 17.83-8.56H487V61.1h-11.04c-10.65 0-18.55 3.13-24.89 9.85-6.18 6.56-9.34 15.99-9.41 28.04.07 12.04 3.23 21.47 9.41 28.03 6.33 6.72 14.24 9.85 24.89 9.85h15.12V96h-18.62v7.78zm71.16-38.11c0 15.83-4.76 27.2-14.14 33.82l-.57.4-.57-.39c-5.24-3.58-8.98-8.25-11.1-13.86-2.09-5.53-3.15-12.25-3.15-19.96v-4.56h-8.05v5.56c0 8.71 1.63 16.78 4.83 23.98 3.18 7.15 7.78 12.67 13.65 16.4l.46.29v29.55h7.84v-29.77l.46-.3c5.87-3.8 10.41-9.42 13.49-16.72 3.11-7.36 4.69-15.58 4.69-24.44v-4.56h-7.84v4.56zm65.62 49.22c0 5.34-1.61 9.29-4.79 11.74-3.1 2.39-7.25 3.6-12.34 3.6-4.95 0-9.02-1.21-12.08-3.6-3.14-2.45-4.73-6.39-4.73-11.73V61.11h-7.84v52.33c0 8.49 2.05 14.77 6.08 18.67 4.04 3.91 10.33 5.89 18.67 5.89 8.35 0 14.65-1.98 18.73-5.89 4.07-3.9 6.13-10.18 6.13-18.67V61.11h-7.84v53.78zm68.13-21.11h-33.83V61.11h-7.84v75.78h7.84v-35.33h33.83v35.33h7.84V61.11h-7.84v32.67zM760 99.32c-.06 6.03-.81 11.5-2.21 16.28-1.4 4.75-3.4 8.82-5.95 12.11-2.53 3.27-5.62 5.83-9.18 7.61-3.56 1.77-7.57 2.67-11.93 2.67-4.36 0-8.37-.9-11.93-2.67-3.56-1.77-6.65-4.33-9.18-7.61-2.55-3.29-4.55-7.37-5.95-12.11-1.41-4.78-2.15-10.26-2.21-16.26.06-6.02.82-11.54 2.26-16.39 1.43-4.83 3.45-9 6.01-12.41 2.53-3.38 5.61-6.01 9.13-7.82 3.52-1.81 7.52-2.72 11.87-2.72 4.3 0 8.28.92 11.83 2.72 3.56 1.81 6.64 4.44 9.18 7.82 2.55 3.41 4.58 7.58 6.01 12.41 1.43 4.85 2.19 10.37 2.25 16.37zm-7.29 0c-.06-4.21-.58-8.25-1.55-12.01-.98-3.79-2.41-7.16-4.27-10.02-1.88-2.89-4.2-5.21-6.88-6.91-2.73-1.72-5.85-2.6-9.27-2.6-3.43 0-6.55.87-9.28 2.6-2.69 1.7-5 4.03-6.88 6.91-1.86 2.86-3.3 6.23-4.27 10.02-.97 3.77-1.49 7.81-1.55 12.04.06 4.28.58 8.33 1.55 12.02.97 3.72 2.41 7 4.28 9.75 1.88 2.77 4.2 5 6.89 6.63 2.72 1.64 5.84 2.48 9.26 2.48s6.53-.83 9.26-2.48c2.69-1.62 5.01-3.85 6.89-6.63 1.86-2.75 3.3-6.03 4.28-9.75.95-3.7 1.47-7.74 1.54-12.05z"/>
  <path id="base" d="M224.22 136.23c3.59-2.24 6.74-4.58 9.29-6.68.98-.81.98-2.3 0-3.1-2.55-2.1-5.7-4.44-9.29-6.68 7.82-6.83 13.75-14.73 18.22-20.82a1.99 1.99 0 0 0-.81-3.01c-6.91-3.04-16.01-6.92-26.19-8.92 1.99-3.73 3.55-7.33 4.7-10.43a2.01 2.01 0 0 0-1.55-2.69c-3.26-.55-7.16-1-11.38-1.14 3.36-9.82 4.54-19.63 5.37-27.14.14-1.27-.93-2.34-2.2-2.2-7.5.83-17.32 2.01-27.14 5.37-.14-4.23-.6-8.12-1.14-11.38-.21-1.25-1.5-2-2.69-1.55-3.1 1.16-6.7 2.71-10.43 4.7-2-10.19-5.88-19.28-8.92-26.19-.51-1.17-1.97-1.56-3.01-.81-6.09 4.47-13.99 10.4-20.82 18.22a88.204 88.204 0 0 0-6.68-9.29c-.81-.98-2.3-.98-3.1 0-2.1 2.55-4.44 5.7-6.68 9.29-6.83-7.82-14.73-13.75-20.82-18.22a1.99 1.99 0 0 0-3.01.81c-3.04 6.91-6.92 16.01-8.92 26.19a85.827 85.827 0 0 0-10.43-4.7 2.01 2.01 0 0 0-2.69 1.55c-.55 3.26-1 7.16-1.14 11.38-9.82-3.36-19.63-4.54-27.14-5.37-1.27-.14-2.34.93-2.2 2.2.83 7.5 2.01 17.32 5.37 27.14-4.23.14-8.12.6-11.38 1.14-1.25.21-2 1.5-1.55 2.69 1.16 3.1 2.71 6.7 4.7 10.43-10.19 2-19.28 5.88-26.19 8.92-1.17.51-1.56 1.97-.81 3.01 4.47 6.09 10.4 13.99 18.22 20.82a88.204 88.204 0 0 0-9.29 6.68c-.98.81-.98 2.3 0 3.1 2.55 2.1 5.7 4.44 9.29 6.68-7.82 6.83-13.75 14.73-18.22 20.82a1.99 1.99 0 0 0 .81 3.01c6.91 3.04 16.01 6.92 26.19 8.92a85.827 85.827 0 0 0-4.7 10.43 2.01 2.01 0 0 0 1.55 2.69c3.26.55 7.16 1 11.38 1.14-3.36 9.82-4.54 19.63-5.37 27.14-.14 1.27.93 2.34 2.2 2.2 7.5-.83 17.32-2.01 27.14-5.37.14 4.23.6 8.12 1.14 11.38.21 1.25 1.5 2 2.69 1.55 3.1-1.16 6.7-2.71 10.43-4.7 2 10.19 5.88 19.28 8.92 26.19.51 1.17 1.97 1.56 3.01.81 6.09-4.47 13.99-10.4 20.82-18.22 2.24 3.59 4.58 6.74 6.68 9.29.81.98 2.3.98 3.1 0 2.1-2.55 4.44-5.7 6.68-9.29 6.83 7.82 14.73 13.75 20.82 18.22 1.03.76 2.49.37 3.01-.81 3.04-6.91 6.92-16.01 8.92-26.19 3.73 1.99 7.33 3.55 10.43 4.7 1.19.44 2.48-.3 2.69-1.55.55-3.26 1-7.16 1.14-11.38 9.82 3.36 19.63 4.54 27.14 5.37 1.27.14 2.34-.93 2.2-2.2-.83-7.5-2.01-17.32-5.37-27.14 4.23-.14 8.12-.6 11.38-1.14 1.25-.21 2-1.5 1.55-2.69-1.16-3.1-2.71-6.7-4.7-10.43 10.19-2 19.28-5.88 26.19-8.92 1.17-.51 1.56-1.97.81-3.01-4.47-6.08-10.4-13.99-18.22-20.82z"/>
  <path id="flare" d="M140.25 39.04c4.86-5.99 10.29-10.76 14.51-13.96.52-.4 1.28-.2 1.53.41 2.06 4.88 4.37 11.72 5.58 19.34-6.15 4.18-12.03 9.6-15.98 16.41-.03-7.87-2.41-15.5-5.64-22.2zM79.13 79.13c-3.92-6.83-5.67-14.63-6.22-22.05-7.21-2.76-14.29-4.18-19.54-4.83-.65-.08-1.2.47-1.12 1.12.65 5.25 2.07 12.33 4.83 19.54 7.43.55 15.22 2.3 22.05 6.22zm30.98-17.88c.02-7.88 2.4-15.5 5.64-22.2-4.86-5.99-10.29-10.76-14.51-13.96a.996.996 0 0 0-1.53.41c-2.06 4.88-4.37 11.72-5.58 19.34 6.15 4.18 12.03 9.6 15.98 16.41zm66.76 17.88c6.83-3.92 14.63-5.67 22.05-6.22 2.76-7.21 4.18-14.29 4.83-19.54.08-.65-.47-1.2-1.12-1.12-5.25.65-12.33 2.07-19.54 4.83-.55 7.43-2.3 15.22-6.22 22.05zm17.88 30.98c7.88.02 15.5 2.4 22.2 5.64 5.99-4.86 10.76-10.29 13.96-14.51.4-.52.2-1.28-.41-1.53-4.88-2.06-11.72-4.37-19.34-5.58-4.18 6.15-9.6 12.03-16.41 15.98zm-155.71 5.64c6.7-3.23 14.33-5.61 22.2-5.64-6.81-3.96-12.22-9.83-16.41-15.98-7.62 1.21-14.46 3.53-19.34 5.58a.997.997 0 0 0-.41 1.53c3.2 4.23 7.97 9.65 13.96 14.51zm137.83 61.12c3.92 6.83 5.67 14.63 6.22 22.05 7.21 2.76 14.29 4.18 19.54 4.83.65.08 1.2-.47 1.12-1.12-.65-5.25-2.07-12.33-4.83-19.54-7.43-.55-15.22-2.3-22.05-6.22zM61.25 145.89c-7.88-.02-15.5-2.4-22.2-5.64-5.99 4.86-10.76 10.29-13.96 14.51-.4.52-.2 1.28.41 1.53 4.88 2.06 11.72 4.37 19.34 5.58 4.18-6.15 9.6-12.03 16.41-15.98zm155.71-5.64c-6.7 3.23-14.33 5.62-22.2 5.64 6.81 3.96 12.22 9.83 16.41 15.98 7.62-1.21 14.46-3.53 19.34-5.58.61-.26.81-1.01.41-1.53-3.2-4.23-7.97-9.65-13.96-14.51zm-71.07 54.5c-.02 7.88-2.4 15.5-5.64 22.2 4.86 5.99 10.29 10.76 14.51 13.96.52.4 1.28.2 1.53-.41 2.06-4.88 4.37-11.72 5.58-19.34-6.15-4.18-12.03-9.6-15.98-16.41zm-66.76-17.88c-6.83 3.92-14.63 5.67-22.05 6.22-2.76 7.21-4.18 14.29-4.83 19.54-.08.65.47 1.2 1.12 1.12 5.25-.65 12.33-2.07 19.54-4.83.55-7.43 2.3-15.22 6.22-22.05zm30.98 17.88c-3.96 6.81-9.83 12.22-15.98 16.41 1.21 7.62 3.53 14.46 5.58 19.34.26.61 1.01.81 1.53.41 4.22-3.19 9.64-7.96 14.51-13.96-3.23-6.69-5.61-14.32-5.64-22.2z"/>
  <path id="leaf" d="M118.23 70c-3.35-13.74 3.89-28.05 8.93-35.98a.991.991 0 0 1 1.68 0c5.04 7.93 12.28 22.24 8.93 35.98-1.25 5.11-5.23 8.34-9.77 8.34-4.54 0-8.52-3.23-9.77-8.34zm34.6 14.99c3.93 2.27 9 1.46 12.63-2.34 9.77-10.22 10.65-26.23 10.26-35.62a.997.997 0 0 0-1.46-.84c-8.33 4.35-21.76 13.12-25.72 26.69-1.48 5.05.36 9.84 4.29 12.11zm18.18 18.18c2.27 3.93 7.06 5.77 12.11 4.29 13.57-3.97 22.34-17.39 26.69-25.72a.997.997 0 0 0-.84-1.46c-9.39-.4-25.4.49-35.62 10.26-3.81 3.63-4.61 8.7-2.34 12.63zm6.65 24.83c0 4.54 3.23 8.52 8.34 9.77 13.74 3.35 28.05-3.89 35.98-8.93a.991.991 0 0 0 0-1.68c-7.93-5.04-22.24-12.28-35.98-8.93-5.11 1.25-8.34 5.23-8.34 9.77zm-6.65 24.83c-2.27 3.93-1.46 9 2.34 12.63 10.22 9.77 26.23 10.65 35.62 10.26a.997.997 0 0 0 .84-1.46c-4.35-8.33-13.12-21.76-26.69-25.72-5.05-1.48-9.84.36-12.11 4.29zm-18.18 18.18c-3.93 2.27-5.77 7.06-4.29 12.11 3.97 13.57 17.39 22.34 25.72 26.69a.997.997 0 0 0 1.46-.84c.4-9.39-.49-25.4-10.26-35.62-3.63-3.81-8.7-4.61-12.63-2.34zM128 177.66c-4.54 0-8.52 3.23-9.77 8.34-3.35 13.74 3.89 28.05 8.93 35.98.39.62 1.29.62 1.68 0 5.04-7.93 12.28-22.24 8.93-35.98-1.25-5.11-5.23-8.34-9.77-8.34zm-24.83-6.65c-3.93-2.27-9-1.46-12.63 2.34-9.77 10.22-10.65 26.23-10.26 35.62.03.73.81 1.18 1.46.84 8.33-4.35 21.76-13.12 25.72-26.69 1.48-5.05-.36-9.84-4.29-12.11zm-18.18-18.18c-2.27-3.93-7.06-5.77-12.11-4.29-13.57 3.97-22.34 17.39-26.69 25.72-.34.65.11 1.43.84 1.46 9.39.4 25.4-.49 35.62-10.26 3.81-3.63 4.61-8.7 2.34-12.63zM78.34 128c0-4.54-3.23-8.52-8.34-9.77-13.74-3.35-28.05 3.89-35.98 8.93a.991.991 0 0 0 0 1.68c7.93 5.04 22.24 12.28 35.98 8.93 5.11-1.25 8.34-5.23 8.34-9.77zm6.65-24.83c2.27-3.93 1.46-9-2.34-12.63-10.22-9.77-26.23-10.65-35.62-10.26a.997.997 0 0 0-.84 1.46c4.35 8.33 13.12 21.76 26.69 25.72 5.05 1.48 9.84-.36 12.11-4.29zm18.18-18.18c3.93-2.27 5.77-7.06 4.29-12.11-3.97-13.57-17.39-22.34-25.72-26.69a.997.997 0 0 0-1.46.84c-.4 9.39.49 25.4 10.26 35.62 3.63 3.81 8.7 4.61 12.63 2.34z"/>
  <circle id="center" cx="128" cy="128" r="42.25"/>
</svg>
