<?xml version="1.0" encoding="utf-8"?>
<!-- Generator: Adobe Illustrator 22.0.0, SVG Export Plug-In . SVG Version: 6.00 Build 0)  -->
<svg version="1.1" id="BI-symbol" xmlns="http://www.w3.org/2000/svg" xmlns:xlink="http://www.w3.org/1999/xlink" x="0px" y="0px"
	 viewBox="0 0 1024 1024" style="enable-background:new 0 0 1024 1024;" xml:space="preserve">
<style type="text/css">
	.st0{fill-rule:evenodd;clip-rule:evenodd;fill:url(#SVGID_1_);}
	.st1{fill-rule:evenodd;clip-rule:evenodd;fill:url(#SVGID_2_);}
	.st2{fill-rule:evenodd;clip-rule:evenodd;fill:url(#SVGID_3_);}
	.st3{fill:url(#SVGID_4_);}
	.st4{fill:url(#SVGID_5_);}
	.st5{fill-rule:evenodd;clip-rule:evenodd;fill:url(#SVGID_6_);}
	.st6{fill:#8F110E;}
	.st7{fill-rule:evenodd;clip-rule:evenodd;fill:url(#SVGID_7_);}
	.st8{fill-rule:evenodd;clip-rule:evenodd;fill:url(#SVGID_8_);}
	.st9{fill-rule:evenodd;clip-rule:evenodd;fill:url(#SVGID_9_);}
	.st10{fill-rule:evenodd;clip-rule:evenodd;fill:url(#SVGID_10_);}
	.st11{fill:#9F1318;}
	.st12{fill-rule:evenodd;clip-rule:evenodd;fill:url(#SVGID_11_);}
	.st13{fill-rule:evenodd;clip-rule:evenodd;fill:url(#SVGID_12_);}
	.st14{fill-rule:evenodd;clip-rule:evenodd;fill:url(#SVGID_13_);}
	.st15{fill-rule:evenodd;clip-rule:evenodd;fill:url(#SVGID_14_);}
	.st16{fill-rule:evenodd;clip-rule:evenodd;fill:url(#SVGID_15_);}
	.st17{fill-rule:evenodd;clip-rule:evenodd;fill:url(#SVGID_16_);}
	.st18{fill-rule:evenodd;clip-rule:evenodd;fill:url(#SVGID_17_);}
	.st19{fill-rule:evenodd;clip-rule:evenodd;fill:#D21A22;}
	.st20{fill:url(#SVGID_18_);}
	.st21{fill-rule:evenodd;clip-rule:evenodd;fill:url(#SVGID_19_);}
	.st22{fill-rule:evenodd;clip-rule:evenodd;fill:url(#SVGID_20_);}
	.st23{fill-rule:evenodd;clip-rule:evenodd;fill:#D11A13;}
	.st24{fill-rule:evenodd;clip-rule:evenodd;fill:url(#SVGID_21_);}
	.st25{fill-rule:evenodd;clip-rule:evenodd;fill:url(#SVGID_22_);}
	.st26{opacity:0.1;fill:none;stroke:#000000;stroke-miterlimit:10;}
	.st27{opacity:0.15;fill:none;stroke:#FFFFFF;stroke-width:2;stroke-miterlimit:10;}
	.st28{fill:url(#SVGID_23_);}
	.st29{fill:url(#SVGID_24_);}
	.st30{fill:url(#SVGID_25_);}
	.st31{fill:url(#SVGID_26_);}
	.st32{fill:url(#SVGID_27_);}
	.st33{fill-rule:evenodd;clip-rule:evenodd;fill:url(#SVGID_28_);}
	.st34{fill-rule:evenodd;clip-rule:evenodd;fill:url(#SVGID_29_);}
	.st35{fill-rule:evenodd;clip-rule:evenodd;fill:url(#SVGID_30_);}
	.st36{fill-rule:evenodd;clip-rule:evenodd;fill:url(#SVGID_31_);}
	.st37{fill-rule:evenodd;clip-rule:evenodd;fill:url(#SVGID_32_);}
	.st38{fill-rule:evenodd;clip-rule:evenodd;fill:url(#SVGID_33_);}
	.st39{fill-rule:evenodd;clip-rule:evenodd;fill:url(#SVGID_34_);}
	.st40{fill-rule:evenodd;clip-rule:evenodd;fill:url(#SVGID_35_);}
	.st41{fill-rule:evenodd;clip-rule:evenodd;fill:url(#SVGID_36_);}
	.st42{fill-rule:evenodd;clip-rule:evenodd;fill:url(#SVGID_37_);}
	.st43{fill-rule:evenodd;clip-rule:evenodd;fill:url(#SVGID_38_);}
	.st44{opacity:0.2;fill:none;stroke:#FFFFFF;stroke-width:2;stroke-miterlimit:10;}
	.st45{fill-rule:evenodd;clip-rule:evenodd;fill:url(#SVGID_39_);}
	.st46{fill:url(#SVGID_40_);}
	.st47{fill-rule:evenodd;clip-rule:evenodd;fill:url(#SVGID_41_);}
	.st48{fill-rule:evenodd;clip-rule:evenodd;fill:url(#SVGID_42_);}
	.st49{fill:url(#SVGID_43_);}
	.st50{fill:url(#SVGID_44_);}
	.st51{fill-rule:evenodd;clip-rule:evenodd;fill:url(#SVGID_45_);}
	.st52{fill:url(#SVGID_46_);}
	.st53{fill:url(#SVGID_47_);}
	.st54{fill-rule:evenodd;clip-rule:evenodd;fill:url(#SVGID_48_);}
	.st55{fill-rule:evenodd;clip-rule:evenodd;fill:url(#SVGID_49_);}
	.st56{fill-rule:evenodd;clip-rule:evenodd;fill:url(#SVGID_50_);}
	.st57{fill-rule:evenodd;clip-rule:evenodd;fill:url(#SVGID_51_);}
	.st58{fill:url(#SVGID_52_);}
	.st59{fill-rule:evenodd;clip-rule:evenodd;fill:url(#SVGID_53_);}
	.st60{fill-rule:evenodd;clip-rule:evenodd;fill:url(#SVGID_54_);}
	.st61{opacity:0.1;fill:none;stroke:#000000;stroke-miterlimit:20;}
</style>
<symbol  id="center_back" viewBox="-182.33 -182.33 364.67 364.67">
	<radialGradient id="SVGID_1_" cx="-9.094947e-13" cy="0" r="182.334" gradientUnits="userSpaceOnUse">
		<stop  offset="0.9" style="stop-color:#DB1C15"/>
		<stop  offset="1" style="stop-color:#711B1D"/>
	</radialGradient>
	<circle class="st0" cx="0" cy="0" r="182.33"/>
</symbol>
<symbol  id="center_core" viewBox="-53.73 -53.73 107.46 107.46">
	
		<radialGradient id="SVGID_2_" cx="8191.5" cy="3393.0305" r="53.728" gradientTransform="matrix(0.7071 0.7071 -0.7071 0.7071 -3393.0305 -8191.5)" gradientUnits="userSpaceOnUse">
		<stop  offset="0.2" style="stop-color:#E715A6"/>
		<stop  offset="0.6709" style="stop-color:#E615A2"/>
		<stop  offset="0.9" style="stop-color:#E5149D"/>
	</radialGradient>
	<path class="st1" d="M-8.92,33.29c-0.3,6.21,0.16,13.02,1.85,20.44C-3.53,47-1.32,40.54,0,34.47h0C1.32,40.54,3.53,47,7.07,53.73
		c1.68-7.42,2.15-14.23,1.85-20.44l8.31-3.44c4.18,4.6,9.32,9.09,15.76,13.15c-2.25-7.27-5.26-13.4-8.62-18.62l0,0
		c5.22,3.36,11.36,6.37,18.62,8.62c-4.06-6.44-8.55-11.58-13.15-15.76l3.44-8.31c6.21,0.3,13.02-0.16,20.44-1.85
		C47,3.53,40.54,1.32,34.47,0v0C40.54-1.32,47-3.53,53.73-7.07C46.31-8.76,39.5-9.22,33.29-8.92l-3.44-8.31
		c4.6-4.18,9.09-9.32,13.15-15.76c-7.27,2.25-13.4,5.26-18.62,8.62l0,0c3.36-5.22,6.37-11.36,8.62-18.62
		c-6.44,4.06-11.58,8.55-15.76,13.15l-8.31-3.44c0.3-6.21-0.16-13.02-1.85-20.44C3.53-47,1.32-40.54,0-34.47h0
		C-1.32-40.54-3.53-47-7.07-53.73c-1.68,7.42-2.15,14.23-1.85,20.44l-8.31,3.44c-4.18-4.6-9.32-9.09-15.76-13.15
		c2.25,7.27,5.26,13.4,8.62,18.62l0,0c-5.22-3.36-11.36-6.37-18.62-8.62c4.06,6.44,8.55,11.58,13.15,15.76l-3.44,8.31
		c-6.21-0.3-13.02,0.16-20.44,1.85C-47-3.53-40.54-1.32-34.47,0v0C-40.54,1.32-47,3.53-53.73,7.07c7.42,1.68,14.23,2.15,20.44,1.85
		l3.44,8.31c-4.6,4.18-9.09,9.32-13.15,15.76c7.27-2.25,13.4-5.26,18.62-8.62l0,0c-3.36,5.22-6.37,11.36-8.62,18.62
		c6.44-4.06,11.58-8.55,15.76-13.15L-8.92,33.29z"/>
	<radialGradient id="SVGID_3_" cx="5.534803e-07" cy="1.091394e-09" r="50.0665" gradientUnits="userSpaceOnUse">
		<stop  offset="0.2" style="stop-color:#D90387"/>
		<stop  offset="0.562" style="stop-color:#D80583"/>
		<stop  offset="0.9" style="stop-color:#D40978"/>
	</radialGradient>
	<path class="st2" d="M-17.23,29.85c-1.89,5.92-3.21,12.62-3.51,20.22c5.17-5.58,8.97-11.25,11.82-16.78L0,0L-17.23,29.85z M0,0
		l17.23,29.85c1.89,5.92,3.21,12.62,3.51,20.22c-5.17-5.58-8.97-11.25-11.82-16.78L0,0z M0,0l33.29,8.92
		c5.52,2.84,11.19,6.65,16.78,11.82c-7.6-0.29-14.3-1.61-20.22-3.51L0,0z M0,0l29.85-17.23c5.92-1.89,12.62-3.21,20.22-3.51
		c-5.58,5.17-11.25,8.97-16.78,11.82L0,0z M0,0l8.92-33.29c2.84-5.52,6.65-11.19,11.82-16.78c-0.29,7.6-1.61,14.3-3.51,20.22L0,0z
		 M0,0l-17.23-29.85c-1.89-5.92-3.21-12.62-3.51-20.22c5.17,5.58,8.97,11.25,11.82,16.78L0,0z M0,0l-33.29-8.92
		c-5.52-2.84-11.19-6.65-16.78-11.82c7.6,0.29,14.3,1.61,20.22,3.51L0,0z M0,0l-29.85,17.23c-5.92,1.89-12.62,3.21-20.22,3.51
		c5.58-5.17,11.25-8.97,16.78-11.82L0,0z"/>
	<radialGradient id="SVGID_4_" cx="2.761581e-07" cy="6.103532e-05" r="34.2391" gradientUnits="userSpaceOnUse">
		<stop  offset="0.2" style="stop-color:#EB3C19"/>
		<stop  offset="0.9" style="stop-color:#EB3C19"/>
	</radialGradient>
	<path class="st3" d="M9.44-1.24C6.15-0.7,3.14-0.35,0.49-0.06c0,0.04,0.01,0.07,0,0.11c2.66,0.3,5.66,0.64,8.95,1.19
		c7.03,1.17,15.3,3.25,23.93,7.7c-9.7-0.46-17.9-2.79-24.57-5.3c6.49,2.95,13.94,7.1,21.12,13.63C20.67,14.32,13.35,9.94,7.55,5.8
		C4.84,3.86,2.47,1.97,0.39,0.31C0.36,0.34,0.34,0.36,0.31,0.38C1.97,2.47,3.86,4.84,5.8,7.55c4.15,5.8,8.52,13.12,11.48,22.36
		C10.74,22.74,6.59,15.29,3.64,8.8c2.5,6.67,4.84,14.88,5.3,24.57c-4.45-8.63-6.53-16.9-7.7-23.93C0.7,6.15,0.35,3.14,0.06,0.49
		c-0.04,0-0.07,0.01-0.11,0c-0.3,2.66-0.64,5.66-1.19,8.95c-1.17,7.03-3.25,15.3-7.7,23.93c0.46-9.7,2.79-17.9,5.3-24.57
		c-2.95,6.49-7.1,13.94-13.63,21.12c2.95-9.25,7.33-16.57,11.48-22.36c1.94-2.71,3.82-5.08,5.49-7.17
		c-0.03-0.02-0.05-0.05-0.08-0.08C-2.47,1.97-4.84,3.86-7.55,5.8c-5.8,4.15-13.12,8.52-22.36,11.48
		C-22.74,10.74-15.29,6.59-8.8,3.64c-6.67,2.5-14.88,4.84-24.57,5.3c8.63-4.45,16.9-6.53,23.93-7.7c3.29-0.55,6.3-0.89,8.95-1.19
		c0-0.04-0.01-0.07,0-0.11c-2.66-0.3-5.66-0.64-8.95-1.19c-7.03-1.17-15.3-3.25-23.93-7.7c9.7,0.46,17.9,2.79,24.57,5.3
		c-6.49-2.95-13.94-7.1-21.12-13.63c9.25,2.95,16.57,7.33,22.36,11.48c2.71,1.94,5.08,3.82,7.17,5.49c0.02-0.03,0.05-0.05,0.08-0.08
		C-1.97-2.47-3.86-4.84-5.8-7.55c-4.15-5.8-8.52-13.12-11.48-22.36C-10.74-22.74-6.59-15.29-3.64-8.8
		c-2.5-6.67-4.84-14.88-5.3-24.57c4.45,8.63,6.53,16.9,7.7,23.93c0.55,3.29,0.89,6.3,1.19,8.95c0.04,0,0.07-0.01,0.11,0
		c0.3-2.66,0.64-5.66,1.19-8.95c1.17-7.03,3.25-15.3,7.7-23.93c-0.46,9.7-2.79,17.9-5.3,24.57c2.95-6.49,7.1-13.94,13.63-21.12
		C14.32-20.67,9.94-13.35,5.8-7.55C3.86-4.84,1.97-2.47,0.31-0.39c0.03,0.02,0.05,0.05,0.08,0.08C2.47-1.97,4.84-3.86,7.55-5.8
		c5.8-4.15,13.12-8.52,22.36-11.48C22.74-10.74,15.29-6.59,8.8-3.64c6.67-2.5,14.88-4.84,24.57-5.3C24.74-4.49,16.47-2.41,9.44-1.24
		z"/>
	<radialGradient id="SVGID_5_" cx="0.5606" cy="6.065621e-05" r="34.6894" gradientUnits="userSpaceOnUse">
		<stop  offset="0.2" style="stop-color:#F14F1B"/>
		<stop  offset="0.8372" style="stop-color:#F04B1B"/>
		<stop  offset="0.9" style="stop-color:#F04A1B"/>
	</radialGradient>
	<path class="st4" d="M1.24,9.44C1.93,16.53,2.07,25.06,0,34.55c-2.07-9.48-1.93-18.01-1.24-25.11C-0.9,5.92-0.42,2.75,0,0
		C0.42,2.75,0.9,5.92,1.24,9.44z M0,0c-0.42-2.75-0.9-5.92-1.24-9.44C-1.93-16.53-2.07-25.06,0-34.55
		c2.07,9.48,1.93,18.01,1.24,25.11C0.9-5.92,0.42-2.75,0,0z M7.55,5.8c5.5,4.53,11.63,10.46,16.87,18.63
		C16.26,19.18,10.32,13.06,5.8,7.55C3.55,4.82,1.65,2.24,0,0C2.24,1.65,4.82,3.55,7.55,5.8z M0,0c-2.24-1.65-4.82-3.55-7.55-5.8
		c-5.5-4.53-11.63-10.46-16.87-18.63c8.17,5.25,14.11,11.37,18.63,16.87C-3.55-4.82-1.65-2.24,0,0z M9.44-1.24
		C16.53-1.93,25.06-2.07,34.55,0C25.06,2.07,16.53,1.94,9.44,1.24C5.92,0.9,2.75,0.42,0,0C2.75-0.42,5.92-0.9,9.44-1.24z M0,0
		c-2.75,0.42-5.92,0.9-9.44,1.24C-16.53,1.94-25.06,2.07-34.55,0c9.48-2.07,18.01-1.93,25.11-1.24C-5.92-0.9-2.75-0.42,0,0z
		 M5.8-7.55c4.53-5.5,10.46-11.63,18.63-16.87C19.18-16.26,13.06-10.32,7.55-5.8C4.82-3.55,2.24-1.65,0,0
		C1.65-2.24,3.55-4.82,5.8-7.55z M0,0c-1.65,2.24-3.55,4.82-5.8,7.55c-4.53,5.5-10.46,11.63-18.63,16.87
		c5.25-8.17,11.37-14.11,16.87-18.63C-4.82,3.55-2.24,1.65,0,0z"/>
</symbol>
<symbol  id="circle_back" viewBox="-63.26 -58.92 126.53 117.84">
	<radialGradient id="SVGID_6_" cx="9.094947e-13" cy="-106.8975" r="166.4683" gradientUnits="userSpaceOnUse">
		<stop  offset="0.9" style="stop-color:#7E0F0C"/>
		<stop  offset="0.9301" style="stop-color:#7A0E0C"/>
		<stop  offset="0.9613" style="stop-color:#6D0D0A"/>
		<stop  offset="0.9928" style="stop-color:#590A08"/>
		<stop  offset="1" style="stop-color:#530907"/>
	</radialGradient>
	<path class="st5" d="M52.96,21.49c-33.83,14-72.08,14-105.91,0l-10.31,24.88c40.41,16.72,86.11,16.72,126.53,0L52.96,21.49z"/>
	<path class="st6" d="M52.95,21.49c-33.83,14-72.08,14-105.91,0l-3.85,9.3l9.3,4.05c2.85,1.56,5.63,3.3,8.29,5.18
		c3.25-0.3,6.52-0.42,9.77-0.35l10.08,1.14l10.03,1.5c3.16,0.77,6.29,1.73,9.35,2.86c3.06-1.13,6.19-2.09,9.35-2.86l10.03-1.5
		l10.08-1.14c3.25-0.07,6.52,0.04,9.77,0.35c2.66-1.89,5.44-3.62,8.29-5.18l9.3-4.05L52.95,21.49z"/>
	<linearGradient id="SVGID_7_" gradientUnits="userSpaceOnUse" x1="4.627475e-06" y1="0.0652" x2="4.627475e-06" y2="41.7595">
		<stop  offset="0.3" style="stop-color:#C91912"/>
		<stop  offset="1" style="stop-color:#BF1812"/>
	</linearGradient>
	<path class="st7" d="M56.67,30.45c-35.01,14.5-75.55,15.65-113.33,0l12.59-30.38c28.16,11.65,60,11.65,88.16,0L56.67,30.45z"/>
	<linearGradient id="SVGID_8_" gradientUnits="userSpaceOnUse" x1="2.280199e-05" y1="-58.9182" x2="2.280199e-05" y2="31.9899">
		<stop  offset="0.7" style="stop-color:#CA0760"/>
		<stop  offset="0.7754" style="stop-color:#C8085C"/>
		<stop  offset="0.8536" style="stop-color:#C00A4F"/>
		<stop  offset="0.9326" style="stop-color:#B40E3B"/>
		<stop  offset="1" style="stop-color:#A61323"/>
	</linearGradient>
	<path class="st8" d="M6.25-58.92L15.04,7.8C10.76,16.2,5.65,24.28,0,31.99C-5.65,24.28-10.76,16.2-15.04,7.8l8.79-66.71L6.25-58.92
		z"/>
	<linearGradient id="SVGID_9_" gradientUnits="userSpaceOnUse" x1="-19.3212" y1="40.4512" x2="-21.7138" y2="57.4749">
		<stop  offset="0.2" style="stop-color:#9F1410"/>
		<stop  offset="0.9" style="stop-color:#82100D"/>
	</linearGradient>
	<path class="st9" d="M-19.33,40.45c3.72,0.49,7.41,1.21,11.05,2.14c-4.27,5.16-8.74,10.14-13.3,14.9
		c-3.17-5.78-6.2-11.74-8.99-17.83C-26.8,39.7-23.05,39.96-19.33,40.45z"/>
	<linearGradient id="SVGID_10_" gradientUnits="userSpaceOnUse" x1="19.3212" y1="40.4512" x2="21.7137" y2="57.4749">
		<stop  offset="0.2" style="stop-color:#9F1410"/>
		<stop  offset="0.9" style="stop-color:#82100D"/>
	</linearGradient>
	<path class="st10" d="M30.56,39.66c-2.79,6.09-5.82,12.05-8.99,17.83c-4.56-4.76-9.02-9.73-13.3-14.9
		c3.64-0.94,7.33-1.65,11.05-2.14S26.8,39.7,30.56,39.66z"/>
	<path class="st11" d="M-7.42,41.55c4.98,0.25,9.93,0.25,14.85,0.01C4.87,38.44,2.39,35.25,0,31.99
		C-2.39,35.25-4.87,38.43-7.42,41.55z M-35.81,27.28c1.46,3.77,3.04,7.49,4.7,11.17c-4.81-1.03-9.6-2.32-14.34-3.85
		C-42.18,32.24-38.95,29.8-35.81,27.28z M35.81,27.28c3.15,2.53,6.38,4.97,9.65,7.32c-4.68,1.51-9.47,2.79-14.35,3.84
		C32.77,34.76,34.34,31.04,35.81,27.28z"/>
</symbol>
<symbol  id="circle_leaf" viewBox="-35.97 -69.71 71.93 139.41">
	<linearGradient id="SVGID_11_" gradientUnits="userSpaceOnUse" x1="-1.700755e-10" y1="-26.6049" x2="-1.700727e-10" y2="19.6033">
		<stop  offset="0.3" style="stop-color:#EB3717"/>
		<stop  offset="0.9" style="stop-color:#D72414"/>
	</linearGradient>
	<path class="st12" d="M-28.56-26.6l-7.41,17.88c1.41,9.63,4.06,19.1,7.61,28.33h56.71c3.55-9.23,6.2-18.7,7.61-28.33L28.56-26.6
		H-28.56z"/>
	<linearGradient id="SVGID_12_" gradientUnits="userSpaceOnUse" x1="-3.804571e-07" y1="-26.605" x2="-3.804571e-07" y2="19.6033">
		<stop  offset="0.3" style="stop-color:#DE3116"/>
		<stop  offset="0.8" style="stop-color:#C21912"/>
	</linearGradient>
	<polygon class="st13" points="-9.08,-26.6 -15.16,19.6 15.16,19.6 9.08,-26.6 	"/>
	<linearGradient id="SVGID_13_" gradientUnits="userSpaceOnUse" x1="0" y1="-48.1203" x2="2.412242e-15" y2="-8.7254">
		<stop  offset="0.5" style="stop-color:#E4149C"/>
		<stop  offset="1" style="stop-color:#D41273"/>
	</linearGradient>
	<path class="st14" d="M-19.65-48.12L-35.97-8.73c6.16-4.58,11.85-9.77,16.91-15.66h38.12C24.12-18.5,29.8-13.31,35.97-8.73
		L19.65-48.12H-19.65z"/>
	<linearGradient id="SVGID_14_" gradientUnits="userSpaceOnUse" x1="3.719833e-10" y1="-48.1203" x2="3.719861e-10" y2="-2.3753">
		<stop  offset="0.5" style="stop-color:#D50890"/>
		<stop  offset="1" style="stop-color:#C8036B"/>
	</linearGradient>
	<path class="st15" d="M12.72-48.12l6.36,23.73c-1.43,7.63-3.77,14.97-6.81,22.02C7.5-8.4,3.36-14.88,0-21.88
		c-3.36,7-7.5,13.48-12.27,19.51c-3.04-7.05-5.38-14.39-6.81-22.02l6.36-23.73L12.72-48.12z"/>
	
		<linearGradient id="SVGID_15_" gradientUnits="userSpaceOnUse" x1="-4.338290e-10" y1="-69.7067" x2="-4.338262e-10" y2="-24.3908">
		<stop  offset="0.4" style="stop-color:#DF3328"/>
		<stop  offset="1" style="stop-color:#DC3120"/>
	</linearGradient>
	<path class="st16" d="M-10.71-69.71l-10.02,24.2c-0.25,6.39,0.21,13.4,1.66,21.12c5.1-5.94,9.01-11.77,11.99-17.41H7.08
		c2.98,5.64,6.89,11.47,11.99,17.41c1.45-7.72,1.91-14.73,1.66-21.12l-10.02-24.2H-10.71z"/>
	<linearGradient id="SVGID_16_" gradientUnits="userSpaceOnUse" x1="6.185436e-06" y1="-69.7067" x2="6.185436e-06" y2="-21.8803">
		<stop  offset="0.4" style="stop-color:#D52929"/>
		<stop  offset="1" style="stop-color:#CD2723"/>
	</linearGradient>
	<path class="st17" d="M-7.07-41.8C-5.66-35.58-3.39-28.94,0-21.88c3.39-7.06,5.66-13.7,7.07-19.92L3.4-69.71l-6.81,0L-7.07-41.8z"
		/>
	<linearGradient id="SVGID_17_" gradientUnits="userSpaceOnUse" x1="-9.613359e-10" y1="-2.3753" x2="-9.613331e-10" y2="42.5064">
		<stop  offset="0.4" style="stop-color:#EB1777"/>
		<stop  offset="1" style="stop-color:#D21831"/>
	</linearGradient>
	<path class="st18" d="M17.57,42.51c4.8-8.66,8.99-17.64,12.25-26.85c-6.44-5.5-12.37-11.48-17.55-18.03
		C8.96,5.29,4.79,12.62,0,19.6c-4.79-6.98-8.96-14.3-12.27-21.97c-5.18,6.55-11.11,12.53-17.55,18.03
		c3.26,9.21,7.45,18.19,12.25,26.85H17.57z"/>
	<path class="st19" d="M12.57,51.06c-0.63,1.02-1.26,2.04-1.91,3.06l-21.33,0c-0.65-1.03-1.3-2.06-1.93-3.1L12.57,51.06z"/>
	<linearGradient id="SVGID_18_" gradientUnits="userSpaceOnUse" x1="-1.453373e-09" y1="19.6032" x2="-1.453371e-09" y2="52.5186">
		<stop  offset="0.3" style="stop-color:#E41D15"/>
		<stop  offset="1" style="stop-color:#D80D15"/>
	</linearGradient>
	<path class="st20" d="M-11.96,52.04c-2.12-3.42-4.16-6.9-6.1-10.44c6.6-6.9,12.72-14.23,18.06-22c5.34,7.77,11.46,15.1,18.06,22
		c-1.94,3.53-3.98,7.01-6.1,10.44C8.01,52.35,4.03,52.52,0,52.52S-8.01,52.35-11.96,52.04z"/>
	<linearGradient id="SVGID_19_" gradientUnits="userSpaceOnUse" x1="-1.453373e-09" y1="52.5186" x2="-1.453372e-09" y2="69.7067">
		<stop  offset="0.2" style="stop-color:#D21A13"/>
		<stop  offset="0.8" style="stop-color:#C71912"/>
	</linearGradient>
	<path class="st21" d="M0,52.52c3.75,0,7.51,0.23,11.24,0.68C7.68,58.88,3.9,64.39,0,69.71c-3.9-5.32-7.68-10.83-11.24-16.51
		C-7.51,52.75-3.75,52.52,0,52.52z"/>
</symbol>
<symbol  id="circle_ring" viewBox="-93.85 -18.52 187.71 36.03">
	<radialGradient id="SVGID_20_" cx="-4.620278e-04" cy="-157.1923" r="178.7818" gradientUnits="userSpaceOnUse">
		<stop  offset="0.9" style="stop-color:#DC1C15"/>
		<stop  offset="0.9265" style="stop-color:#D81B15"/>
		<stop  offset="0.954" style="stop-color:#CB1A13"/>
		<stop  offset="0.9818" style="stop-color:#B71712"/>
		<stop  offset="1" style="stop-color:#A51510"/>
	</radialGradient>
	<path class="st22" d="M0,7.83C-10.6-3.55-24.05-10.59-38.33-14.41s-29.45-4.46-44.31,0.1l-4.84,8.38
		C-74.52,1.54-60.4,7.45-45.27,11.51c15.13,4.05,30.32,5.99,45.27,6c14.95-0.01,30.14-1.95,45.27-6
		C60.39,7.45,74.52,1.54,87.47-5.93l-4.84-8.38c-14.87-4.56-30.04-3.93-44.31-0.1S10.6-3.55,0,7.83z"/>
	<path class="st23" d="M57.99-17.44c-6.66,0.25-13.25,1.31-19.66,3.03s-12.65,4.09-18.54,7.21c7.97,1.82,15.73,4.86,22.99,9.41
		C46.79-5.37,51.99-11.88,57.99-17.44z"/>
	<path class="st23" d="M-42.78,2.2c-4.02-7.57-9.22-14.08-15.21-19.64c6.66,0.25,13.25,1.31,19.66,3.03s12.65,4.09,18.54,7.21
		C-27.76-5.39-35.52-2.34-42.78,2.2z"/>
	<linearGradient id="SVGID_21_" gradientUnits="userSpaceOnUse" x1="38.324" y1="-14.4117" x2="42.7726" y2="2.1908">
		<stop  offset="0.2" style="stop-color:#DB1C15"/>
		<stop  offset="1" style="stop-color:#D01A13"/>
	</linearGradient>
	<path class="st24" d="M27.64-10.84c4.91,4.56,9.99,8.91,15.13,13.04c2.39-6.14,4.61-12.45,6.58-18.85
		c-3.72,0.53-7.41,1.28-11.03,2.25S31.13-12.25,27.64-10.84z"/>
	<linearGradient id="SVGID_22_" gradientUnits="userSpaceOnUse" x1="-38.325" y1="-14.4117" x2="-42.7736" y2="2.1908">
		<stop  offset="0.2" style="stop-color:#DB1C15"/>
		<stop  offset="1" style="stop-color:#D01A13"/>
	</linearGradient>
	<path class="st25" d="M-38.33-14.41c3.63,0.97,7.19,2.16,10.68,3.57c-4.91,4.56-9.99,8.91-15.13,13.04
		c-2.39-6.14-4.61-12.45-6.58-18.85C-45.64-16.13-41.95-15.38-38.33-14.41z"/>
	<g>
		<path class="st26" d="M82.39-15.46c-0.04,0.17-0.08,0.34-0.12,0.51c-13.77-4.11-28.6-4.09-44.07,0.05C22.72-10.75,9.87-3.35,0,7.1
			c-9.87-10.45-22.72-17.85-38.19-22c-15.48-4.15-30.3-4.16-44.07-0.05c-0.04-0.17-0.08-0.34-0.12-0.51"/>
		<path class="st27" d="M83.37-13.04l-1.03-0.31c-13.64-4.18-28.36-4.21-43.76-0.09C23.19-9.32,10.46-1.93,0.73,8.51L0,9.3
			c0,0-0.73-0.79-0.73-0.79C-10.46-1.93-23.19-9.32-38.58-13.45c-15.39-4.12-30.11-4.1-43.76,0.09l-1.03,0.31"/>
	</g>
	<linearGradient id="SVGID_23_" gradientUnits="userSpaceOnUse" x1="42.7802" y1="2.1989" x2="45.2828" y2="11.5385">
		<stop  offset="0" style="stop-color:#C62720"/>
		<stop  offset="1" style="stop-color:#A51510"/>
	</linearGradient>
	<path class="st28" d="M52.45,9.46c-3.1-2.75-6.34-5.17-9.68-7.26c-1.85,3.48-3.44,7.18-4.75,11.11
		C42.92,12.22,47.73,10.94,52.45,9.46z"/>
	<linearGradient id="SVGID_24_" gradientUnits="userSpaceOnUse" x1="4.752157e-03" y1="7.8317" x2="4.752157e-03" y2="17.5009">
		<stop  offset="0" style="stop-color:#C62720"/>
		<stop  offset="1" style="stop-color:#A51510"/>
	</linearGradient>
	<path class="st29" d="M7.47,17.35C5.19,13.89,2.69,10.72,0,7.83c-2.68,2.88-5.18,6.04-7.46,9.5C-2.46,17.55,2.52,17.56,7.47,17.35z
		"/>
	<linearGradient id="SVGID_25_" gradientUnits="userSpaceOnUse" x1="-42.7711" y1="2.2016" x2="-45.2736" y2="11.5413">
		<stop  offset="0" style="stop-color:#C62720"/>
		<stop  offset="1" style="stop-color:#A51510"/>
	</linearGradient>
	<path class="st30" d="M-52.44,9.45c3.1-2.75,6.33-5.16,9.67-7.25c1.85,3.48,3.44,7.19,4.75,11.13
		C-42.86,12.25-47.67,10.95-52.44,9.45z"/>
	
		<linearGradient id="SVGID_26_" gradientUnits="userSpaceOnUse" x1="2315.7151" y1="1848.564" x2="2313.2126" y2="1857.9037" gradientTransform="matrix(0.9659 0.2588 -0.2588 0.9659 -1840.9976 -2399.2349)">
		<stop  offset="0" style="stop-color:#C62720"/>
		<stop  offset="1" style="stop-color:#A51510"/>
	</linearGradient>
	<path class="st31" d="M-93.85-9.81c3.7-1.85,7.45-3.34,11.21-4.5c0.88,3.84,1.46,7.84,1.71,11.98
		C-85.31-4.63-89.62-7.12-93.85-9.81z"/>
	
		<linearGradient id="SVGID_27_" gradientUnits="userSpaceOnUse" x1="-1757.4688" y1="-2391.6714" x2="-1754.9662" y2="-2382.3318" gradientTransform="matrix(0.9659 -0.2588 0.2588 0.9659 2399.2349 1840.9976)">
		<stop  offset="0" style="stop-color:#C62720"/>
		<stop  offset="1" style="stop-color:#A51510"/>
	</linearGradient>
	<path class="st32" d="M93.86-9.8c-3.71-1.86-7.46-3.35-11.23-4.51c-0.88,3.84-1.46,7.82-1.71,11.96
		C85.37-4.66,89.68-7.15,93.86-9.8z"/>
</symbol>
<symbol  id="outer_flare" viewBox="-85.81 -153.62 171.63 307.89">
	<g>
		
			<linearGradient id="SVGID_28_" gradientUnits="userSpaceOnUse" x1="1.560693e-09" y1="-152.6162" x2="1.560697e-09" y2="-93.6504">
			<stop  offset="0.2" style="stop-color:#7DE8B7"/>
			<stop  offset="0.8" style="stop-color:#71E1AC"/>
		</linearGradient>
		<path class="st33" d="M0-152.62c-8.6,0-16.98,1.79-24.68,5.31L-1-93.65h2l23.68-53.66C16.98-150.82,8.6-152.62,0-152.62"/>
		
			<linearGradient id="SVGID_29_" gradientUnits="userSpaceOnUse" x1="1.782610e-09" y1="-152.6162" x2="1.782611e-09" y2="-125.5777">
			<stop  offset="0.2" style="stop-color:#7BF8EC"/>
			<stop  offset="0.8" style="stop-color:#77F7EB"/>
		</linearGradient>
		<path class="st34" d="M0-152.62c2.62,0,5.22,0.17,7.79,0.5c3.95,6.1,7.24,13.1,9.69,21.12l-2.39,5.41
			c-4.7-2.06-9.8-3.16-15.09-3.16s-10.39,1.1-15.09,3.16l-2.39-5.41c2.44-8.02,5.73-15.03,9.69-21.12
			C-5.22-152.44-2.62-152.62,0-152.62z"/>
	</g>
	<g>
		<linearGradient id="SVGID_30_" gradientUnits="userSpaceOnUse" x1="0" y1="23.286" x2="3.223959e-15" y2="75.9372">
			<stop  offset="0.2" style="stop-color:#43CBCF"/>
			<stop  offset="0.8" style="stop-color:#41C4CB"/>
		</linearGradient>
		<path class="st35" d="M-46.17,23.29l-20.69,23.87c4.42,10.03,9.29,19.63,14.39,28.78H52.47c5.11-9.15,9.97-18.75,14.39-28.78
			L46.17,23.29H-46.17z"/>
		<linearGradient id="SVGID_31_" gradientUnits="userSpaceOnUse" x1="1.637090e-11" y1="51.7036" x2="1.637394e-11" y2="101.3041">
			<stop  offset="0.2" style="stop-color:#3FAD87"/>
			<stop  offset="0.8" style="stop-color:#3CA47D"/>
		</linearGradient>
		<path class="st36" d="M-32.36,51.7c-6.64,8.26-13.58,16.01-20.63,23.31c5.12,9.23,10.49,18,15.9,26.29h74.16
			c5.41-8.29,10.78-17.06,15.9-26.29c-7.05-7.3-13.99-15.05-20.63-23.31H-32.36z"/>
		<linearGradient id="SVGID_32_" gradientUnits="userSpaceOnUse" x1="2.783054e-10" y1="76.7585" x2="2.783084e-10" y2="126.7792">
			<stop  offset="0.2" style="stop-color:#39A1BF"/>
			<stop  offset="0.8" style="stop-color:#379AB9"/>
		</linearGradient>
		<path class="st37" d="M-17.13,76.76c-6.34,7.81-13.31,15.82-20.52,23.68c6.11,9.41,12.29,18.2,18.24,26.34h38.82
			c5.94-8.14,12.12-16.93,18.24-26.34c-7.21-7.86-14.18-15.88-20.52-23.68H-17.13z"/>
		<linearGradient id="SVGID_33_" gradientUnits="userSpaceOnUse" x1="2.017259e-09" y1="101.9329" x2="2.017262e-09" y2="152.6162">
			<stop  offset="0.2" style="stop-color:#328479"/>
			<stop  offset="0.8" style="stop-color:#2F7C72"/>
		</linearGradient>
		<path class="st38" d="M0,101.93c6.77,8.4,13.74,16.7,20.02,24.02C12.84,135.8,6,144.71,0,152.62c-6-7.9-12.84-16.81-20.02-26.67
			C-13.74,118.64-6.77,110.34,0,101.93z"/>
	</g>
	<g>
		
			<radialGradient id="SVGID_34_" cx="-0.1786" cy="19.6613" r="64.0196" gradientTransform="matrix(6.123234e-17 1 -0.57 3.490243e-17 11.0283 19.8399)" gradientUnits="userSpaceOnUse">
			<stop  offset="0.4" style="stop-color:#F53518"/>
			<stop  offset="1" style="stop-color:#BE2512"/>
		</radialGradient>
		<polygon class="st39" points="-16.28,-54.36 -34.7,-7.11 -15.38,32.59 15.38,32.59 34.7,-7.11 16.28,-54.36 		"/>
		
			<radialGradient id="SVGID_35_" cx="0.1667" cy="-0.5916" r="71.0694" gradientTransform="matrix(6.123234e-17 1 -0.26 1.592041e-17 0.0129 -0.7582)" gradientUnits="userSpaceOnUse">
			<stop  offset="0.5" style="stop-color:#B33433"/>
			<stop  offset="0.8" style="stop-color:#94242F"/>
			<stop  offset="1" style="stop-color:#6C1B2B"/>
		</radialGradient>
		<path class="st40" d="M0.96-93.65l16.77,43.01C13.85-31.99,7.7-14.76,0,1.13c-7.7-15.9-13.85-33.12-17.73-51.78l16.77-43.01H0.96z
			"/>
		
			<radialGradient id="SVGID_36_" cx="-0.1667" cy="26.5293" r="38.0873" gradientTransform="matrix(6.123234e-17 1 -1.124 6.882515e-17 29.6522 26.6959)" gradientUnits="userSpaceOnUse">
			<stop  offset="0.3" style="stop-color:#C93D31"/>
			<stop  offset="0.7" style="stop-color:#CD4431"/>
			<stop  offset="0.7901" style="stop-color:#C74030"/>
			<stop  offset="0.9077" style="stop-color:#B7362B"/>
			<stop  offset="1" style="stop-color:#A52A27"/>
		</radialGradient>
		<path class="st41" d="M-31.36,55.55c-5.5-9.74-10.8-20.27-15.52-31.4l14.02-35.97c4.93,14.61,11.21,28.18,17.56,40
			C-9.75,19.62-4.6,10.6,0,1.12c4.6,9.48,9.75,18.5,15.3,27.06c6.35-11.82,12.63-25.39,17.56-40l14.02,35.97
			c-4.72,11.13-10.02,21.65-15.52,31.4H-31.36z"/>
		
			<radialGradient id="SVGID_37_" cx="0.1471" cy="27.7199" r="63.064" gradientTransform="matrix(6.123234e-17 1 -0.631 3.863761e-17 17.6384 27.5727)" gradientUnits="userSpaceOnUse">
			<stop  offset="0.4" style="stop-color:#F5491F"/>
			<stop  offset="1" style="stop-color:#F32D18"/>
		</radialGradient>
		<path class="st42" d="M17.23,78.47c5.27-7.85,10.65-16.55,15.81-25.94c-6.22-7.68-12.18-15.79-17.74-24.35
			C10,38.05,4.65,46.7,0,53.73c-4.65-7.03-10-15.69-15.3-25.56c-5.56,8.56-11.52,16.67-17.74,24.35
			c5.17,9.39,10.55,18.08,15.81,25.94H17.23z"/>
		
			<radialGradient id="SVGID_38_" cx="1.778972e-09" cy="47.5234" r="53.3493" gradientTransform="matrix(6.123234e-17 1 -0.435 2.663607e-17 20.6727 47.5234)" gradientUnits="userSpaceOnUse">
			<stop  offset="0.45" style="stop-color:#CB3E2D"/>
			<stop  offset="0.8" style="stop-color:#B02C25"/>
			<stop  offset="0.9141" style="stop-color:#8E2321"/>
			<stop  offset="1" style="stop-color:#711B1D"/>
		</radialGradient>
		<path class="st43" d="M0,53.73c4.92,7.44,11.02,15.54,17.81,23.86C11.55,86.98,5.44,95.18,0,101.93
			c-5.44-6.75-11.55-14.96-17.81-24.34C-11.02,69.27-4.92,61.18,0,53.73z"/>
	</g>
	<g>
		<path class="st26" d="M62.8-31.34C52.82,30.19,14.98,82.45,0,101.13C-14.98,82.45-52.82,30.19-62.8-31.33"/>
		<path class="st44" d="M-64.1-30.04c10.39,61.98,48.63,114.37,63.32,132.6L0,103.53l0.78-0.97C15.47,84.32,53.71,31.93,64.1-30.04"
			/>
		<path class="st26" d="M-85.32-8.96c13.27,67.65,54.37,121.7,81.61,157.52L0,153.44l3.71-4.88C30.95,112.74,72.05,58.7,85.32-8.96
			 M42.15-135.81C31.02-146.88,16.39-153.12,0-153.12c-16.39,0-31.02,6.24-42.15,17.31"/>
		<path class="st44" d="M-41.09-134.74c10.86-10.8,25.12-16.88,41.09-16.88c15.97,0,30.22,6.08,41.09,16.88 M84.04-10.25
			C71.05,57.53,29.81,111.76,2.52,147.65L0,150.96l-2.52-3.31c-27.29-35.89-68.54-90.12-81.53-157.9"/>
		<path class="st26" d="M45.83,25.23C23.33-3.37,3.46-39.72,0-81.26C-3.46-39.72-23.33-3.37-45.83,25.23 M23.53-148.41
			C10.48-138.21,2.12-122.62,0-103.86c-2.12-18.76-10.48-34.35-23.53-44.55"/>
	</g>
</symbol>
<symbol  id="outer_leaf" viewBox="-65.75 -128.27 131.49 257.14">
	<g>
		<linearGradient id="SVGID_39_" gradientUnits="userSpaceOnUse" x1="5.729817e-11" y1="-69.3923" x2="5.730379e-11" y2="22.5371">
			<stop  offset="0.2" style="stop-color:#7EEBB7"/>
			<stop  offset="0.8" style="stop-color:#6DE4A7"/>
		</linearGradient>
		<path class="st45" d="M-40.27-69.39l-24.19,55.18c1.49,12.58,4.21,24.89,7.78,36.75H56.68c3.58-11.86,6.29-24.17,7.78-36.75
			L40.27-69.39H-40.27z"/>
		
			<linearGradient id="SVGID_40_" gradientUnits="userSpaceOnUse" x1="-1.070475e-09" y1="-127.2745" x2="-1.070472e-09" y2="-69.3923">
			<stop  offset="0.2" style="stop-color:#A9F4D6"/>
			<stop  offset="0.8" style="stop-color:#A6F4D3"/>
		</linearGradient>
		<path class="st46" d="M40.27-69.39L45-106.7c-11.79-13.54-27.94-20.58-45-20.58s-33.21,7.04-45,20.58l4.72,37.31H40.27z"/>
		
			<linearGradient id="SVGID_41_" gradientUnits="userSpaceOnUse" x1="-1.409717e-09" y1="-127.2745" x2="-1.409713e-09" y2="-69.3923">
			<stop  offset="0.2" style="stop-color:#B6FDF6"/>
			<stop  offset="0.8" style="stop-color:#B3FEF5"/>
		</linearGradient>
		<path class="st47" d="M22.3-69.39c0.09-12.28,4.47-22.95,11.71-30.48c-0.26-5.76-0.03-11.19,0.62-16.3
			c-10.16-7.32-22.15-11.1-34.63-11.1s-24.47,3.77-34.63,11.1c0.65,5.12,0.87,10.55,0.62,16.3c7.24,7.53,11.62,18.2,11.71,30.48
			H22.3z"/>
		
			<linearGradient id="SVGID_42_" gradientUnits="userSpaceOnUse" x1="-1.387889e-09" y1="-127.2745" x2="-1.387885e-09" y2="-69.3923">
			<stop  offset="0.2" style="stop-color:#D2F8EC"/>
			<stop  offset="0.8" style="stop-color:#D1F8EA"/>
		</linearGradient>
		<path class="st48" d="M22.33-69.39c0.05-17.6-2.77-32.16-7.66-44.13c2.7-3.31,5.7-6.3,8.98-8.9c-7.42-3.21-15.43-4.86-23.65-4.86
			s-16.23,1.64-23.65,4.86c3.28,2.6,6.28,5.59,8.98,8.9c-4.9,11.97-7.71,26.53-7.66,44.13H22.33z"/>
		
			<linearGradient id="SVGID_43_" gradientUnits="userSpaceOnUse" x1="-1.224180e-09" y1="-127.2745" x2="-1.224176e-09" y2="-71.3878">
			<stop  offset="0.2" style="stop-color:#DDFDFD"/>
			<stop  offset="0.8" style="stop-color:#DCFDFD"/>
		</linearGradient>
		<path class="st49" d="M0-127.27c-2.62,0-5.21,0.17-7.77,0.5c-2.6,4.01-4.9,8.42-6.88,13.24c8.73,10.7,14.17,25,14.65,42.15
			c0.48-17.15,5.92-31.44,14.65-42.15c-1.97-4.82-4.28-9.23-6.88-13.24C5.21-127.1,2.62-127.27,0-127.27z"/>
		
			<linearGradient id="SVGID_44_" gradientUnits="userSpaceOnUse" x1="-1.818989e-12" y1="-107.4606" x2="-1.813192e-12" y2="-12.7841">
			<stop  offset="0.2" style="stop-color:#91FBF0"/>
			<stop  offset="0.8" style="stop-color:#7BF9EB"/>
		</linearGradient>
		<path class="st50" d="M61.18-73.73l-1.33-4.91c-3.38-11.63-8.76-21.28-15.55-28.81c-3.85,1.93-7.31,4.49-10.29,7.59
			c0.4,9.14,2.02,19.11,5.08,29.96c6.04,21.42,14.71,40.34,25.2,57.13C66.78-32.66,66.24-53.22,61.18-73.73z M-64.28-12.78
			c10.49-16.78,19.16-35.71,25.2-57.13c3.06-10.85,4.67-20.82,5.08-29.96c-2.98-3.1-6.44-5.66-10.29-7.59
			c-6.79,7.54-12.17,17.18-15.55,28.81l-1.33,4.91C-66.24-53.22-66.78-32.66-64.28-12.78z"/>
		<linearGradient id="SVGID_45_" gradientUnits="userSpaceOnUse" x1="-3.919922e-10" y1="-9.0546" x2="-3.919885e-10" y2="51.612">
			<stop  offset="0.2" style="stop-color:#54EBDD"/>
			<stop  offset="0.8" style="stop-color:#4FE6D8"/>
		</linearGradient>
		<path class="st51" d="M-38.04-9.05c-5.5,10.89-12.05,21.08-19,30.4c3.1,10.47,6.87,20.6,11.06,30.27h91.94
			c4.19-9.66,7.97-19.79,11.06-30.27c-6.94-9.32-13.49-19.51-19-30.4H-38.04z"/>
		<linearGradient id="SVGID_46_" gradientUnits="userSpaceOnUse" x1="-5.566108e-10" y1="24.017" x2="-5.566074e-10" y2="78.8315">
			<stop  offset="0.2" style="stop-color:#51CD95"/>
			<stop  offset="0.8" style="stop-color:#4BC68B"/>
		</linearGradient>
		<path class="st52" d="M-27.96,24.02c-5.67,9.37-11.92,18.24-18.46,26.54c4.27,9.96,9,19.42,13.91,28.27h65.02
			c4.91-8.85,9.64-18.32,13.91-28.27c-6.54-8.31-12.79-17.17-18.46-26.54H-27.96z"/>
		
			<linearGradient id="SVGID_47_" gradientUnits="userSpaceOnUse" x1="-1.134140e-09" y1="52.5616" x2="-1.134137e-09" y2="103.8081">
			<stop  offset="0.2" style="stop-color:#43CBCF"/>
			<stop  offset="0.8" style="stop-color:#41C4CB"/>
		</linearGradient>
		<path class="st53" d="M-14.68,52.56c-5.73,8.91-11.91,17.34-18.36,25.31c5.17,9.39,10.55,18.08,15.81,25.94h34.45
			c5.27-7.85,10.65-16.55,15.81-25.94c-6.45-7.97-12.62-16.4-18.36-25.31H-14.68z"/>
		
			<linearGradient id="SVGID_48_" gradientUnits="userSpaceOnUse" x1="-1.148692e-09" y1="79.0758" x2="-1.148689e-09" y2="127.2745">
			<stop  offset="0.2" style="stop-color:#40AD87"/>
			<stop  offset="0.8" style="stop-color:#3CA47D"/>
		</linearGradient>
		<path class="st54" d="M0,79.08c-4.92,7.44-11.02,15.54-17.81,23.86c6.26,9.38,12.37,17.59,17.81,24.34
			c5.44-6.75,11.55-14.96,17.81-24.34C11.02,94.62,4.92,86.52,0,79.08z"/>
	</g>
	<g>
		
			<radialGradient id="SVGID_49_" cx="-1.473381e-09" cy="-54.0726" r="49.2424" gradientTransform="matrix(6.123234e-17 1 -0.837 5.125147e-17 -45.2588 -54.0726)" gradientUnits="userSpaceOnUse">
			<stop  offset="0.4" style="stop-color:#DDDB8E"/>
			<stop  offset="0.6374" style="stop-color:#DBD88C"/>
			<stop  offset="0.7802" style="stop-color:#D6D085"/>
			<stop  offset="0.8975" style="stop-color:#CCC279"/>
			<stop  offset="1" style="stop-color:#BFAE69"/>
		</radialGradient>
		<path class="st55" d="M23.25-69.24l5.22-21.29C21.05-98.72,10.93-103.4,0-103.4s-21.05,4.68-28.47,12.87l5.22,21.29H23.25z"/>
		
			<radialGradient id="SVGID_50_" cx="1.818989e-11" cy="-29.2016" r="71.3863" gradientTransform="matrix(6.123234e-17 1 -0.563 3.447381e-17 -16.4405 -29.2016)" gradientUnits="userSpaceOnUse">
			<stop  offset="0.4" style="stop-color:#D2CC7A"/>
			<stop  offset="0.5856" style="stop-color:#CDC374"/>
			<stop  offset="0.8872" style="stop-color:#BFAB64"/>
			<stop  offset="1" style="stop-color:#B9A05D"/>
		</radialGradient>
		<path class="st56" d="M-23.25-69.24L-39.12-9.33c2.78,13.37,7.06,26.22,12.01,38.11h54.22c4.95-11.89,9.23-24.74,12.01-38.11
			L23.25-69.24H-23.25z"/>
		
			<radialGradient id="SVGID_51_" cx="-5.611582e-10" cy="-34.4735" r="70.597" gradientTransform="matrix(6.123234e-17 1 -0.622 3.808652e-17 -21.4425 -34.4735)" gradientUnits="userSpaceOnUse">
			<stop  offset="0.4" style="stop-color:#F9DE6D"/>
			<stop  offset="0.631" style="stop-color:#F9DB6B"/>
			<stop  offset="0.7699" style="stop-color:#F9D363"/>
			<stop  offset="0.8844" style="stop-color:#F8C556"/>
			<stop  offset="0.9852" style="stop-color:#F7B143"/>
			<stop  offset="1" style="stop-color:#F7AD40"/>
		</radialGradient>
		<path class="st57" d="M22.3-67.82c0.48,21.58,7.02,41.89,16.46,60.17c4.39-20.1,5.44-41.41,0.33-62.38
			C37-78.56,33.01-85.78,27.74-91.3C24.09-84.61,22.1-76.6,22.3-67.82z M-22.3-67.82c-0.48,21.58-7.02,41.89-16.46,60.17
			c-4.39-20.1-5.44-41.41-0.33-62.38c2.08-8.53,6.08-15.75,11.34-21.27C-24.09-84.61-22.1-76.6-22.3-67.82z"/>
		
			<radialGradient id="SVGID_52_" cx="0.25" cy="-40.3143" r="62.4799" gradientTransform="matrix(6.123234e-17 1 -0.709 4.341373e-17 -28.3328 -40.5643)" gradientUnits="userSpaceOnUse">
			<stop  offset="0.4" style="stop-color:#F9DE6D"/>
			<stop  offset="0.6341" style="stop-color:#F9DB6B"/>
			<stop  offset="0.7749" style="stop-color:#F9D363"/>
			<stop  offset="0.8906" style="stop-color:#F8C555"/>
			<stop  offset="0.9927" style="stop-color:#F7B143"/>
			<stop  offset="1" style="stop-color:#F7AF41"/>
		</radialGradient>
		<path class="st58" d="M0-71.37c-0.33-11.87-3.04-22.37-7.57-31.26c-4.21,0.87-8.22,2.45-11.9,4.67c-1.98,8.94-3,18.98-2.85,30.25
			c0.29,22.25,3.77,42.78,9.55,61.7C-5.21-24.55-0.42-44.55,0-65.68C0.42-44.55,5.21-24.55,12.77-6c5.79-18.93,9.26-39.45,9.55-61.7
			c0.15-11.28-0.88-21.32-2.85-30.25c-3.68-2.22-7.69-3.8-11.9-4.67C3.04-93.73,0.33-83.23,0-71.37z"/>
		
			<radialGradient id="SVGID_53_" cx="-1.331500e-09" cy="-9.9594" r="72.1129" gradientTransform="matrix(6.123234e-17 1 -0.468 2.865674e-17 -4.661 -9.9594)" gradientUnits="userSpaceOnUse">
			<stop  offset="0.4" style="stop-color:#F7A144"/>
			<stop  offset="0.529" style="stop-color:#F79D42"/>
			<stop  offset="0.6627" style="stop-color:#F7903D"/>
			<stop  offset="0.7979" style="stop-color:#F67C33"/>
			<stop  offset="0.9" style="stop-color:#F6672A"/>
		</radialGradient>
		<path class="st59" d="M14.75,54.53c4.83-8.9,9.64-18.83,13.86-29.46C22.6,15.25,17.21,4.88,12.77-6C9.29,5.39,4.97,16.22,0,26.48
			C-4.97,16.22-9.29,5.39-12.77-6c-4.43,10.88-9.83,21.25-15.84,31.07c4.23,10.63,9.03,20.56,13.86,29.46H14.75z"/>
		
			<radialGradient id="SVGID_54_" cx="0.1163" cy="20.1677" r="49.3288" gradientTransform="matrix(6.123234e-17 1 -0.45 2.755455e-17 9.1918 20.0513)" gradientUnits="userSpaceOnUse">
			<stop  offset="0.1" style="stop-color:#C4A46F"/>
			<stop  offset="0.3173" style="stop-color:#C1A06D"/>
			<stop  offset="0.5424" style="stop-color:#B89366"/>
			<stop  offset="0.7711" style="stop-color:#AA7F5B"/>
			<stop  offset="1" style="stop-color:#96624B"/>
		</radialGradient>
		<path class="st60" d="M0,26.48c-4.59,9.48-9.75,18.48-15.31,27.03C-10,63.38-4.65,72.04,0,79.08c4.65-7.03,10-15.69,15.31-25.57
			C9.75,44.95,4.59,35.96,0,26.48z"/>
	</g>
	<g>
		<path class="st26" d="M0,78.17C-20.56,46.91-52.41-13.3-38.6-69.91C-33.78-89.64-18.27-102.9,0-102.9
			c18.27,0,33.78,13.26,38.6,32.99C52.41-13.3,20.56,46.91,0,78.17z"/>
		<path class="st44" d="M0-104.4c-18.98,0-35.07,13.72-40.06,34.13c-6.25,25.63-3.99,54.4,6.73,85.51
			c7.27,21.1,18.2,42.76,32.49,64.38L0,80.89l0.83-1.26c14.29-21.62,25.23-43.28,32.5-64.38c10.72-31.11,12.98-59.88,6.73-85.51
			C35.07-90.68,18.98-104.4,0-104.4z"/>
		<path class="st44" d="M0,125.68C21.06,99.28,83.34,11.4,59.32-76.93c-4.18-15.38-12.16-28.09-23.08-36.77
			C25.9-121.93,13.37-126.27,0-126.27s-25.9,4.35-36.24,12.57c-10.92,8.68-18.9,21.4-23.08,36.77C-83.34,11.4-21.06,99.28,0,125.68z
			"/>
		<path class="st61" d="M46.99,50.42c-15.57,36.34-36.51,64.64-46.6,77.17L0,128.07l-0.39-0.48c-10.09-12.53-31.03-40.83-46.6-77.17
			 M-23.59-123.07c7.23-3.07,15.17-4.7,23.59-4.7c8.42,0,16.36,1.63,23.59,4.7"/>
	</g>
</symbol>
<g id="circle">
	
		<use xlink:href="#center_back"  width="364.67" height="364.67" id="XMLID_15_" x="-182.33" y="-182.33" transform="matrix(1 0 0 -1 512 512)" style="overflow:visible;"/>
	<g>
		
			<use xlink:href="#circle_back"  width="126.53" height="117.84" id="XMLID_14_" x="-63.26" y="-58.92" transform="matrix(0.9239 0.3827 0.3827 -0.9239 552.6998 413.7419)" style="overflow:visible;"/>
		
			<use xlink:href="#circle_back"  width="126.53" height="117.84" x="-63.26" y="-58.92" transform="matrix(0.3827 0.9239 0.9239 -0.3827 610.2581 471.3002)" style="overflow:visible;"/>
		
			<use xlink:href="#circle_back"  width="126.53" height="117.84" x="-63.26" y="-58.92" transform="matrix(-0.3827 0.9239 0.9239 0.3827 610.2581 552.6998)" style="overflow:visible;"/>
		
			<use xlink:href="#circle_back"  width="126.53" height="117.84" x="-63.26" y="-58.92" transform="matrix(-0.9239 0.3827 0.3827 0.9239 552.6998 610.2581)" style="overflow:visible;"/>
		
			<use xlink:href="#circle_back"  width="126.53" height="117.84" x="-63.26" y="-58.92" transform="matrix(-0.9239 -0.3827 -0.3827 0.9239 471.3001 610.2581)" style="overflow:visible;"/>
		
			<use xlink:href="#circle_back"  width="126.53" height="117.84" x="-63.26" y="-58.92" transform="matrix(-0.3827 -0.9239 -0.9239 0.3827 413.7419 552.6998)" style="overflow:visible;"/>
		
			<use xlink:href="#circle_back"  width="126.53" height="117.84" x="-63.26" y="-58.92" transform="matrix(0.3827 -0.9239 -0.9239 -0.3827 413.7419 471.3001)" style="overflow:visible;"/>
		
			<use xlink:href="#circle_back"  width="126.53" height="117.84" x="-63.26" y="-58.92" transform="matrix(0.9239 -0.3827 -0.3827 -0.9239 471.3002 413.7419)" style="overflow:visible;"/>
	</g>
	<g>
		
			<use xlink:href="#circle_leaf"  width="71.93" height="139.41" id="XMLID_13_" x="-35.97" y="-69.71" transform="matrix(1 0 0 -1 512 416.4441)" style="overflow:visible;"/>
		
			<use xlink:href="#circle_leaf"  width="71.93" height="139.41" x="-35.97" y="-69.71" transform="matrix(0.7071 0.7071 0.7071 -0.7071 579.5682 444.4318)" style="overflow:visible;"/>
		
			<use xlink:href="#circle_leaf"  width="71.93" height="139.41" x="-35.97" y="-69.71" transform="matrix(4.489700e-11 1 1 -4.489700e-11 607.5559 512)" style="overflow:visible;"/>
		
			<use xlink:href="#circle_leaf"  width="71.93" height="139.41" x="-35.97" y="-69.71" transform="matrix(-0.7071 0.7071 0.7071 0.7071 579.5682 579.5682)" style="overflow:visible;"/>
		
			<use xlink:href="#circle_leaf"  width="71.93" height="139.41" x="-35.97" y="-69.71" transform="matrix(-1 0 0 1 512 607.5559)" style="overflow:visible;"/>
		
			<use xlink:href="#circle_leaf"  width="71.93" height="139.41" x="-35.97" y="-69.71" transform="matrix(-0.7071 -0.7071 -0.7071 0.7071 444.4317 579.5682)" style="overflow:visible;"/>
		
			<use xlink:href="#circle_leaf"  width="71.93" height="139.41" x="-35.97" y="-69.71" transform="matrix(-1.346900e-10 -1 -1 1.346900e-10 416.4441 512)" style="overflow:visible;"/>
		
			<use xlink:href="#circle_leaf"  width="71.93" height="139.41" x="-35.97" y="-69.71" transform="matrix(0.7071 -0.7071 -0.7071 -0.7071 444.4318 444.4318)" style="overflow:visible;"/>
	</g>
	<g>
		
			<use xlink:href="#circle_ring"  width="187.71" height="36.03" id="XMLID_12_" x="-93.85" y="-18.52" transform="matrix(1 0 0 -1 512.0005 354.5593)" style="overflow:visible;"/>
		
			<use xlink:href="#circle_ring"  width="187.71" height="36.03" x="-93.85" y="-18.52" transform="matrix(0.5 0.866 0.866 -0.5 648.3478 433.2801)" style="overflow:visible;"/>
		
			<use xlink:href="#circle_ring"  width="187.71" height="36.03" x="-93.85" y="-18.52" transform="matrix(-0.5 0.866 0.866 0.5 648.3474 590.7208)" style="overflow:visible;"/>
		
			<use xlink:href="#circle_ring"  width="187.71" height="36.03" x="-93.85" y="-18.52" transform="matrix(-1 0 0 1 511.9995 669.4407)" style="overflow:visible;"/>
		
			<use xlink:href="#circle_ring"  width="187.71" height="36.03" x="-93.85" y="-18.52" transform="matrix(-0.5 -0.866 -0.866 0.5 375.6521 590.7199)" style="overflow:visible;"/>
		
			<use xlink:href="#circle_ring"  width="187.71" height="36.03" x="-93.85" y="-18.52" transform="matrix(0.5 -0.866 -0.866 -0.5 375.6526 433.2792)" style="overflow:visible;"/>
	</g>
	
		<use xlink:href="#center_core"  width="107.46" height="107.46" id="XMLID_16_" x="-53.73" y="-53.73" transform="matrix(1 0 0 -1 512 512)" style="overflow:visible;"/>
</g>
<g id="outer">
	<g>
		
			<use xlink:href="#outer_flare"  width="171.63" height="307.89" id="XMLID_11_" x="-85.81" y="-153.62" transform="matrix(0.9659 0.2588 0.2588 -0.9659 596.7332 195.7715)" style="overflow:visible;"/>
		
			<use xlink:href="#outer_flare"  width="171.63" height="307.89" x="-85.81" y="-153.62" transform="matrix(0.7071 0.7071 0.7071 -0.7071 743.4953 280.5047)" style="overflow:visible;"/>
		
			<use xlink:href="#outer_flare"  width="171.63" height="307.89" x="-85.81" y="-153.62" transform="matrix(0.2588 0.9659 0.9659 -0.2588 828.2285 427.2668)" style="overflow:visible;"/>
		
			<use xlink:href="#outer_flare"  width="171.63" height="307.89" x="-85.81" y="-153.62" transform="matrix(-0.2588 0.9659 0.9659 0.2588 828.2285 596.7332)" style="overflow:visible;"/>
		
			<use xlink:href="#outer_flare"  width="171.63" height="307.89" x="-85.81" y="-153.62" transform="matrix(-0.7071 0.7071 0.7071 0.7071 743.4953 743.4953)" style="overflow:visible;"/>
		
			<use xlink:href="#outer_flare"  width="171.63" height="307.89" x="-85.81" y="-153.62" transform="matrix(-0.9659 0.2588 0.2588 0.9659 596.7332 828.2285)" style="overflow:visible;"/>
		
			<use xlink:href="#outer_flare"  width="171.63" height="307.89" x="-85.81" y="-153.62" transform="matrix(-0.9659 -0.2588 -0.2588 0.9659 427.2668 828.2285)" style="overflow:visible;"/>
		
			<use xlink:href="#outer_flare"  width="171.63" height="307.89" x="-85.81" y="-153.62" transform="matrix(-0.7071 -0.7071 -0.7071 0.7071 280.5047 743.4953)" style="overflow:visible;"/>
		
			<use xlink:href="#outer_flare"  width="171.63" height="307.89" x="-85.81" y="-153.62" transform="matrix(-0.2588 -0.9659 -0.9659 0.2588 195.7715 596.7332)" style="overflow:visible;"/>
		
			<use xlink:href="#outer_flare"  width="171.63" height="307.89" x="-85.81" y="-153.62" transform="matrix(0.2588 -0.9659 -0.9659 -0.2588 195.7715 427.2668)" style="overflow:visible;"/>
		
			<use xlink:href="#outer_flare"  width="171.63" height="307.89" x="-85.81" y="-153.62" transform="matrix(0.7071 -0.7071 -0.7071 -0.7071 280.5047 280.5047)" style="overflow:visible;"/>
		
			<use xlink:href="#outer_flare"  width="171.63" height="307.89" id="XMLID_17_" x="-85.81" y="-153.62" transform="matrix(0.9659 -0.2588 -0.2588 -0.9659 427.2668 195.7715)" style="overflow:visible;"/>
	</g>
	<g>
		
			<use xlink:href="#outer_leaf"  width="131.49" height="257.14" id="XMLID_10_" x="-65.75" y="-128.27" transform="matrix(1 0 0 -1 512 209.9578)" style="overflow:visible;"/>
		
			<use xlink:href="#outer_leaf"  width="131.49" height="257.14" x="-65.75" y="-128.27" transform="matrix(0.866 0.5 0.5 -0.866 663.0211 250.4238)" style="overflow:visible;"/>
		
			<use xlink:href="#outer_leaf"  width="131.49" height="257.14" x="-65.75" y="-128.27" transform="matrix(0.5 0.866 0.866 -0.5 773.5762 360.9789)" style="overflow:visible;"/>
		
			<use xlink:href="#outer_leaf"  width="131.49" height="257.14" x="-65.75" y="-128.27" transform="matrix(4.489700e-11 1 1 -4.489700e-11 814.0422 512)" style="overflow:visible;"/>
		
			<use xlink:href="#outer_leaf"  width="131.49" height="257.14" x="-65.75" y="-128.27" transform="matrix(-0.5 0.866 0.866 0.5 773.5762 663.0211)" style="overflow:visible;"/>
		
			<use xlink:href="#outer_leaf"  width="131.49" height="257.14" x="-65.75" y="-128.27" transform="matrix(-0.866 0.5 0.5 0.866 663.0211 773.5762)" style="overflow:visible;"/>
		
			<use xlink:href="#outer_leaf"  width="131.49" height="257.14" x="-65.75" y="-128.27" transform="matrix(-1 0 0 1 512 814.0422)" style="overflow:visible;"/>
		
			<use xlink:href="#outer_leaf"  width="131.49" height="257.14" x="-65.75" y="-128.27" transform="matrix(-0.866 -0.5 -0.5 0.866 360.9789 773.5762)" style="overflow:visible;"/>
		
			<use xlink:href="#outer_leaf"  width="131.49" height="257.14" x="-65.75" y="-128.27" transform="matrix(-0.5 -0.866 -0.866 0.5 250.4238 663.0211)" style="overflow:visible;"/>
		
			<use xlink:href="#outer_leaf"  width="131.49" height="257.14" x="-65.75" y="-128.27" transform="matrix(-1.346900e-10 -1 -1 1.346900e-10 209.9578 512)" style="overflow:visible;"/>
		
			<use xlink:href="#outer_leaf"  width="131.49" height="257.14" x="-65.75" y="-128.27" transform="matrix(0.5 -0.866 -0.866 -0.5 250.4238 360.9789)" style="overflow:visible;"/>
		
			<use xlink:href="#outer_leaf"  width="131.49" height="257.14" x="-65.75" y="-128.27" transform="matrix(0.866 -0.5 -0.5 -0.866 360.9789 250.4238)" style="overflow:visible;"/>
	</g>
</g>
</svg>
