<svg id="BI-type_M" xmlns="http://www.w3.org/2000/svg" viewBox="0 0 384 115.5">
  <defs>
    <style>
      #BG{fill:url(#G_BG)}#comicsresearch,#leegyuho{fill:#fff}
    </style>
    <linearGradient id="G_BG" y1="96" x2="384" y2="96" gradientUnits="userSpaceOnUse"><stop offset="0" stop-color="#ff4a16"/><stop offset=".3" stop-color="#ea2400"/><stop offset=".7" stop-color="#ea2400"/><stop offset="1" stop-color="#ff4a16"/></linearGradient>
  </defs>
  <path id="BG" d="M0 76.5h384v39H0z"/>
  <path id="comicsresearch" d="M11.41 92.25c-.26 1.22-.39 2.4-.39 3.53s.14 2.32.43 3.57c.28 1.25.67 2.36 1.16 3.33.49.97 1.15 1.73 1.98 2.29.83.55 1.66.83 2.48.83.6 0 1.2-.07 1.81-.2.61-.13 1.24-.33 1.88-.59.26-.13.43-.17.5-.12.08.05.12.16.12.32l.12 3.03c.03.24.01.41-.04.53-.05.12-.18.22-.39.3-.6.21-1.22.41-1.88.59-.66.18-1.4.28-2.23.28-1.35 0-2.68-.36-4-1.08-1.32-.72-2.45-1.76-3.38-3.11-.93-1.35-1.64-2.9-2.12-4.63-.48-1.73-.72-3.51-.72-5.32 0-1.81.24-3.59.72-5.32.48-1.73 1.18-3.24 2.1-4.53.92-1.29 2.04-2.3 3.38-3.03 1.33-.74 2.67-1.1 4.02-1.1.62 0 1.29.06 2 .18s1.43.32 2.15.61c.21.08.33.17.37.28.04.11.04.29.02.55l-.04 3c0 .37-.05.56-.16.57-.1.01-.29-.03-.54-.14-1.19-.6-2.46-.91-3.8-.91-.91 0-1.75.26-2.52.77-.78.51-1.41 1.26-1.9 2.25-.5.95-.87 2.05-1.13 3.27zm36.82 1.52c.08 1.18.12 1.92.12 2.21 0 1.63-.17 3.4-.5 5.32-.34 1.92-.83 3.53-1.49 4.85-.66 1.31-1.48 2.32-2.47 3.01-.98.7-2.17 1.04-3.57 1.04-2.77 0-4.81-1.35-6.13-4.06-1.32-2.71-1.98-6.1-1.98-10.17 0-.87.1-2.2.29-4 .19-1.8.6-3.47 1.2-5.01.61-1.54 1.44-2.79 2.48-3.76 1.05-.97 2.43-1.46 4.13-1.46 1.09 0 2.06.23 2.91.69.85.46 1.58 1.08 2.17 1.85.6.78 1.08 1.67 1.46 2.7.37 1.02.68 2.12.91 3.27.23 1.17.39 2.34.47 3.52zm-3.89 2.21c0-1.26-.1-2.6-.29-4.02-.19-1.42-.47-2.57-.83-3.45-.36-.88-.8-1.52-1.3-1.93-.5-.41-1.05-.61-1.65-.61-.62 0-1.18.2-1.69.61-.5.41-.94 1.05-1.3 1.93-.36.88-.64 2.03-.83 3.45-.19 1.42-.29 2.76-.29 4.02 0 1.29.1 2.64.29 4.06.19 1.42.47 2.57.83 3.45.36.88.8 1.52 1.3 1.93.5.41 1.07.61 1.69.61.6 0 1.15-.2 1.65-.61s.94-1.05 1.3-1.93c.36-.88.64-2.03.83-3.45.2-1.42.29-2.77.29-4.06zm28.9-13.8h-4.62c-.18 0-.29.03-.33.1-.04.07-.1.19-.17.37l-1.59 13.2-.31 4.06-.35-4.06-1.71-13.2c-.08-.18-.14-.31-.17-.37-.04-.07-.15-.1-.33-.1h-4.54c-.41 0-.66.05-.74.14-.08.09-.12.32-.12.69v26.09c0 .29.16.43.47.43h2.99c.21 0 .34-.03.39-.1.05-.07.08-.18.08-.33l-.35-18.05v-3.31l.39 3.31 2.17 15.21c.05.13.11.21.17.24.06.03.23.04.49.04h2.48c.26 0 .42-.01.49-.04.06-.03.12-.1.17-.24l1.94-15.21.39-3.31v3.31l-.35 18.05c0 .16.03.27.08.33.05.07.18.1.39.1h2.99c.31 0 .47-.14.47-.43V83.01c0-.37-.04-.6-.12-.69-.09-.09-.34-.14-.75-.14zm25.09 23.22h-4.08V86.32h3.49c.31 0 .47-.17.47-.51v-3.15c0-.13-.05-.24-.14-.33a.453.453 0 0 0-.33-.14H86.38c-.13 0-.24.05-.33.14-.09.09-.14.2-.14.33v3.15c0 .16.04.28.14.37.09.09.2.14.33.14h3.49v19.08h-4.08c-.13 0-.24.05-.33.14a.46.46 0 0 0-.14.34v3.15c0 .16.04.28.14.37.09.09.2.14.33.14h12.54c.31 0 .47-.17.47-.51v-3.15c0-.13-.05-.24-.14-.34-.09-.1-.2-.14-.33-.14zm17.84-16.46c.49-.99 1.13-1.73 1.9-2.25.78-.51 1.62-.77 2.52-.77 1.35 0 2.61.3 3.8.91.26.11.44.15.54.14.1-.01.16-.2.16-.57l.04-3c.03-.26.02-.45-.02-.55-.04-.1-.16-.2-.37-.28-.72-.29-1.44-.49-2.15-.61s-1.38-.18-2-.18c-1.35 0-2.69.37-4.02 1.1a10.29 10.29 0 0 0-3.38 3.03c-.92 1.29-1.62 2.8-2.1 4.53-.48 1.73-.72 3.51-.72 5.32 0 1.81.24 3.59.72 5.32.48 1.73 1.18 3.28 2.12 4.63.93 1.35 2.06 2.39 3.38 3.11 1.32.72 2.65 1.08 4 1.08.83 0 1.57-.09 2.23-.28.66-.18 1.29-.38 1.88-.59.21-.08.34-.18.39-.3.05-.12.06-.3.04-.53l-.12-3.03c0-.16-.04-.26-.12-.32-.08-.05-.25-.01-.5.12-.65.26-1.28.46-1.88.59-.61.13-1.21.2-1.81.2-.83 0-1.66-.28-2.48-.83-.83-.55-1.49-1.31-1.98-2.29-.49-.97-.88-2.08-1.16-3.33a15.79 15.79 0 0 1-.43-3.57c0-1.13.13-2.31.39-3.53.26-1.18.63-2.28 1.13-3.27zm34.06 9.15c-.6-.67-1.37-1.36-2.33-2.07-.96-.71-2.16-1.55-3.61-2.52-1.27-.84-2.16-1.59-2.68-2.25-.52-.66-.78-1.3-.78-1.93 0-.97.29-1.79.87-2.44.58-.66 1.46-1.06 2.62-1.22.36-.03.74-.03 1.13 0 .39.03.8.08 1.22.16.43.08.85.18 1.26.3.41.12.82.22 1.2.3.31.11.52.11.64 0 .12-.1.21-.28.29-.51l.47-2.52c.03-.21.02-.36-.02-.45-.04-.09-.2-.2-.49-.34-.62-.18-1.36-.36-2.21-.53-.85-.17-1.81-.26-2.87-.26-1.29 0-2.41.18-3.36.55-.95.37-1.81.9-2.58 1.6-.78.7-1.4 1.49-1.86 2.38-.47.89-.7 1.81-.7 2.76 0 .89.16 1.71.49 2.44.32.74.82 1.46 1.49 2.19.67.72 1.53 1.45 2.56 2.17s2.11 1.46 3.22 2.23c.83.58 1.57 1.24 2.21 1.99.65.75.97 1.57.97 2.46 0 .92-.26 1.71-.78 2.36-.52.66-1.32 1.09-2.41 1.3-.57.13-1.14.18-1.71.16-.57-.03-1.18-.09-1.84-.2-.66-.1-1.28-.25-1.86-.43-.58-.18-1-.33-1.26-.43-.31-.13-.51-.17-.6-.12-.09.05-.16.17-.21.35l-.27 2.72c-.05.29-.04.47.04.55.08.08.31.2.7.35.28.13.7.26 1.26.39s1.18.26 1.88.39 1.35.22 1.96.26c.61.04 1.22.03 1.84-.02.88-.05 1.83-.32 2.85-.79 1.02-.47 1.87-1.04 2.54-1.69 1.5-1.5 2.25-3.31 2.25-5.44 0-.79-.11-1.52-.33-2.19-.2-.67-.61-1.34-1.2-2.01zm45.99 10.97c.21.32.06.47-.43.47h-3.34c-.29 0-.48-.01-.58-.04-.1-.03-.22-.13-.35-.32l-5.4-10.4h-2.45v10.33c0 .29-.17.43-.5.43h-3.3c-.31 0-.47-.14-.47-.43V82.62c0-.13.04-.24.14-.32.09-.08.2-.12.33-.12h5.78c2.85 0 5.03.77 6.56 2.31 1.53 1.54 2.29 3.51 2.29 5.93 0 1.76-.39 3.28-1.18 4.55a7.435 7.435 0 0 1-3.2 2.86l6.1 11.23zm-7.26-15.43c.8-.7 1.2-1.75 1.2-3.17 0-1.44-.38-2.5-1.13-3.15-.75-.66-1.73-.99-2.95-.99h-2.41v8.36h1.9c1.46 0 2.59-.35 3.39-1.05zm30.84 11.77h-9.74v-7.8h8.77c.39 0 .58-.22.58-.67v-2.84c0-.42-.19-.63-.58-.63h-8.77v-7.13h9.28c.23 0 .39-.05.47-.14.08-.09.12-.27.12-.53v-2.84c0-.24-.03-.4-.08-.49-.05-.09-.22-.14-.5-.14h-12.54c-.49 0-.78.05-.87.14-.09.09-.14.4-.14.93v25.14c0 .58.05.91.16 1.01.1.09.41.14.93.14h12.93c.36 0 .54-.21.54-.63v-2.84c-.02-.46-.2-.68-.56-.68zm25.29-7.31c-.6-.67-1.37-1.36-2.33-2.07-.96-.71-2.16-1.55-3.61-2.52-1.27-.84-2.16-1.59-2.68-2.25-.52-.66-.78-1.3-.78-1.93 0-.97.29-1.79.87-2.44.58-.66 1.46-1.06 2.62-1.22.36-.03.74-.03 1.13 0 .39.03.8.08 1.22.16.43.08.85.18 1.26.3.41.12.82.22 1.2.3.31.11.52.11.64 0 .12-.1.21-.28.29-.51l.47-2.52c.03-.21.02-.36-.02-.45-.04-.09-.2-.2-.49-.34-.62-.18-1.36-.36-2.21-.53-.85-.17-1.81-.26-2.87-.26-1.29 0-2.41.18-3.36.55-.95.37-1.81.9-2.58 1.6-.78.7-1.4 1.49-1.86 2.38-.47.89-.7 1.81-.7 2.76 0 .89.16 1.71.49 2.44.32.74.82 1.46 1.49 2.19.67.72 1.53 1.45 2.56 2.17s2.11 1.46 3.22 2.23c.83.58 1.57 1.24 2.21 1.99.65.75.97 1.57.97 2.46 0 .92-.26 1.71-.78 2.36-.52.66-1.32 1.09-2.41 1.3-.57.13-1.14.18-1.71.16-.57-.03-1.18-.09-1.84-.2-.66-.1-1.28-.25-1.86-.43-.58-.18-1-.33-1.26-.43-.31-.13-.51-.17-.6-.12-.09.05-.16.17-.21.35l-.27 2.72c-.05.29-.04.47.04.55.08.08.31.2.7.35.28.13.7.26 1.26.39s1.18.26 1.88.39 1.35.22 1.96.26c.61.04 1.22.03 1.84-.02.88-.05 1.83-.32 2.85-.79 1.02-.47 1.87-1.04 2.54-1.69 1.5-1.5 2.25-3.31 2.25-5.44 0-.79-.11-1.52-.33-2.19-.2-.67-.61-1.34-1.2-2.01zm26.52 7.31h-9.74v-7.8h8.77c.39 0 .58-.22.58-.67v-2.84c0-.42-.19-.63-.58-.63h-8.77v-7.13h9.28c.23 0 .39-.05.47-.14.08-.09.12-.27.12-.53v-2.84c0-.24-.03-.4-.08-.49-.05-.09-.22-.14-.5-.14h-12.54c-.49 0-.78.05-.87.14-.09.09-.14.4-.14.93v25.14c0 .58.05.91.16 1.01.1.09.41.14.93.14h12.93c.36 0 .54-.21.54-.63v-2.84c-.01-.46-.19-.68-.56-.68zm28.09 3.47c.13.45-.03.67-.47.67h-3.07c-.16 0-.27-.03-.35-.1-.08-.07-.16-.26-.23-.57l-1.59-6.82h-6.79l-1.59 6.82c-.05.37-.12.57-.19.61-.08.04-.21.06-.39.06h-3.07c-.47 0-.62-.22-.47-.67l6.68-26.25c.08-.21.14-.33.17-.37.04-.04.19-.06.45-.06h3.61c.23 0 .37.02.43.06.05.04.12.16.19.37l6.68 26.25zm-6.68-10.96l-2.45-10.92-2.45 10.92h4.9zm32.74 11.15c.21.32.06.47-.43.47h-3.34c-.29 0-.48-.01-.58-.04-.1-.03-.22-.13-.35-.32l-5.4-10.4h-2.45v10.33c0 .29-.17.43-.5.43h-3.3c-.31 0-.47-.14-.47-.43V82.62c0-.13.05-.24.14-.32.09-.08.2-.12.33-.12h5.78c2.85 0 5.03.77 6.56 2.31 1.53 1.54 2.29 3.51 2.29 5.93 0 1.76-.39 3.28-1.18 4.55a7.435 7.435 0 0 1-3.2 2.86l6.1 11.23zm-7.26-15.43c.8-.7 1.2-1.75 1.2-3.17 0-1.44-.38-2.5-1.13-3.15-.75-.66-1.73-.99-2.95-.99h-2.41v8.36h1.9c1.46 0 2.59-.35 3.39-1.05zm22.06-4.69c.49-.99 1.13-1.73 1.9-2.25.78-.51 1.62-.77 2.52-.77 1.35 0 2.61.3 3.8.91.26.11.44.15.54.14.1-.01.16-.2.16-.57l.04-3c.03-.26.02-.45-.02-.55-.04-.1-.16-.2-.37-.28-.72-.29-1.44-.49-2.15-.61s-1.38-.18-2-.18c-1.35 0-2.69.37-4.02 1.1a10.29 10.29 0 0 0-3.38 3.03c-.92 1.29-1.62 2.8-2.1 4.53-.48 1.73-.72 3.51-.72 5.32 0 1.81.24 3.59.72 5.32.48 1.73 1.18 3.28 2.12 4.63.93 1.35 2.06 2.39 3.38 3.11 1.32.72 2.65 1.08 4 1.08.83 0 1.57-.09 2.23-.28.66-.18 1.29-.38 1.88-.59.21-.08.34-.18.39-.3.05-.12.06-.3.04-.53l-.12-3.03c0-.16-.04-.26-.12-.32-.08-.05-.25-.01-.5.12-.65.26-1.28.46-1.88.59-.61.13-1.21.2-1.81.2-.83 0-1.66-.28-2.48-.83-.83-.55-1.49-1.31-1.98-2.29-.49-.97-.88-2.08-1.16-3.33a15.79 15.79 0 0 1-.43-3.57c0-1.13.13-2.31.39-3.53.27-1.18.64-2.28 1.13-3.27zm35.05-6.62a.453.453 0 0 0-.33-.14h-3.38c-.13 0-.24.05-.33.14-.09.09-.14.2-.14.33V93.3h-6.33V82.66c0-.13-.05-.24-.14-.33a.453.453 0 0 0-.33-.14h-3.38c-.13 0-.24.05-.33.14-.09.09-.14.2-.14.33v26.41c0 .13.05.24.14.33.09.09.2.14.33.14h3.38c.31 0 .47-.16.47-.47V97.44h6.33v11.63c0 .32.16.47.47.47h3.38c.13 0 .24-.05.33-.14.09-.09.14-.2.14-.33V82.66c0-.13-.05-.25-.14-.34z"/>
  <path id="leegyuho" d="M26.71 58.58h15.78v5.83H28.67c-2.12 0-3.81-.04-5.01-.12-1.16-.08-2.65-.4-4.42-.97-1.72-.55-3.18-1.37-4.34-2.45a12.518 12.518 0 0 1-3.56-6.41c-.56-2.57-.85-5.64-.85-9.13V7.58h5.88v37.58c0 3.3.36 5.94 1.07 7.86 1.49 3.69 4.61 5.56 9.27 5.56zM62.48 8.31c-1.95.47-3.73 1.49-5.3 3.05-2.3 2.34-3.47 5.5-3.47 9.39v43.67h31.32v-5.83H59.59V37.92H79.3v-5.83H59.59V21.83c0-3.84 1.63-8.42 9.39-8.42h16.05V7.58H70c-2.96 0-5.49.25-7.52.73zm43.32 0c-1.95.47-3.73 1.49-5.3 3.05-2.3 2.34-3.47 5.5-3.47 9.39v43.67h31.32v-5.83h-25.44V37.92h19.71v-5.83h-19.71V21.83c0-3.84 1.63-8.42 9.39-8.42h16.05V7.58h-15.03c-2.96 0-5.49.25-7.52.73zm56.54 31.27h8.09v19h-6.4c-5.86 0-9.98-1.98-13.37-6.42-3.2-4.19-4.88-9.63-4.98-16.15.11-6.55 1.78-11.98 4.98-16.18 3.39-4.44 7.51-6.42 13.37-6.42h9.22V7.58h-8.28c-7.99 0-13.92 2.35-18.67 7.39-4.63 4.92-7.01 11.99-7.06 21.03.05 9.03 2.42 16.11 7.06 21.02 4.75 5.04 10.68 7.39 18.67 7.39h11.34V33.75h-13.97v5.83zM215.72 11c0 11.87-3.57 20.4-10.6 25.36l-.43.3-.43-.29c-3.93-2.69-6.74-6.18-8.33-10.4-1.57-4.15-2.36-9.19-2.36-14.97V7.58h-6.04v4.17c0 6.53 1.22 12.58 3.63 17.99 2.39 5.37 5.83 9.5 10.24 12.3l.35.22v22.16h5.88V42.09l.34-.22c4.4-2.85 7.81-7.06 10.12-12.54 2.33-5.52 3.51-11.69 3.51-18.33V7.58h-5.88V11zm49.21 36.92c0 4.01-1.21 6.97-3.59 8.8-2.32 1.79-5.43 2.7-9.25 2.7-3.72 0-6.76-.91-9.06-2.7-2.35-1.83-3.55-4.8-3.55-8.8V7.58h-5.88v39.25c0 6.37 1.53 11.08 4.56 14 3.03 2.93 7.74 4.41 14 4.41s10.99-1.49 14.05-4.42c3.05-2.92 4.6-7.63 4.6-14V7.58h-5.88v40.34zm51.1-15.84h-25.37V7.58h-5.88v56.83h5.88v-26.5h25.37v26.5h5.88V7.58h-5.88v24.5zM378 36.24c-.05 4.52-.6 8.63-1.66 12.21-1.05 3.56-2.55 6.62-4.46 9.09-1.9 2.45-4.22 4.37-6.88 5.7-2.67 1.33-5.68 2-8.95 2-3.27 0-6.28-.67-8.95-2-2.67-1.33-4.98-3.25-6.88-5.7-1.91-2.47-3.41-5.53-4.46-9.09-1.06-3.58-1.62-7.69-1.66-12.2.04-4.52.61-8.65 1.69-12.29 1.07-3.62 2.59-6.75 4.5-9.31 1.9-2.53 4.2-4.51 6.85-5.87 2.64-1.36 5.64-2.04 8.9-2.04 3.22 0 6.21.69 8.87 2.04 2.67 1.36 4.98 3.33 6.88 5.86 1.92 2.56 3.43 5.69 4.5 9.3 1.09 3.66 1.66 7.8 1.71 12.3zm-5.47 0c-.05-3.15-.44-6.18-1.16-9.01-.73-2.84-1.81-5.37-3.2-7.51-1.41-2.16-3.15-3.91-5.16-5.18-2.05-1.29-4.39-1.95-6.96-1.95-2.57 0-4.91.66-6.96 1.95-2.02 1.28-3.75 3.02-5.16 5.18-1.4 2.14-2.47 4.67-3.2 7.51-.73 2.82-1.12 5.85-1.16 9.03.05 3.21.44 6.24 1.16 9.01.73 2.79 1.81 5.25 3.21 7.31 1.41 2.08 3.15 3.75 5.17 4.97 2.04 1.23 4.38 1.86 6.94 1.86 2.57 0 4.9-.63 6.94-1.86 2.02-1.22 3.75-2.89 5.17-4.97 1.4-2.06 2.48-4.52 3.21-7.31.72-2.76 1.11-5.8 1.16-9.03z"/>
</svg>
