<svg id="BI-type_L" xmlns="http://www.w3.org/2000/svg" viewBox="0 0 512 154">
  <defs>
    <style>
      #BG{fill:url(#G_BG)}#comicsresearch,#leegyuho{fill:#fff}
    </style>
    <linearGradient id="G_BG" y1="128" x2="512" y2="128" gradientUnits="userSpaceOnUse"><stop offset="0" stop-color="#ff4a16"/><stop offset=".3" stop-color="#ea2400"/><stop offset=".7" stop-color="#ea2400"/><stop offset="1" stop-color="#ff4a16"/></linearGradient>
  </defs>
  <path id="BG" d="M0 102h512v52H0z"/>
  <path id="comicsresearch" d="M15.21 123c-.35 1.63-.52 3.2-.52 4.7 0 1.51.19 3.09.57 4.76.38 1.66.9 3.14 1.55 4.44.66 1.3 1.54 2.31 2.64 3.05 1.1.74 2.21 1.1 3.31 1.1.79 0 1.6-.09 2.41-.26s1.65-.44 2.51-.79c.34-.17.57-.23.67-.16.1.07.16.21.16.42l.16 4.05c.03.32.02.55-.05.71-.07.16-.24.29-.52.39-.79.28-1.63.54-2.51.79-.88.24-1.87.37-2.98.37-1.79 0-3.57-.48-5.33-1.44-1.76-.96-3.26-2.35-4.5-4.15-1.24-1.8-2.18-3.86-2.82-6.17-.64-2.32-.96-4.69-.96-7.1 0-2.42.32-4.78.96-7.09.64-2.31 1.57-4.33 2.8-6.04 1.22-1.72 2.73-3.07 4.5-4.05 1.78-.98 3.56-1.47 5.36-1.47.83 0 1.72.08 2.67.24.95.16 1.91.43 2.87.81.28.11.44.23.49.37.05.14.06.39.03.74l-.05 3.99c0 .49-.07.74-.21.76-.14.02-.38-.04-.72-.18-1.59-.81-3.28-1.21-5.07-1.21-1.21 0-2.33.34-3.36 1.02-1.04.68-1.88 1.68-2.54 3-.67 1.3-1.17 2.78-1.52 4.4zm49.09 2.03c.1 1.58.16 2.56.16 2.94 0 2.17-.22 4.54-.67 7.09-.45 2.56-1.11 4.71-1.99 6.46-.88 1.75-1.98 3.09-3.29 4.02-1.31.93-2.9 1.39-4.76 1.39-3.69 0-6.42-1.8-8.18-5.41-1.76-3.61-2.64-8.13-2.64-13.56 0-1.16.13-2.93.39-5.33s.79-4.62 1.6-6.67 1.92-3.72 3.31-5.02c1.4-1.3 3.23-1.94 5.51-1.94 1.45 0 2.74.31 3.88.92 1.14.61 2.1 1.44 2.9 2.47.79 1.03 1.44 2.23 1.94 3.6s.91 2.82 1.22 4.36c.31 1.54.52 3.1.62 4.68zm-5.18 2.94c0-1.68-.13-3.47-.39-5.36-.26-1.89-.63-3.42-1.11-4.6-.48-1.17-1.06-2.03-1.73-2.57-.67-.54-1.41-.81-2.2-.81-.83 0-1.58.27-2.25.81-.67.54-1.25 1.4-1.73 2.57s-.85 2.71-1.11 4.6a39.45 39.45 0 0 0-.39 5.36c0 1.72.13 3.52.39 5.41.26 1.89.63 3.42 1.11 4.6.48 1.17 1.06 2.03 1.73 2.57.67.54 1.42.81 2.25.81.79 0 1.53-.27 2.2-.81.67-.54 1.25-1.4 1.73-2.57s.85-2.71 1.11-4.6c.26-1.89.39-3.69.39-5.41zm38.53-18.39h-6.16c-.24 0-.39.04-.44.13-.05.09-.13.25-.23.5l-2.12 17.6-.41 5.41-.47-5.41-2.28-17.6c-.1-.24-.18-.41-.23-.5-.05-.09-.2-.13-.44-.13h-6.06c-.55 0-.88.06-.98.18-.1.12-.16.43-.16.92v34.79c0 .39.21.58.62.58h3.99c.28 0 .45-.04.52-.13s.1-.24.1-.45l-.47-24.07v-4.41l.52 4.41 2.9 20.28c.07.18.15.28.23.32.09.04.3.05.65.05h3.31c.34 0 .56-.02.65-.05.09-.03.16-.14.23-.32l2.59-20.28.52-4.41v4.41l-.47 24.07c0 .21.03.36.1.45.07.09.24.13.52.13h3.99c.41 0 .62-.19.62-.58v-34.79c0-.49-.05-.8-.16-.92-.1-.12-.43-.18-.98-.18zm33.46 30.95h-5.43V115.1h4.66c.41 0 .62-.23.62-.68v-4.2c0-.17-.06-.32-.18-.45a.604.604 0 0 0-.44-.18h-15.17c-.17 0-.32.06-.44.18a.61.61 0 0 0-.18.45v4.2c0 .21.06.38.18.5s.27.18.44.18h4.66v25.43h-5.43c-.17 0-.32.06-.44.18a.61.61 0 0 0-.18.45v4.2c0 .21.06.38.18.5s.27.18.44.18h16.72c.41 0 .62-.23.62-.68v-4.2c0-.17-.06-.32-.18-.45a.644.644 0 0 0-.45-.18zm23.78-21.94c.66-1.31 1.5-2.31 2.54-3 1.04-.68 2.16-1.02 3.36-1.02 1.79 0 3.48.4 5.07 1.21.34.14.59.2.72.18.14-.02.21-.27.21-.76l.05-3.99c.03-.35.03-.6-.03-.74-.05-.14-.22-.26-.49-.37-.97-.39-1.92-.66-2.87-.81-.95-.16-1.84-.24-2.67-.24-1.79 0-3.58.49-5.36 1.47-1.78.98-3.28 2.33-4.5 4.05-1.23 1.72-2.16 3.73-2.8 6.04-.64 2.31-.96 4.68-.96 7.09 0 2.42.32 4.78.96 7.09.64 2.31 1.58 4.37 2.82 6.17 1.24 1.8 2.74 3.19 4.5 4.15 1.76.96 3.54 1.44 5.33 1.44 1.1 0 2.1-.12 2.98-.37.88-.25 1.72-.51 2.51-.79.28-.11.45-.24.52-.39.07-.16.09-.39.05-.71l-.16-4.05c0-.21-.05-.35-.16-.42-.1-.07-.33-.02-.67.16-.86.35-1.7.61-2.51.79-.81.18-1.61.26-2.41.26-1.1 0-2.21-.37-3.31-1.1-1.1-.74-1.98-1.75-2.64-3.05-.66-1.3-1.17-2.78-1.55-4.44-.38-1.66-.57-3.25-.57-4.76 0-1.51.17-3.07.52-4.7.36-1.6.86-3.08 1.52-4.39zm45.41 12.19c-.79-.89-1.83-1.81-3.11-2.76-1.28-.95-2.88-2.07-4.81-3.36-1.69-1.12-2.88-2.12-3.57-3-.69-.88-1.04-1.73-1.04-2.57 0-1.3.39-2.38 1.16-3.26.78-.88 1.94-1.42 3.49-1.63.48-.03.98-.03 1.5 0 .52.04 1.06.11 1.63.21.57.11 1.13.24 1.68.39.55.16 1.09.29 1.6.39.41.14.7.14.85 0 .16-.14.28-.37.39-.68l.62-3.36c.03-.28.03-.48-.03-.6-.05-.12-.27-.27-.65-.45-.83-.24-1.81-.48-2.95-.71-1.14-.23-2.42-.34-3.83-.34-1.73 0-3.22.25-4.48.74-1.26.49-2.41 1.2-3.44 2.13a11.13 11.13 0 0 0-2.48 3.18c-.62 1.19-.93 2.42-.93 3.68 0 1.19.22 2.28.65 3.26.43.98 1.1 1.95 1.99 2.92.9.96 2.04 1.93 3.42 2.89 1.38.96 2.81 1.95 4.3 2.97 1.1.77 2.09 1.66 2.95 2.65.86 1 1.29 2.09 1.29 3.28 0 1.23-.35 2.28-1.04 3.15-.69.88-1.76 1.45-3.21 1.73-.76.18-1.52.25-2.28.21-.76-.03-1.58-.12-2.46-.26-.88-.14-1.71-.33-2.48-.58-.78-.24-1.34-.44-1.68-.58-.41-.17-.68-.23-.8-.16s-.22.23-.28.47l-.36 3.63c-.07.39-.05.63.05.74.1.11.41.26.93.47.38.17.94.35 1.68.53.74.17 1.58.35 2.51.53.93.17 1.8.29 2.61.34.81.05 1.63.04 2.46-.03 1.17-.07 2.44-.42 3.8-1.05 1.36-.63 2.49-1.38 3.39-2.26 2-2 3-4.41 3-7.25 0-1.05-.15-2.02-.44-2.92-.26-.89-.81-1.79-1.6-2.68zm61.33 14.64c.28.42.09.63-.57.63h-4.45c-.38 0-.64-.02-.78-.05-.14-.04-.29-.18-.47-.42l-7.19-13.87h-3.26v13.77c0 .39-.22.58-.67.58h-4.4c-.41 0-.62-.19-.62-.58v-35.31c0-.17.06-.32.18-.42.12-.11.27-.16.44-.16h7.71c3.8 0 6.71 1.02 8.75 3.07s3.05 4.69 3.05 7.91c0 2.35-.53 4.37-1.58 6.07a9.836 9.836 0 0 1-4.27 3.81l8.13 14.97zm-9.68-20.58c1.07-.93 1.6-2.34 1.6-4.23 0-1.93-.5-3.33-1.5-4.2-1-.88-2.31-1.31-3.93-1.31h-3.21v11.14h2.54c1.93 0 3.43-.47 4.5-1.4zm41.12 15.69h-12.99v-10.4h11.7c.52 0 .78-.3.78-.89v-3.78c0-.56-.26-.84-.78-.84h-11.7v-9.51h12.37c.31 0 .52-.06.62-.18.1-.12.16-.36.16-.71v-3.78c0-.32-.03-.53-.1-.66-.07-.12-.29-.18-.67-.18h-16.72c-.66 0-1.04.06-1.16.18-.12.12-.18.53-.18 1.23v33.53c0 .77.07 1.22.21 1.34.14.12.55.18 1.24.18h17.24c.48 0 .72-.28.72-.84v-3.78c-.02-.61-.26-.91-.74-.91zm33.71-9.75c-.79-.89-1.83-1.81-3.11-2.76-1.28-.95-2.88-2.07-4.81-3.36-1.69-1.12-2.88-2.12-3.57-3-.69-.88-1.04-1.73-1.04-2.57 0-1.3.39-2.38 1.16-3.26.78-.88 1.94-1.42 3.49-1.63.48-.03.98-.03 1.5 0 .52.04 1.06.11 1.63.21.57.11 1.13.24 1.68.39.55.16 1.09.29 1.6.39.41.14.7.14.85 0 .16-.14.28-.37.39-.68l.62-3.36c.03-.28.03-.48-.03-.6-.05-.12-.27-.27-.65-.45-.83-.24-1.81-.48-2.95-.71-1.14-.23-2.42-.34-3.83-.34-1.73 0-3.22.25-4.48.74-1.26.49-2.41 1.2-3.44 2.13a11.13 11.13 0 0 0-2.48 3.18c-.62 1.19-.93 2.42-.93 3.68 0 1.19.22 2.28.65 3.26.43.98 1.09 1.95 1.99 2.92.9.96 2.04 1.93 3.42 2.89 1.38.96 2.81 1.95 4.3 2.97 1.1.77 2.09 1.66 2.95 2.65.86 1 1.29 2.09 1.29 3.28 0 1.23-.35 2.28-1.04 3.15-.69.88-1.76 1.45-3.21 1.73-.76.18-1.52.25-2.28.21-.76-.03-1.58-.12-2.46-.26-.88-.14-1.71-.33-2.48-.58-.78-.24-1.34-.44-1.68-.58-.41-.17-.68-.23-.8-.16s-.22.23-.28.47l-.36 3.63c-.07.39-.05.63.05.74.1.11.41.26.93.47.38.17.94.35 1.68.53.74.17 1.58.35 2.51.53.93.17 1.8.29 2.61.34.81.05 1.63.04 2.46-.03 1.17-.07 2.44-.42 3.8-1.05 1.36-.63 2.49-1.38 3.39-2.26 2-2 3-4.41 3-7.25 0-1.05-.15-2.02-.44-2.92-.26-.89-.81-1.79-1.6-2.68zm35.37 9.75h-12.99v-10.4h11.7c.52 0 .78-.3.78-.89v-3.78c0-.56-.26-.84-.78-.84h-11.7v-9.51h12.37c.31 0 .52-.06.62-.18.1-.12.16-.36.16-.71v-3.78c0-.32-.03-.53-.1-.66-.07-.12-.29-.18-.67-.18h-16.72c-.66 0-1.04.06-1.16.18-.12.12-.18.53-.18 1.23v33.53c0 .77.07 1.22.21 1.34.14.12.55.18 1.24.18h17.24c.48 0 .72-.28.72-.84v-3.78c-.01-.61-.25-.91-.74-.91zm37.44 4.62c.17.6-.03.89-.62.89h-4.09c-.21 0-.36-.04-.47-.13-.1-.09-.21-.34-.31-.76l-2.12-9.09h-9.06l-2.12 9.09c-.07.49-.16.76-.26.81-.1.05-.28.08-.52.08h-4.09c-.62 0-.83-.3-.62-.89l8.9-35c.1-.28.18-.45.23-.5.05-.05.25-.08.6-.08h4.81c.31 0 .5.03.57.08.07.05.16.22.26.5l8.91 35zm-8.9-14.61l-3.26-14.56-3.26 14.56h6.52zm43.66 14.88c.28.42.09.63-.57.63h-4.45c-.38 0-.64-.02-.78-.05-.14-.04-.29-.18-.47-.42l-7.19-13.87h-3.26v13.77c0 .39-.22.58-.67.58h-4.4c-.41 0-.62-.19-.62-.58v-35.31c0-.17.06-.32.18-.42.12-.11.27-.16.44-.16h7.71c3.8 0 6.71 1.02 8.75 3.07s3.05 4.69 3.05 7.91c0 2.35-.53 4.37-1.58 6.07a9.836 9.836 0 0 1-4.27 3.81l8.13 14.97zm-9.68-20.58c1.07-.93 1.6-2.34 1.6-4.23 0-1.93-.5-3.33-1.5-4.2-1-.88-2.31-1.31-3.93-1.31h-3.21v11.14h2.54c1.93 0 3.43-.47 4.5-1.4zm29.42-6.25c.66-1.31 1.5-2.31 2.54-3 1.04-.68 2.16-1.02 3.36-1.02 1.79 0 3.49.4 5.07 1.21.34.14.59.2.72.18.14-.02.21-.27.21-.76l.05-3.99c.03-.35.03-.6-.03-.74-.05-.14-.22-.26-.49-.37-.97-.39-1.92-.66-2.87-.81-.95-.16-1.84-.24-2.67-.24-1.79 0-3.58.49-5.36 1.47-1.78.98-3.28 2.33-4.5 4.05-1.23 1.72-2.16 3.73-2.8 6.04-.64 2.31-.96 4.68-.96 7.09 0 2.42.32 4.78.96 7.09.64 2.31 1.58 4.37 2.82 6.17 1.24 1.8 2.74 3.19 4.5 4.15 1.76.96 3.54 1.44 5.33 1.44 1.1 0 2.1-.12 2.98-.37.88-.25 1.72-.51 2.51-.79.28-.11.45-.24.52-.39.07-.16.09-.39.05-.71l-.16-4.05c0-.21-.05-.35-.16-.42-.1-.07-.33-.02-.67.16-.86.35-1.7.61-2.51.79-.81.18-1.61.26-2.41.26-1.1 0-2.21-.37-3.31-1.1-1.1-.74-1.98-1.75-2.64-3.05-.66-1.3-1.17-2.78-1.55-4.44-.38-1.66-.57-3.25-.57-4.76 0-1.51.17-3.07.52-4.7.36-1.6.86-3.08 1.52-4.39zm46.73-8.83a.604.604 0 0 0-.44-.18h-4.5c-.17 0-.32.06-.44.18a.61.61 0 0 0-.18.45v14.19h-8.44v-14.19c0-.17-.06-.32-.18-.45a.604.604 0 0 0-.44-.18h-4.5c-.17 0-.32.06-.44.18a.61.61 0 0 0-.18.45v35.21c0 .17.06.32.18.45.12.12.27.18.44.18h4.5c.41 0 .62-.21.62-.63v-15.5h8.44v15.5c0 .42.21.63.62.63h4.5c.17 0 .32-.06.44-.18a.61.61 0 0 0 .18-.45v-35.21c0-.18-.06-.32-.18-.45z"/>
  <path id="leegyuho" d="M35.61 78.11h21.04v7.78H38.23c-2.83 0-5.08-.06-6.69-.16-1.55-.11-3.53-.54-5.89-1.29-2.29-.73-4.24-1.83-5.78-3.26-2.43-2.37-4.02-5.24-4.75-8.55C14.38 69.19 14 65.1 14 60.44V10.11h7.84v50.11c0 4.4.48 7.92 1.43 10.48 1.98 4.92 6.13 7.41 12.34 7.41zM83.3 11.08c-2.6.62-4.97 1.99-7.06 4.07-3.07 3.12-4.63 7.33-4.63 12.51v58.22h41.76V78.1H79.46V50.56h26.28v-7.78H79.46V29.11c0-5.12 2.17-11.22 12.52-11.22h21.4v-7.78H93.33c-3.95 0-7.32.33-10.03.97zm57.77 0c-2.6.62-4.98 1.99-7.06 4.07-3.07 3.12-4.63 7.33-4.63 12.51v58.22h41.76V78.1h-33.92V50.56h26.28v-7.78h-26.28V29.11c0-5.12 2.17-11.22 12.52-11.22h21.4v-7.78H151.1c-3.95 0-7.33.33-10.03.97zm75.39 41.7h10.78v25.33h-8.54c-7.81 0-13.31-2.64-17.83-8.56-4.27-5.59-6.5-12.84-6.64-21.54.14-8.73 2.38-15.97 6.64-21.57 4.51-5.92 10.01-8.56 17.83-8.56H231V10.1h-11.04c-10.65 0-18.55 3.13-24.89 9.85-6.18 6.56-9.34 15.99-9.41 28.04.07 12.04 3.23 21.47 9.41 28.03 6.33 6.72 14.24 9.85 24.89 9.85h15.12V45h-18.62v7.78zm71.16-38.11c0 15.83-4.76 27.2-14.14 33.82l-.57.4-.57-.39c-5.24-3.58-8.98-8.25-11.1-13.86-2.09-5.53-3.15-12.25-3.15-19.96v-4.56h-8.05v5.56c0 8.71 1.63 16.78 4.83 23.98 3.18 7.15 7.78 12.67 13.65 16.4l.46.29V85.9h7.84V56.12l.46-.3c5.87-3.8 10.41-9.42 13.49-16.72 3.11-7.36 4.69-15.58 4.69-24.44V10.1h-7.84v4.57zm65.62 49.22c0 5.34-1.61 9.29-4.79 11.74-3.1 2.39-7.25 3.6-12.34 3.6-4.95 0-9.02-1.21-12.08-3.6-3.14-2.45-4.73-6.39-4.73-11.73V10.11h-7.84v52.33c0 8.49 2.05 14.77 6.08 18.67 4.04 3.91 10.33 5.89 18.67 5.89 8.35 0 14.65-1.98 18.73-5.89 4.07-3.9 6.13-10.18 6.13-18.67V10.11h-7.84v53.78zm68.13-21.11h-33.83V10.11h-7.84v75.78h7.84V50.56h33.83v35.33h7.84V10.11h-7.84v32.67zM504 48.32c-.06 6.03-.81 11.5-2.21 16.28-1.4 4.75-3.4 8.82-5.95 12.11-2.53 3.27-5.62 5.83-9.18 7.61-3.56 1.78-7.57 2.68-11.93 2.68-4.36 0-8.37-.9-11.93-2.67-3.56-1.77-6.65-4.33-9.18-7.61-2.55-3.29-4.55-7.37-5.95-12.11-1.41-4.78-2.15-10.26-2.21-16.26.06-6.02.82-11.54 2.26-16.39 1.43-4.83 3.45-9 6.01-12.41 2.53-3.38 5.61-6.01 9.13-7.82C466.38 9.92 470.37 9 474.73 9c4.3 0 8.28.92 11.83 2.72 3.56 1.81 6.64 4.44 9.18 7.82 2.55 3.41 4.58 7.58 6.01 12.41 1.43 4.85 2.19 10.37 2.25 16.37zm-7.29 0c-.06-4.21-.58-8.25-1.55-12.01-.98-3.79-2.41-7.16-4.27-10.02-1.88-2.89-4.2-5.21-6.88-6.91-2.73-1.72-5.85-2.6-9.27-2.6-3.43 0-6.55.87-9.28 2.6-2.69 1.7-5 4.03-6.88 6.91-1.86 2.86-3.3 6.23-4.27 10.02-.97 3.77-1.49 7.81-1.55 12.04.06 4.28.58 8.33 1.55 12.02.97 3.72 2.41 7 4.28 9.75 1.88 2.77 4.2 5 6.89 6.63 2.72 1.64 5.84 2.48 9.26 2.48s6.53-.83 9.26-2.48c2.69-1.62 5.01-3.85 6.89-6.63 1.86-2.75 3.3-6.03 4.28-9.75.95-3.7 1.47-7.74 1.54-12.05z"/>
</svg>
