<?xml version="1.0" encoding="utf-8"?>
<!-- Generator: Adobe Illustrator 22.0.0, SVG Export Plug-In . SVG Version: 6.00 Build 0)  -->
<svg version="1.1" id="BI-icon_x5F_M_1_" xmlns="http://www.w3.org/2000/svg" xmlns:xlink="http://www.w3.org/1999/xlink" x="0px"
	 y="0px" viewBox="0 0 208 208" style="enable-background:new 0 0 208 208;" xml:space="preserve">
<path d="M116.26,15.04c4.86-5.99,10.29-10.76,14.51-13.96c0.52-0.4,1.28-0.2,1.53,0.41c2.06,4.88,4.37,11.72,5.58,19.34
	c-6.15,4.18-12.03,9.6-15.98,16.41C121.87,29.37,119.49,21.74,116.26,15.04z M55.14,55.13c-3.92-6.83-5.67-14.63-6.22-22.05
	c-7.21-2.76-14.29-4.18-19.54-4.83c-0.65-0.08-1.2,0.47-1.12,1.12c0.65,5.25,2.07,12.33,4.83,19.54
	C40.52,49.46,48.31,51.21,55.14,55.13z M86.12,37.25c0.02-7.88,2.4-15.5,5.64-22.2C86.9,9.06,81.47,4.29,77.25,1.09
	c-0.52-0.4-1.28-0.2-1.53,0.41c-2.06,4.88-4.37,11.72-5.58,19.34C76.29,25.02,82.17,30.44,86.12,37.25z M152.88,55.13
	c6.83-3.92,14.63-5.67,22.05-6.22c2.76-7.21,4.18-14.29,4.83-19.54c0.08-0.65-0.47-1.2-1.12-1.12c-5.25,0.65-12.33,2.07-19.54,4.83
	C158.55,40.51,156.8,48.3,152.88,55.13z M170.76,86.11c7.88,0.02,15.5,2.4,22.2,5.64c5.99-4.86,10.76-10.29,13.96-14.51
	c0.4-0.52,0.2-1.28-0.41-1.53c-4.88-2.06-11.72-4.37-19.34-5.58C182.99,76.28,177.57,82.16,170.76,86.11z M15.05,91.75
	c6.7-3.23,14.33-5.61,22.2-5.64c-6.81-3.96-12.22-9.83-16.41-15.98c-7.62,1.21-14.46,3.53-19.34,5.58
	c-0.61,0.26-0.81,1.01-0.41,1.53C4.29,81.47,9.06,86.89,15.05,91.75z M152.88,152.87c3.92,6.83,5.67,14.63,6.22,22.05
	c7.21,2.76,14.29,4.18,19.54,4.83c0.65,0.08,1.2-0.47,1.12-1.12c-0.65-5.25-2.07-12.33-4.83-19.54
	C167.5,158.54,159.71,156.79,152.88,152.87z M37.26,121.89c-7.88-0.02-15.5-2.4-22.2-5.64C9.07,121.11,4.3,126.54,1.1,130.76
	c-0.4,0.52-0.2,1.28,0.41,1.53c4.88,2.06,11.72,4.37,19.34,5.58C25.03,131.72,30.45,125.84,37.26,121.89z M192.97,116.25
	c-6.7,3.23-14.33,5.62-22.2,5.64c6.81,3.96,12.22,9.83,16.41,15.98c7.62-1.21,14.46-3.53,19.34-5.58c0.61-0.26,0.81-1.01,0.41-1.53
	C203.73,126.53,198.96,121.11,192.97,116.25z M121.9,170.75c-0.02,7.88-2.4,15.5-5.64,22.2c4.86,5.99,10.29,10.76,14.51,13.96
	c0.52,0.4,1.28,0.2,1.53-0.41c2.06-4.88,4.37-11.72,5.58-19.34C131.73,182.98,125.85,177.56,121.9,170.75z M55.14,152.87
	c-6.83,3.92-14.63,5.67-22.05,6.22c-2.76,7.21-4.18,14.29-4.83,19.54c-0.08,0.65,0.47,1.2,1.12,1.12
	c5.25-0.65,12.33-2.07,19.54-4.83C49.47,167.49,51.22,159.7,55.14,152.87z M86.12,170.75c-3.96,6.81-9.83,12.22-15.98,16.41
	c1.21,7.62,3.53,14.46,5.58,19.34c0.26,0.61,1.01,0.81,1.53,0.41c4.22-3.19,9.64-7.96,14.51-13.96
	C88.53,186.26,86.15,178.63,86.12,170.75z M94.24,46c-3.35-13.74,3.89-28.05,8.93-35.98c0.39-0.62,1.29-0.62,1.68,0
	c5.04,7.93,12.28,22.24,8.93,35.98c-1.25,5.11-5.23,8.34-9.77,8.34C99.47,54.34,95.49,51.11,94.24,46z M128.84,60.99
	c3.93,2.27,9,1.46,12.63-2.34c9.77-10.22,10.65-26.23,10.26-35.62c-0.03-0.73-0.81-1.18-1.46-0.84
	c-8.33,4.35-21.76,13.12-25.72,26.69C123.07,53.93,124.91,58.72,128.84,60.99z M147.02,79.17c2.27,3.93,7.06,5.77,12.11,4.29
	c13.57-3.97,22.34-17.39,26.69-25.72c0.34-0.65-0.11-1.43-0.84-1.46c-9.39-0.4-25.4,0.49-35.62,10.26
	C145.55,70.17,144.75,75.24,147.02,79.17z M153.67,104c0,4.54,3.23,8.52,8.34,9.77c13.74,3.35,28.05-3.89,35.98-8.93
	c0.62-0.39,0.62-1.29,0-1.68c-7.93-5.04-22.24-12.28-35.98-8.93C156.9,95.48,153.67,99.46,153.67,104z M147.02,128.83
	c-2.27,3.93-1.46,9,2.34,12.63c10.22,9.77,26.23,10.65,35.62,10.26c0.73-0.03,1.18-0.81,0.84-1.46
	c-4.35-8.33-13.12-21.76-26.69-25.72C154.08,123.06,149.29,124.9,147.02,128.83z M128.84,147.01c-3.93,2.27-5.77,7.06-4.29,12.11
	c3.97,13.57,17.39,22.34,25.72,26.69c0.65,0.34,1.43-0.11,1.46-0.84c0.4-9.39-0.49-25.4-10.26-35.62
	C137.84,145.54,132.77,144.74,128.84,147.01z M104.01,153.66c-4.54,0-8.52,3.23-9.77,8.34c-3.35,13.74,3.89,28.05,8.93,35.98
	c0.39,0.62,1.29,0.62,1.68,0c5.04-7.93,12.28-22.24,8.93-35.98C112.53,156.89,108.55,153.66,104.01,153.66z M79.18,147.01
	c-3.93-2.27-9-1.46-12.63,2.34c-9.77,10.22-10.65,26.23-10.26,35.62c0.03,0.73,0.81,1.18,1.46,0.84
	c8.33-4.35,21.76-13.12,25.72-26.69C84.95,154.07,83.11,149.28,79.18,147.01z M61,128.83c-2.27-3.93-7.06-5.77-12.11-4.29
	c-13.57,3.97-22.34,17.39-26.69,25.72c-0.34,0.65,0.11,1.43,0.84,1.46c9.39,0.4,25.4-0.49,35.62-10.26
	C62.47,137.83,63.27,132.76,61,128.83z M54.35,104c0-4.54-3.23-8.52-8.34-9.77c-13.74-3.35-28.05,3.89-35.98,8.93
	c-0.62,0.39-0.62,1.29,0,1.68c7.93,5.04,22.24,12.28,35.98,8.93C51.12,112.52,54.35,108.54,54.35,104z M61,79.17
	c2.27-3.93,1.46-9-2.34-12.63c-10.22-9.77-26.23-10.65-35.62-10.26c-0.73,0.03-1.18,0.81-0.84,1.46
	c4.35,8.33,13.12,21.76,26.69,25.72C53.94,84.94,58.73,83.1,61,79.17z M79.18,60.99c3.93-2.27,5.77-7.06,4.29-12.11
	C79.5,35.31,66.08,26.54,57.75,22.19c-0.65-0.34-1.43,0.11-1.46,0.84c-0.4,9.39,0.49,25.4,10.26,35.62
	C70.18,62.46,75.25,63.26,79.18,60.99z M104.01,61.75c23.33,0,42.25,18.92,42.25,42.25s-18.92,42.25-42.25,42.25
	S61.76,127.33,61.76,104S80.68,61.75,104.01,61.75z"/>
</svg>
